<?xml version="1.0" encoding="UTF-8" standalone="no"?>
<!-- Generator: Adobe Illustrator 23.0.1, SVG Export Plug-In . SVG Version: 6.00 Build 0)  -->

<svg
   xmlns:dc="http://purl.org/dc/elements/1.1/"
   xmlns:cc="http://creativecommons.org/ns#"
   xmlns:rdf="http://www.w3.org/1999/02/22-rdf-syntax-ns#"
   xmlns:svg="http://www.w3.org/2000/svg"
   xmlns="http://www.w3.org/2000/svg"
   xmlns:sodipodi="http://sodipodi.sourceforge.net/DTD/sodipodi-0.dtd"
   xmlns:inkscape="http://www.inkscape.org/namespaces/inkscape"
   version="1.1"
   id="Layer_1"
   x="0px"
   y="0px"
   viewBox="0 0 684.56249 254.30999"
   xml:space="preserve"
   sodipodi:docname="advisory.svg"
   width="684.5625"
   height="254.31"
   inkscape:version="0.92.4 (unknown)"><metadata
   id="metadata49"><rdf:RDF><cc:Work
       rdf:about=""><dc:format>image/svg+xml</dc:format><dc:type
         rdf:resource="http://purl.org/dc/dcmitype/StillImage" /></cc:Work></rdf:RDF></metadata><defs
   id="defs47" /><sodipodi:namedview
   pagecolor="#ffffff"
   bordercolor="#666666"
   borderopacity="1"
   objecttolerance="10"
   gridtolerance="10"
   guidetolerance="10"
   inkscape:pageopacity="0"
   inkscape:pageshadow="2"
   inkscape:window-width="1910"
   inkscape:window-height="1002"
   id="namedview45"
   showgrid="false"
   inkscape:zoom="1.4491089"
   inkscape:cx="233.49414"
   inkscape:cy="110.04549"
   inkscape:window-x="1920"
   inkscape:window-y="36"
   inkscape:window-maximized="0"
   inkscape:current-layer="Layer_1" />
<style
   type="text/css"
   id="style2">
	.st0{fill:#161341;}
	.st1{fill:#FFF200;}
	.st2{fill:#F1F2F2;}
	.st3{fill:#F47522;}
	.st4{opacity:0.2;fill:#504D50;}
	.st5{opacity:0.4;fill:#504D50;}
	.st6{opacity:0.6;fill:#504D50;}
	.st7{opacity:0.8;fill:#504D50;}
	.st8{fill:#4A4F54;}
	.st9{opacity:0.2;fill:#F37021;}
	.st10{opacity:0.4;fill:#F37021;}
	.st11{opacity:0.6;fill:#F37021;}
	.st12{opacity:0.8;fill:#F37021;}
	.st13{fill:#F37021;}
	.st14{opacity:0.2;fill:#161341;}
	.st15{opacity:0.4;fill:#161341;}
	.st16{opacity:0.6;fill:#161341;}
	.st17{opacity:0.8;fill:#161341;}
	.st18{fill:#1F1646;}
	.st19{fill:#CCC9CA;}
	.st20{fill:#A7A2A3;}
	.st21{fill:#938D8F;}
	.st22{fill:#868183;}
	.st23{fill:#6F6A6C;}
	.st24{fill:#6A6567;}
	.st25{fill:#5A5658;}
	.st26{fill:#FEDEC7;}
	.st27{fill:#FCC198;}
	.st28{fill:#FAB07F;}
	.st29{fill:#F9A56F;}
	.st30{fill:#F78F4F;}
	.st31{fill:#F68A46;}
	.st32{fill:#F47A2E;}
	.st33{fill:#B8B3C2;}
	.st34{fill:#857E97;}
	.st35{fill:#6B6481;}
	.st36{fill:#5C5574;}
	.st37{fill:#3F3A5D;}
	.st38{fill:#383458;}
	.st39{fill:#24204A;}
</style>
<g
   id="g20"
   transform="translate(-84.0175,-26.23)">
	<path
   class="st2"
   d="m 494.02,241.61 c 0,-0.12 -0.02,-0.28 -0.06,-0.47 -0.04,-0.2 -0.05,-0.58 -0.03,-1.16 0.02,-0.57 0.08,-1.12 0.18,-1.63 0.1,-0.51 0.3,-1.1 0.59,-1.75 0.3,-0.65 0.69,-1.21 1.19,-1.66 0.49,-0.45 1.17,-0.84 2.01,-1.16 0.85,-0.32 1.85,-0.47 2.99,-0.47 0.36,0 0.91,0 1.66,0 1.03,-0.04 2.08,-0.04 3.17,0 1.09,0.04 2.17,0.09 3.26,0.15 1.09,0.06 2.14,0.23 3.17,0.5 1.03,0.28 2,0.61 2.93,1.01 0.93,0.4 1.78,0.96 2.55,1.69 0.77,0.73 1.44,1.57 2.02,2.52 0.57,0.95 1.02,2.11 1.33,3.5 0.31,1.39 0.47,2.94 0.47,4.68 v 0.42 0.42 0.47 0.42 0.47 0.47 0.53 0.59 0.59 0.71 0.95 0.47 c 0,1.62 -0.18,3.09 -0.53,4.42 -0.36,1.32 -0.8,2.4 -1.33,3.23 -0.53,0.83 -1.2,1.56 -1.99,2.19 -0.79,0.63 -1.53,1.1 -2.22,1.39 -0.69,0.3 -1.49,0.53 -2.4,0.71 -0.91,0.18 -1.61,0.29 -2.1,0.33 -0.49,0.04 -1.08,0.06 -1.75,0.06 h -8.18 c -0.12,0 -0.3,-0.01 -0.53,-0.03 -0.24,-0.02 -0.68,-0.08 -1.33,-0.18 -0.65,-0.1 -1.27,-0.25 -1.87,-0.45 -0.59,-0.2 -1.25,-0.52 -1.99,-0.98 -0.73,-0.45 -1.35,-0.99 -1.87,-1.6 -0.51,-0.61 -0.95,-1.41 -1.3,-2.4 -0.36,-0.99 -0.53,-2.09 -0.53,-3.32 0,-2.17 0.28,-4 0.83,-5.48 0.55,-1.48 1.39,-2.63 2.52,-3.44 1.13,-0.81 2.38,-1.37 3.76,-1.69 1.38,-0.32 3.06,-0.47 5.04,-0.47 3.44,0 5.78,-0.23 7.02,-0.68 1.25,-0.45 1.87,-1.16 1.87,-2.1 0,-1.34 -1.29,-2.25 -3.88,-2.73 -2.59,-0.47 -5.33,-0.57 -8.24,-0.3 -2.9,0.29 -5.05,0.71 -6.43,1.26 z m 18.79,8.95 c -0.16,0.2 -0.39,0.44 -0.68,0.71 -0.3,0.28 -0.96,0.64 -1.99,1.1 -1.03,0.45 -2.09,0.68 -3.2,0.68 -1.94,0 -3.51,0.24 -4.71,0.71 -1.21,0.47 -1.81,1.15 -1.81,2.01 0,1.03 0.43,1.8 1.3,2.31 0.87,0.51 2.61,0.77 5.22,0.77 1.07,0 1.89,-0.01 2.46,-0.03 0.57,-0.02 1.11,-0.17 1.6,-0.44 0.49,-0.28 0.84,-0.53 1.04,-0.77 0.2,-0.24 0.36,-0.74 0.5,-1.51 0.14,-0.77 0.22,-1.51 0.24,-2.22 0.02,-0.71 0.03,-1.82 0.03,-3.32 z"
   id="path4"
   inkscape:connector-curvature="0"
   style="fill:#f1f2f2" />
	<path
   class="st2"
   d="m 552.45,220.51 c 0.59,0.44 1.33,0.71 2.22,0.83 0.89,0.12 1.7,0.18 2.43,0.18 0.73,0 1.43,0.11 2.1,0.33 0.67,0.22 1.19,0.74 1.57,1.57 0.38,0.83 0.56,2.04 0.56,3.62 V 262 c -0.04,0.04 -0.23,0.27 -0.56,0.68 -0.34,0.42 -0.64,0.75 -0.92,1.01 -0.28,0.26 -0.79,0.59 -1.54,1.01 -0.75,0.41 -1.58,0.74 -2.49,0.98 -0.91,0.24 -2.13,0.45 -3.67,0.65 -1.54,0.2 -3.28,0.3 -5.21,0.3 -6.08,0 -10.45,-1.31 -13.1,-3.94 -2.65,-2.63 -3.97,-7 -3.97,-13.13 0,-2.37 0.32,-4.49 0.95,-6.37 0.63,-1.88 1.47,-3.41 2.52,-4.59 1.05,-1.19 2.28,-2.17 3.7,-2.96 1.42,-0.79 2.86,-1.34 4.33,-1.66 1.46,-0.32 2.98,-0.47 4.56,-0.47 3.04,0 5.21,0.47 6.52,1.42 z m 0,29.63 v -8.42 c -0.51,-0.16 -1.08,-0.3 -1.69,-0.42 -0.61,-0.12 -1.37,-0.21 -2.28,-0.27 -0.91,-0.06 -1.77,-0.05 -2.58,0.03 -0.81,0.08 -1.65,0.32 -2.52,0.71 -0.87,0.39 -1.62,0.92 -2.25,1.57 -0.63,0.65 -1.15,1.56 -1.54,2.73 -0.4,1.17 -0.59,2.54 -0.59,4.12 0,1.5 0.24,2.81 0.71,3.91 0.47,1.11 1.06,1.96 1.75,2.55 0.69,0.59 1.54,1.04 2.55,1.33 1.01,0.3 1.92,0.47 2.73,0.53 0.81,0.06 1.69,0.04 2.64,-0.06 0.95,-0.1 1.61,-0.19 1.99,-0.27 0.38,-0.08 0.72,-0.16 1.04,-0.24 h 0.06 c 0.02,0.03 0.02,-2.58 -0.02,-7.8 z"
   id="path6"
   inkscape:connector-curvature="0"
   style="fill:#f1f2f2" />
	<path
   class="st2"
   d="m 588.37,266.21 c -1.5,0.04 -2.79,0.05 -3.85,0.03 -1.07,-0.02 -2,-0.22 -2.79,-0.59 -0.79,-0.38 -1.51,-1.04 -2.16,-1.98 -0.65,-0.95 -1.33,-2.33 -2.04,-4.15 -1.42,-3.48 -2.88,-7.27 -4.36,-11.38 -1.48,-4.11 -2.6,-7.34 -3.35,-9.69 -0.75,-2.35 -1.13,-3.55 -1.13,-3.59 0.04,0 0.33,-0.1 0.86,-0.3 0.53,-0.2 1.09,-0.37 1.66,-0.5 0.57,-0.14 1.27,-0.21 2.1,-0.21 0.83,0 1.61,0.13 2.34,0.38 0.73,0.26 1.48,0.75 2.25,1.48 0.77,0.73 1.41,1.71 1.93,2.93 1.3,3.71 3.2,9.29 5.69,16.71 2.92,-8.69 4.9,-14.52 5.93,-17.48 0.51,-1.18 1.16,-2.15 1.93,-2.9 0.77,-0.75 1.52,-1.25 2.25,-1.48 0.73,-0.24 1.51,-0.37 2.34,-0.39 0.83,-0.02 1.52,0.05 2.07,0.21 0.55,0.16 1.11,0.33 1.66,0.5 0.55,0.18 0.85,0.27 0.89,0.27 -3.71,10.75 -7.17,19.99 -10.37,27.74 -0.08,0.16 -0.16,0.36 -0.24,0.59 -0.32,0.75 -0.55,1.3 -0.71,1.66 -0.16,0.36 -0.38,0.73 -0.65,1.13 -0.28,0.4 -0.59,0.66 -0.95,0.8 -0.36,0.14 -0.79,0.21 -1.3,0.21 z"
   id="path8"
   inkscape:connector-curvature="0"
   style="fill:#f1f2f2" />
	<path
   class="st2"
   d="m 610.71,229.94 c -0.91,-0.95 -1.36,-2.07 -1.36,-3.38 0,-1.31 0.46,-2.42 1.39,-3.35 0.93,-0.93 2.04,-1.39 3.35,-1.39 1.31,0 2.42,0.46 3.35,1.39 0.93,0.93 1.39,2.04 1.39,3.35 0,1.31 -0.46,2.42 -1.39,3.35 -0.93,0.93 -2.04,1.39 -3.35,1.39 -1.31,0 -2.43,-0.45 -3.38,-1.36 z m 7.76,9.3 c 0,-1.94 -0.32,-3.33 -0.95,-4.18 -0.63,-0.85 -1.35,-1.27 -2.16,-1.27 -0.81,0 -1.8,-0.05 -2.96,-0.15 -1.17,-0.1 -2.1,-0.4 -2.82,-0.92 v 33.48 c 2.88,0.16 5.11,-0.13 6.67,-0.86 1.56,-0.73 2.3,-2.28 2.22,-4.65 z"
   id="path10"
   inkscape:connector-curvature="0"
   style="fill:#f1f2f2" />
	<path
   class="st2"
   d="m 652.9,241.67 c -1.23,-0.04 -2.82,-0.15 -4.77,-0.33 -1.96,-0.18 -3.38,-0.28 -4.27,-0.3 -0.89,-0.02 -2.34,0.03 -4.36,0.15 -0.51,0.04 -0.97,0.12 -1.36,0.24 -1.5,0.44 -2.17,1.13 -2.01,2.07 0.12,0.59 0.51,0.93 1.18,1.01 2.02,0.32 3.86,0.7 5.54,1.16 1.68,0.46 3.09,0.93 4.24,1.42 1.15,0.49 2.18,1.04 3.11,1.63 0.93,0.59 1.66,1.18 2.19,1.75 0.53,0.57 1.01,1.15 1.42,1.72 0.42,0.57 0.68,1.12 0.8,1.63 0.12,0.51 0.24,1 0.36,1.45 0.12,0.45 0.15,0.83 0.09,1.13 -0.06,0.3 -0.07,0.52 -0.03,0.68 v 0.12 c 0,3.36 -1.4,5.76 -4.21,7.2 -2.81,1.44 -7.17,2.16 -13.1,2.16 -1.58,0 -2.95,-0.17 -4.12,-0.5 -1.17,-0.33 -2.07,-0.73 -2.73,-1.18 -0.65,-0.45 -1.17,-1.01 -1.54,-1.66 -0.38,-0.65 -0.62,-1.24 -0.74,-1.78 -0.12,-0.53 -0.17,-1.09 -0.15,-1.66 0.02,-0.57 0.05,-0.97 0.09,-1.19 0.04,-0.22 0.08,-0.37 0.12,-0.44 1.22,0.04 2.82,0.15 4.77,0.33 1.96,0.18 3.38,0.28 4.27,0.3 0.89,0.02 2.34,-0.03 4.36,-0.15 1.22,-0.12 2.19,-0.33 2.9,-0.65 0.71,-0.32 1.12,-0.65 1.21,-1.01 0.1,-0.36 0.04,-0.71 -0.18,-1.07 -0.22,-0.36 -0.58,-0.68 -1.1,-0.98 -0.51,-0.3 -1.11,-0.52 -1.78,-0.68 -1.03,-0.32 -2.32,-0.63 -3.88,-0.95 -1.56,-0.32 -2.86,-0.57 -3.88,-0.77 -1.03,-0.2 -2.13,-0.53 -3.32,-1.01 -1.18,-0.47 -2.14,-1.04 -2.87,-1.69 -0.73,-0.65 -1.34,-1.57 -1.84,-2.75 -0.5,-1.19 -0.76,-2.59 -0.8,-4.21 0,-0.08 0,-0.16 0,-0.24 0,-3.36 1.4,-5.76 4.21,-7.2 2.8,-1.44 7.17,-2.16 13.1,-2.16 1.58,0 2.95,0.17 4.12,0.5 1.17,0.33 2.07,0.73 2.73,1.18 0.65,0.46 1.17,1.01 1.54,1.66 0.38,0.65 0.62,1.24 0.74,1.78 0.12,0.53 0.17,1.09 0.15,1.66 -0.02,0.57 -0.05,0.97 -0.09,1.19 -0.03,0.21 -0.07,0.36 -0.11,0.44 z"
   id="path12"
   inkscape:connector-curvature="0"
   style="fill:#f1f2f2" />
	<path
   class="st2"
   d="m 661.91,249.79 c -0.04,-0.24 -0.07,-0.55 -0.09,-0.95 -0.02,-0.39 0.04,-1.17 0.18,-2.31 0.14,-1.15 0.36,-2.24 0.68,-3.29 0.32,-1.05 0.87,-2.2 1.66,-3.47 0.79,-1.26 1.77,-2.35 2.93,-3.26 1.17,-0.91 2.74,-1.67 4.71,-2.28 1.98,-0.61 4.23,-0.92 6.76,-0.92 1.78,0 3.42,0.14 4.92,0.41 1.5,0.28 2.79,0.65 3.88,1.13 1.09,0.47 2.05,1.07 2.9,1.78 0.85,0.71 1.55,1.41 2.1,2.1 0.55,0.69 1.02,1.51 1.39,2.46 0.38,0.95 0.66,1.77 0.86,2.46 0.2,0.69 0.34,1.5 0.42,2.43 0.08,0.93 0.13,1.63 0.15,2.1 0.02,0.47 0.02,1.08 0,1.81 -0.02,0.73 -0.03,1.14 -0.03,1.22 0,0.63 -0.02,1.21 -0.06,1.72 -0.04,0.51 -0.16,1.32 -0.36,2.43 -0.2,1.11 -0.47,2.09 -0.83,2.96 -0.36,0.87 -0.92,1.82 -1.69,2.84 -0.77,1.03 -1.68,1.89 -2.73,2.58 -1.05,0.69 -2.41,1.27 -4.09,1.75 -1.68,0.47 -3.57,0.71 -5.66,0.71 -2.17,0 -4.11,-0.14 -5.81,-0.42 -1.7,-0.28 -3.14,-0.64 -4.33,-1.1 -1.19,-0.46 -2.22,-1.08 -3.11,-1.87 -0.89,-0.79 -1.61,-1.6 -2.16,-2.43 -0.55,-0.83 -1.01,-1.86 -1.36,-3.08 -0.36,-1.22 -0.62,-2.4 -0.8,-3.53 -0.18,-1.13 -0.31,-2.44 -0.43,-3.98 z m 8.83,0.53 c 0.12,1.38 0.29,2.48 0.5,3.29 0.22,0.81 0.61,1.61 1.19,2.4 0.57,0.79 1.43,1.36 2.58,1.72 1.15,0.36 2.61,0.53 4.39,0.53 1.38,0 2.57,-0.22 3.56,-0.65 0.99,-0.43 1.72,-0.93 2.19,-1.48 0.47,-0.55 0.85,-1.22 1.13,-2.01 0.28,-0.79 0.43,-1.38 0.47,-1.78 0.04,-0.39 0.06,-0.83 0.06,-1.3 0,-0.04 0,-0.25 0,-0.62 0,-0.38 0,-0.69 0,-0.95 0,-0.26 -0.02,-0.64 -0.06,-1.16 -0.04,-0.51 -0.11,-0.96 -0.21,-1.33 -0.1,-0.38 -0.24,-0.82 -0.42,-1.33 -0.18,-0.51 -0.4,-0.96 -0.65,-1.33 -0.26,-0.38 -0.59,-0.76 -1.01,-1.16 -0.42,-0.39 -0.88,-0.72 -1.39,-0.98 -0.51,-0.26 -1.14,-0.46 -1.87,-0.62 -0.73,-0.16 -1.53,-0.24 -2.4,-0.24 -1.58,0 -2.92,0.22 -4.03,0.65 -1.11,0.43 -1.92,0.94 -2.43,1.51 -0.51,0.57 -0.91,1.32 -1.19,2.25 -0.28,0.93 -0.42,1.65 -0.44,2.16 -0.02,0.51 -0.01,1.17 0.03,1.96 0,0.24 0,0.39 0,0.47 z"
   id="path14"
   inkscape:connector-curvature="0"
   style="fill:#f1f2f2" />
	<path
   class="st2"
   d="m 725.5,233.31 c -0.04,0.08 -0.03,0.49 0.03,1.24 0.06,0.75 0.05,1.47 -0.03,2.16 -0.08,0.69 -0.24,1.43 -0.47,2.22 -0.23,0.79 -0.72,1.42 -1.45,1.9 -0.73,0.47 -1.67,0.71 -2.81,0.71 -1.66,0 -2.94,0.06 -3.85,0.18 -0.91,0.12 -1.72,0.42 -2.43,0.89 -0.71,0.47 -1.19,1.15 -1.42,2.01 -0.24,0.87 -0.36,2.06 -0.36,3.56 v 18.96 c -0.71,-0.51 -1.65,-0.92 -2.81,-1.21 -1.17,-0.3 -2.15,-0.52 -2.96,-0.68 -0.81,-0.16 -1.53,-0.62 -2.16,-1.39 -0.63,-0.77 -0.95,-1.89 -0.95,-3.35 v -15.88 c 0,-0.24 0.01,-0.56 0.03,-0.98 0.02,-0.42 0.09,-0.99 0.21,-1.72 0.12,-0.73 0.32,-1.46 0.59,-2.19 0.28,-0.73 0.69,-1.49 1.25,-2.28 0.55,-0.79 1.22,-1.48 2.01,-2.07 0.79,-0.59 1.81,-1.09 3.05,-1.48 1.25,-0.39 2.64,-0.59 4.18,-0.59 2.65,0 4.6,0 5.87,0 1.27,0 1.96,0 2.07,0 0.12,0 0.35,0 0.68,0 0.31,-0.01 0.9,-0.01 1.73,-0.01 z"
   id="path16"
   inkscape:connector-curvature="0"
   style="fill:#f1f2f2" />
	<path
   class="st2"
   d="m 746.77,264.6 h 7.94 l -5.1,11.2 c -1.5,1.62 -3.32,2.43 -5.45,2.43 -0.95,0 -1.77,-0.25 -2.46,-0.74 -0.69,-0.5 -1.16,-0.98 -1.39,-1.45 l -0.36,-0.77 6.52,-12.98 c -0.08,-0.2 -0.16,-0.42 -0.24,-0.65 -1.42,-3.48 -3.34,-7.58 -5.75,-12.3 -2.41,-4.72 -4.14,-8.03 -5.19,-9.93 -1.05,-1.9 -1.89,-3.4 -2.52,-4.5 1.26,-0.39 2.21,-0.67 2.84,-0.83 0.63,-0.16 1.41,-0.23 2.34,-0.21 0.93,0.02 1.8,0.15 2.61,0.38 0.81,0.24 1.63,0.72 2.46,1.45 0.83,0.73 1.5,1.71 2.02,2.93 0.55,1.58 1.33,3.5 2.34,5.75 1.01,2.25 1.89,4.13 2.64,5.63 0.75,1.5 1.13,2.27 1.13,2.31 2.65,-6.68 4.48,-11.5 5.51,-14.46 0.51,-1.18 1.17,-2.14 1.99,-2.87 0.81,-0.73 1.61,-1.21 2.4,-1.42 0.79,-0.22 1.63,-0.32 2.52,-0.3 0.89,0.02 1.65,0.12 2.28,0.3 0.63,0.18 1.23,0.37 1.81,0.56 0.57,0.2 0.88,0.3 0.92,0.3 -3.44,6.91 -6.76,14.26 -9.96,22.05 -0.63,1.46 -1.39,2.73 -2.28,3.79 -0.89,1.07 -1.72,1.87 -2.49,2.4 -0.77,0.53 -1.66,0.96 -2.67,1.27 -1.01,0.32 -1.8,0.5 -2.37,0.56 -0.57,0.08 -1.25,0.1 -2.04,0.1 z"
   id="path18"
   inkscape:connector-curvature="0"
   style="fill:#f1f2f2" />
</g>
<g
   id="g28"
   transform="translate(-84.0175,-26.23)">
	<path
   class="st2"
   d="m 336.62,99.08 h 8.95 c 0,0 7.95,-0.61 7.95,6.12 0,7.16 0,14.16 0,14.16 h -16.9 l 0.26,94.9 h -17.5 c 0,0 -9.76,1.15 -9.76,-13.68 0,-17.24 0,-130.74 0,-130.74 0,0 -3.01,-28.75 27.15,-28.75 l 25.66,0.1 0.01,6.42 c 0.01,7.36 -5.92,13.36 -13.29,13.42 v 0 c 0,0 -12.38,-0.48 -12.38,9.28 -0.01,3.21 -0.15,28.77 -0.15,28.77 z"
   id="path22"
   inkscape:connector-curvature="0"
   style="fill:#f1f2f2" />
	<path
   class="st2"
   d="m 367.14,213.86 v -76.59 c 0,-2.59 0.86,-4.87 2.58,-6.84 1.72,-1.97 4.01,-2.96 6.88,-2.96 h 12.07 v 76.59 c 0,2.59 -0.94,4.87 -2.83,6.84 -1.89,1.97 -4.07,2.96 -6.54,2.96 z m 6.5,-115.68 h 15.54 c 0.06,0 0.08,0.03 0.08,0.08 v 15.79 c 0,2.25 -1.15,3.83 -3.46,4.73 -0.56,0.11 -1.1,0.17 -1.6,0.17 h -15.87 c -0.06,0 -0.08,-0.03 -0.08,-0.08 V 103.5 c 0,-2.59 1.18,-4.28 3.55,-5.07 0.49,-0.17 1.11,-0.25 1.84,-0.25 z"
   id="path24"
   inkscape:connector-curvature="0"
   style="fill:#f1f2f2" />
	<path
   class="st2"
   d="m 472.94,202.88 c 0,3.15 -0.91,5.63 -2.71,7.43 -2.37,2.42 -5.06,3.63 -8.05,3.63 h -11.53 v -66.88 c 0,-5.46 -3.84,-8.19 -11.53,-8.19 -7.68,0 -11.53,2.73 -11.53,8.19 v 55.81 c 0,3.15 -0.91,5.63 -2.71,7.43 -1.75,2.42 -4.12,3.63 -7.12,3.63 H 405.3 V 148 c 0,-14.02 11.27,-21.03 33.82,-21.03 22.55,0 33.82,7.01 33.82,21.03 z"
   id="path26"
   inkscape:connector-curvature="0"
   style="fill:#f1f2f2" />
</g>
<g
   id="g38"
   transform="translate(-84.0175,-26.23)">
	<path
   class="st3"
   d="m 716.29,202.88 c 0,3.15 -0.91,5.63 -2.71,7.43 -2.37,2.42 -5.06,3.63 -8.05,3.63 H 694 v -66.88 c 0,-5.46 -3.84,-8.19 -11.53,-8.19 -7.68,0 -11.53,2.73 -11.53,8.19 v 55.81 c 0,3.15 -0.91,5.63 -2.71,7.43 -1.75,2.42 -4.12,3.63 -7.12,3.63 H 648.65 V 148 c 0,-14.02 11.27,-21.03 33.82,-21.03 22.55,0 33.82,7.01 33.82,21.03 z"
   id="path30"
   inkscape:connector-curvature="0"
   style="fill:#f47522" />
	<path
   class="st3"
   d="m 522.67,127.14 c 12.95,0 21.9,2.51 26.85,7.52 4.67,4.5 7.01,11.74 7.01,21.7 v 0.34 h -13.68 c -2.2,0 -4.19,-0.99 -6,-2.96 -1.18,-1.63 -1.77,-3.35 -1.77,-5.15 v -0.76 c 0,-3.94 -1.75,-6.5 -5.24,-7.68 -1.86,-0.56 -4.02,-0.84 -6.5,-0.84 -7.82,0 -11.74,2.76 -11.74,8.26 v 45.79 c 0,3.71 1.75,6.13 5.24,7.25 1.75,0.56 3.69,0.84 5.83,0.84 h 1.18 c 5.29,0 8.75,-1.43 10.39,-4.29 0.56,-1.12 0.84,-2.44 0.84,-3.95 v -3.78 c 0,-2.92 1.29,-5.27 3.88,-7.06 1.29,-0.73 2.79,-1.09 4.48,-1.09 h 13.09 v 0.42 c 0,10.58 -1.8,18.1 -5.4,22.55 -0.17,0.34 -0.93,1.18 -2.28,2.53 -4.95,4.73 -13.68,7.09 -26.18,7.09 -14.19,0 -24.04,-3.12 -29.55,-9.37 -2.76,-3.26 -4.14,-7.32 -4.14,-12.16 v -43.66 c 0,-9.79 5.57,-16.3 16.72,-19.51 4.96,-1.35 10.61,-2.03 16.97,-2.03 z"
   id="path32"
   inkscape:connector-curvature="0"
   style="fill:#f47522" />
	<path
   class="st3"
   d="m 632.53,148.76 v 18.07 c 0,2.98 -0.94,5.38 -2.83,7.18 -1.89,1.8 -4.04,2.7 -6.46,2.7 H 587.1 v 17.56 c 0,5.52 3.72,8.28 11.15,8.28 7.82,0 11.74,-2.76 11.74,-8.28 v -1.19 c 0,-5.26 4.27,-9.53 9.53,-9.53 h 13.01 v 9.71 c 0,14.02 -11.43,21.03 -34.28,21.03 -10.25,0 -18.35,-1.79 -24.32,-5.36 -5.97,-3.57 -8.95,-8.8 -8.95,-15.66 v -44.5 c 0,-6.81 2.98,-12.09 8.95,-15.83 5.97,-3.74 14.07,-5.62 24.32,-5.62 22.85,-0.01 34.28,7.14 34.28,21.44 z m -45.34,-0.85 v 15.62 h 23.05 v -15.62 c 0,-5.85 -3.94,-8.78 -11.82,-8.78 -7.49,0 -11.23,2.93 -11.23,8.78 z"
   id="path34"
   inkscape:connector-curvature="0"
   style="fill:#f47522" />
	<path
   class="st3"
   d="m 727.01,139.25 c -2.59,0 -4.94,-2.21 -4.94,-4.94 v -6.68 l 11.17,0.01 v -18.5 c 0,-9.99 9.72,-10.2 9.72,-10.2 h 12.25 l -0.04,28.36 v 0.32 h 6.26 c 2.73,0 4.94,2.21 4.94,4.94 v 6.68 l -11.22,0.06 v 3.53 l 0.01,11.58 c 0,0 0.07,37.68 0,39.86 -0.26,8 11.11,8.65 11.11,8.65 l -0.13,11.02 c -8.21,-0.48 -19.37,-2.68 -19.37,-2.68 -14.01,-2.81 -13.66,-16.17 -13.66,-16.17 v -41.33 l 0.13,-14.46"
   id="path36"
   inkscape:connector-curvature="0"
   style="fill:#f47522" />
</g>
<path
   class="st3"
   d="m 106.8725,197.15 36.28,-37.08 c 17.9,-18.3 17.9,-47.54 0,-65.84 l -36.28,-37.08 V 6.73 c -0.04,-1.74 0.6,-3.49 1.93,-4.81 2.57,-2.56 6.72,-2.55 9.27,0.02 l 57.9,57.64 c 37.43,37.27 37.43,97.87 0,135.14 l -57.79,57.54 c -1.19,1.26 -2.89,2.05 -4.76,2.05 -3.62,0 -6.56,-2.94 -6.56,-6.56 v -50.6 z"
   id="path40"
   inkscape:connector-curvature="0"
   style="fill:#f47522" />
<path
   class="st2"
   d="m 97.1725,57.16 -36.28,37.08 c -17.9,18.3 -17.9,47.54 0,65.84 l 36.28,37.08 v 50.42 c 0.04,1.74 -0.6,3.49 -1.93,4.81 -2.57,2.56 -6.72,2.55 -9.27,-0.02 l -57.9,-57.64 c -37.43,-37.27 -37.43,-97.87 0,-135.14 l 57.79,-57.54 c 1.19,-1.26 2.89,-2.05 4.76,-2.05 3.62,0 6.56,2.94 6.56,6.56 v 50.6 z m -25.32,71.86 c -7.82,7.82 -7.82,20.49 0,28.31 7.82,7.82 20.49,7.82 28.31,0 l 32.03,-32.03 c 7.82,-7.82 7.82,-20.49 0,-28.31 -7.82,-7.82 -20.49,-7.82 -28.31,0 z"
   id="path42"
   inkscape:connector-curvature="0"
   style="fill:#f1f2f2" />
</svg>