<?xml version="1.0" encoding="utf-8"?>
<!-- Generator: Adobe Illustrator 23.0.1, SVG Export Plug-In . SVG Version: 6.00 Build 0)  -->
<svg version="1.1" id="Layer_1" xmlns="http://www.w3.org/2000/svg" xmlns:xlink="http://www.w3.org/1999/xlink" x="0px" y="0px"
	 viewBox="0 0 841.89 311.18" style="enable-background:new 0 0 841.89 311.18;" xml:space="preserve">
<style type="text/css">
	.st0{fill:#161341;}
	.st1{fill:#FFF200;}
	.st2{fill:#F1F2F2;}
	.st3{fill:#F47522;}
	.st4{opacity:0.2;fill:#504D50;}
	.st5{opacity:0.4;fill:#504D50;}
	.st6{opacity:0.6;fill:#504D50;}
	.st7{opacity:0.8;fill:#504D50;}
	.st8{fill:#4A4F54;}
	.st9{opacity:0.2;fill:#F37021;}
	.st10{opacity:0.4;fill:#F37021;}
	.st11{opacity:0.6;fill:#F37021;}
	.st12{opacity:0.8;fill:#F37021;}
	.st13{fill:#F37021;}
	.st14{opacity:0.2;fill:#161341;}
	.st15{opacity:0.4;fill:#161341;}
	.st16{opacity:0.6;fill:#161341;}
	.st17{opacity:0.8;fill:#161341;}
	.st18{fill:#1F1646;}
	.st19{fill:#CCC9CA;}
	.st20{fill:#A7A2A3;}
	.st21{fill:#938D8F;}
	.st22{fill:#868183;}
	.st23{fill:#6F6A6C;}
	.st24{fill:#6A6567;}
	.st25{fill:#5A5658;}
	.st26{fill:#FEDEC7;}
	.st27{fill:#FCC198;}
	.st28{fill:#FAB07F;}
	.st29{fill:#F9A56F;}
	.st30{fill:#F78F4F;}
	.st31{fill:#F68A46;}
	.st32{fill:#F47A2E;}
	.st33{fill:#B8B3C2;}
	.st34{fill:#857E97;}
	.st35{fill:#6B6481;}
	.st36{fill:#5C5574;}
	.st37{fill:#3F3A5D;}
	.st38{fill:#383458;}
	.st39{fill:#24204A;}
</style>
<g>
	<path class="st2" d="M302.7,236.99l-3.35,3.85c0.74-0.26,1.42-0.63,2.04-1.12c0.61-0.48,1.1-0.88,1.45-1.2
		c0.35-0.32,1.03-0.6,2.04-0.87c1-0.26,2.33-0.39,3.96-0.39c1.49,0,2.92,0.15,4.3,0.45c1.38,0.3,2.73,0.82,4.07,1.56
		c1.34,0.75,2.5,1.67,3.49,2.79c0.99,1.12,1.78,2.56,2.37,4.33c0.59,1.77,0.89,3.77,0.89,6c0,5.77-1.25,9.89-3.74,12.36
		c-2.49,2.47-6.6,3.71-12.33,3.71c-1.82,0-3.46-0.09-4.91-0.28s-2.6-0.39-3.46-0.61c-0.86-0.22-1.64-0.53-2.34-0.92
		c-0.71-0.39-1.19-0.71-1.45-0.95c-0.26-0.24-0.55-0.56-0.87-0.95c-0.32-0.39-0.49-0.6-0.53-0.64v-32.93c0-1.49,0.18-2.62,0.53-3.4
		s0.85-1.27,1.48-1.48c0.63-0.2,1.29-0.31,1.98-0.31s1.45-0.06,2.29-0.17c0.84-0.11,1.54-0.37,2.09-0.78V236.99z M302.7,252.96
		c-0.04,4.91-0.04,7.37,0,7.37h0.06c0.3,0.08,0.62,0.15,0.98,0.22c0.35,0.08,0.98,0.16,1.87,0.25c0.89,0.09,1.72,0.11,2.48,0.06
		s1.62-0.22,2.57-0.5c0.95-0.28,1.75-0.7,2.4-1.26c0.65-0.56,1.2-1.36,1.65-2.4c0.45-1.04,0.67-2.27,0.67-3.68
		c0-1.49-0.19-2.78-0.56-3.88c-0.37-1.1-0.86-1.95-1.45-2.57c-0.6-0.61-1.3-1.11-2.12-1.48s-1.61-0.59-2.37-0.67
		c-0.76-0.07-1.57-0.08-2.43-0.03c-0.86,0.06-1.57,0.14-2.15,0.25c-0.58,0.11-1.11,0.24-1.59,0.39V252.96z"/>
	<path class="st2" d="M327.65,257.59v-20.31c1.3-0.07,2.42-0.06,3.35,0.03c0.93,0.09,1.8,0.31,2.62,0.64
		c0.82,0.33,1.43,0.88,1.84,1.65c0.41,0.76,0.59,1.72,0.56,2.87v12.05v0.11v2.79c0.56,2.75,3.09,3.83,7.59,3.24
		c2.31-0.3,3.67-0.52,4.07-0.67c-0.11-0.63-0.17-1.38-0.17-2.23v-15.29c-0.04-1.15,0.14-2.11,0.53-2.87s1-1.31,1.84-1.65
		c0.84-0.33,1.72-0.55,2.65-0.64c0.93-0.09,2.05-0.1,3.35-0.03v27.18c0,2.42-3.89,3.72-11.66,3.91
		C333.17,268.66,327.65,265.07,327.65,257.59z"/>
	<path class="st2" d="M380.39,237.11c-0.04,0.07-0.03,0.46,0.03,1.17s0.05,1.39-0.03,2.04c-0.08,0.65-0.22,1.35-0.45,2.09
		s-0.68,1.34-1.37,1.79c-0.69,0.45-1.57,0.67-2.65,0.67c-1.56,0-2.77,0.06-3.63,0.17c-0.86,0.11-1.62,0.39-2.29,0.84
		c-0.67,0.45-1.12,1.08-1.34,1.9s-0.33,1.93-0.33,3.35v17.86c-0.67-0.48-1.55-0.86-2.65-1.14c-1.1-0.28-2.03-0.49-2.79-0.64
		s-1.44-0.59-2.04-1.31c-0.6-0.73-0.89-1.78-0.89-3.15v-14.96c0-0.22,0.01-0.53,0.03-0.92s0.08-0.93,0.2-1.62
		c0.11-0.69,0.3-1.38,0.56-2.07c0.26-0.69,0.65-1.4,1.17-2.15c0.52-0.74,1.15-1.4,1.9-1.95c0.74-0.56,1.7-1.02,2.87-1.4
		c1.17-0.37,2.48-0.56,3.93-0.56c2.49,0,4.33,0,5.53,0c1.19,0,1.84,0,1.95,0s0.33,0,0.64,0S379.6,237.11,380.39,237.11z"/>
	<path class="st2" d="M387.7,257.36c0,1.15,0.58,2.02,1.73,2.6c1.15,0.58,2.61,0.88,4.38,0.89c1.77,0.02,3.5-0.06,5.19-0.22
		c1.69-0.17,3.29-0.36,4.8-0.59c1.51-0.22,2.37-0.33,2.6-0.33c0.15,3.24-0.49,5.52-1.93,6.86c-1.43,1.34-4.31,2.01-8.62,2.01
		c-5.95,0-10.33-1.21-13.12-3.63c-2.79-2.42-4.19-6.6-4.19-12.56c0-2.98,0.38-5.5,1.14-7.56c0.76-2.07,1.88-3.64,3.35-4.72
		c1.47-1.08,3.11-1.84,4.91-2.29c1.8-0.45,3.92-0.67,6.33-0.67c4.61,0,8.01,0.98,10.19,2.93s3.26,5.07,3.26,9.35
		c0,1.64-0.32,2.95-0.95,3.93c-0.63,0.99-1.46,1.65-2.48,1.98c-1.02,0.33-2.25,0.58-3.68,0.73c-1.43,0.15-2.85,0.2-4.24,0.14
		c-1.39-0.06-2.9,0.01-4.52,0.2C390.24,256.6,388.85,256.92,387.7,257.36z M387.42,251.5c0.63-0.45,1.67-0.74,3.1-0.89
		c1.43-0.15,2.77-0.23,4.02-0.25c1.25-0.02,2.35-0.28,3.32-0.78c0.97-0.5,1.43-1.29,1.4-2.37c0-0.97-0.76-1.77-2.29-2.4
		c-2.12-0.89-4.19-0.97-6.2-0.22C387.98,245.59,386.86,247.9,387.42,251.5z"/>
	<path class="st2" d="M410.86,244.92c0-0.11-0.02-0.26-0.06-0.45c-0.04-0.19-0.05-0.55-0.03-1.09c0.02-0.54,0.07-1.05,0.17-1.54
		c0.09-0.48,0.28-1.03,0.56-1.65c0.28-0.61,0.65-1.13,1.12-1.56c0.46-0.43,1.1-0.79,1.9-1.09c0.8-0.3,1.74-0.45,2.82-0.45
		c0.33,0,0.86,0,1.56,0c0.97-0.04,1.96-0.04,2.99,0s2.05,0.08,3.07,0.14c1.02,0.06,2.02,0.21,2.99,0.47
		c0.97,0.26,1.89,0.58,2.76,0.95c0.87,0.37,1.67,0.9,2.4,1.59c0.73,0.69,1.36,1.48,1.9,2.37c0.54,0.89,0.96,1.99,1.26,3.29
		c0.3,1.3,0.45,2.77,0.45,4.41v0.39v0.39v0.45v0.39v0.45v0.45v0.5v0.56v0.56v0.67v0.89v0.45c0,1.53-0.17,2.91-0.5,4.16
		c-0.33,1.25-0.75,2.26-1.26,3.04c-0.5,0.78-1.13,1.47-1.87,2.07c-0.75,0.6-1.44,1.03-2.09,1.31c-0.65,0.28-1.41,0.5-2.26,0.67
		c-0.86,0.17-1.52,0.27-1.98,0.31s-1.01,0.06-1.65,0.06h-7.7c-0.11,0-0.28-0.01-0.5-0.03c-0.22-0.02-0.64-0.07-1.26-0.17
		c-0.61-0.09-1.2-0.23-1.76-0.42c-0.56-0.19-1.18-0.49-1.87-0.92c-0.69-0.43-1.27-0.93-1.76-1.51c-0.48-0.58-0.89-1.33-1.23-2.26
		c-0.33-0.93-0.5-1.97-0.5-3.13c0-2.05,0.26-3.77,0.78-5.16c0.52-1.39,1.31-2.47,2.37-3.24s2.24-1.29,3.54-1.59
		c1.3-0.3,2.88-0.45,4.74-0.45c3.24,0,5.44-0.21,6.61-0.64s1.76-1.09,1.76-1.98c0-1.26-1.22-2.12-3.66-2.57
		c-2.44-0.45-5.02-0.54-7.76-0.28C414.18,244.01,412.16,244.4,410.86,244.92z M428.55,253.35c-0.15,0.19-0.36,0.41-0.64,0.67
		c-0.28,0.26-0.9,0.6-1.87,1.03c-0.97,0.43-1.97,0.64-3.01,0.64c-1.82,0-3.3,0.22-4.44,0.67c-1.14,0.45-1.7,1.08-1.7,1.9
		c0,0.97,0.41,1.69,1.23,2.18c0.82,0.48,2.46,0.73,4.91,0.73c1,0,1.78-0.01,2.32-0.03c0.54-0.02,1.04-0.16,1.51-0.42
		c0.46-0.26,0.79-0.5,0.98-0.73c0.19-0.22,0.34-0.7,0.47-1.42c0.13-0.73,0.2-1.42,0.22-2.09
		C428.54,255.8,428.55,254.76,428.55,253.35z"/>
	<path class="st2" d="M440.6,257.59v-20.31c1.3-0.07,2.42-0.06,3.35,0.03c0.93,0.09,1.8,0.31,2.62,0.64
		c0.82,0.33,1.43,0.88,1.84,1.65c0.41,0.76,0.59,1.72,0.56,2.87v12.05v0.11v2.79c0.56,2.75,3.09,3.83,7.59,3.24
		c2.31-0.3,3.67-0.52,4.07-0.67c-0.11-0.63-0.17-1.38-0.17-2.23v-15.29c-0.04-1.15,0.14-2.11,0.53-2.87s1-1.31,1.84-1.65
		c0.84-0.33,1.72-0.55,2.65-0.64c0.93-0.09,2.05-0.1,3.35-0.03v27.18c0,2.42-3.89,3.72-11.66,3.91
		C446.13,268.66,440.6,265.07,440.6,257.59z"/>
	<path class="st2" d="M505.56,225.05c0.56,0.41,1.26,0.67,2.09,0.78c0.84,0.11,1.6,0.17,2.29,0.17s1.35,0.1,1.98,0.31
		c0.63,0.21,1.13,0.7,1.48,1.48s0.53,1.92,0.53,3.4v32.93c-0.04,0.04-0.21,0.25-0.53,0.64s-0.6,0.71-0.86,0.95
		c-0.26,0.24-0.75,0.56-1.45,0.95c-0.71,0.39-1.49,0.7-2.34,0.92c-0.86,0.22-2.01,0.43-3.46,0.61c-1.45,0.19-3.09,0.28-4.91,0.28
		c-5.73,0-9.84-1.24-12.33-3.71c-2.49-2.47-3.74-6.59-3.74-12.36c0-2.23,0.3-4.23,0.89-6c0.59-1.77,1.39-3.21,2.37-4.33
		c0.99-1.12,2.15-2.05,3.49-2.79c1.34-0.74,2.7-1.26,4.07-1.56c1.38-0.3,2.81-0.45,4.3-0.45c2.86,0,4.91,0.45,6.14,1.34V225.05z
		 M505.56,252.96v-7.92c-0.48-0.15-1.01-0.28-1.59-0.39c-0.58-0.11-1.29-0.2-2.15-0.25c-0.86-0.06-1.67-0.05-2.43,0.03
		c-0.76,0.08-1.55,0.3-2.37,0.67s-1.53,0.87-2.12,1.48c-0.6,0.61-1.08,1.47-1.45,2.57c-0.37,1.1-0.56,2.39-0.56,3.88
		c0,1.41,0.22,2.64,0.67,3.68c0.45,1.04,1,1.84,1.65,2.4c0.65,0.56,1.45,0.98,2.4,1.26c0.95,0.28,1.8,0.45,2.57,0.5
		s1.59,0.04,2.48-0.06c0.89-0.09,1.52-0.18,1.87-0.25c0.35-0.07,0.68-0.15,0.98-0.22h0.06C505.6,260.32,505.6,257.87,505.56,252.96z
		"/>
	<path class="st2" d="M526.83,257.36c0,1.15,0.58,2.02,1.73,2.6c1.15,0.58,2.61,0.88,4.38,0.89c1.77,0.02,3.5-0.06,5.19-0.22
		c1.69-0.17,3.29-0.36,4.8-0.59c1.51-0.22,2.37-0.33,2.6-0.33c0.15,3.24-0.49,5.52-1.93,6.86c-1.43,1.34-4.31,2.01-8.62,2.01
		c-5.95,0-10.33-1.21-13.12-3.63c-2.79-2.42-4.19-6.6-4.19-12.56c0-2.98,0.38-5.5,1.14-7.56c0.76-2.07,1.88-3.64,3.35-4.72
		c1.47-1.08,3.11-1.84,4.91-2.29c1.8-0.45,3.92-0.67,6.33-0.67c4.61,0,8.01,0.98,10.19,2.93s3.26,5.07,3.26,9.35
		c0,1.64-0.32,2.95-0.95,3.93c-0.63,0.99-1.46,1.65-2.48,1.98c-1.02,0.33-2.25,0.58-3.68,0.73c-1.43,0.15-2.85,0.2-4.24,0.14
		c-1.39-0.06-2.9,0.01-4.52,0.2C529.37,256.6,527.98,256.92,526.83,257.36z M526.55,251.5c0.63-0.45,1.67-0.74,3.1-0.89
		c1.43-0.15,2.77-0.23,4.02-0.25c1.25-0.02,2.35-0.28,3.32-0.78c0.97-0.5,1.43-1.29,1.4-2.37c0-0.97-0.76-1.77-2.29-2.4
		c-2.12-0.89-4.19-0.97-6.2-0.22C527.11,245.59,525.99,247.9,526.55,251.5z"/>
	<path class="st2" d="M587.04,238.17c0,0.04,0,0.11,0,0.22c0.48,4.32-0.99,6.47-4.41,6.47c-0.41,0-1.09-0.01-2.04-0.03
		c-0.95-0.02-1.66-0.03-2.12-0.03c-0.47,0-1.11,0.05-1.93,0.14s-1.45,0.23-1.9,0.42s-0.95,0.47-1.51,0.86
		c-0.56,0.39-0.99,0.87-1.28,1.42c-0.3,0.56-0.55,1.28-0.75,2.18c-0.21,0.89-0.31,1.9-0.31,3.01c0,1.08,0.09,2.03,0.28,2.85
		c0.19,0.82,0.42,1.51,0.7,2.07c0.28,0.56,0.7,1.03,1.26,1.42c0.56,0.39,1.12,0.7,1.67,0.92c0.56,0.22,1.31,0.39,2.26,0.5
		c0.95,0.11,1.82,0.18,2.62,0.2c0.8,0.02,1.85,0.03,3.15,0.03c0.52,0,0.98,0.07,1.37,0.2c0.39,0.13,0.73,0.3,1,0.5
		c0.28,0.21,0.52,0.47,0.73,0.78c0.2,0.32,0.36,0.63,0.47,0.95s0.2,0.66,0.25,1.03c0.06,0.37,0.08,0.72,0.08,1.03
		c0,0.32-0.01,0.64-0.03,0.98s-0.04,0.61-0.06,0.84c-0.02,0.22-0.07,0.54-0.14,0.95c-1.53,0.19-2.89,0.33-4.1,0.42
		c-1.21,0.09-2.71,0.11-4.49,0.06c-1.79-0.06-3.35-0.24-4.69-0.56c-1.34-0.32-2.73-0.84-4.19-1.56s-2.65-1.66-3.6-2.79
		c-0.95-1.13-1.73-2.62-2.34-4.46c-0.61-1.84-0.92-3.95-0.92-6.33c0-12.46,7.63-17.47,22.88-15.01
		C585.5,237.91,586.19,238.02,587.04,238.17z"/>
	<path class="st2" d="M599.15,238.17c1.82-0.74,4.87-1.12,9.15-1.12c2.08,0,3.87,0.35,5.36,1.06c1.49,0.71,2.57,1.52,3.24,2.43
		c0.67,0.91,1.18,1.95,1.53,3.13c0.35,1.17,0.55,2.05,0.59,2.62s0.04,1.07,0,1.48v20.31c-5.58,0.74-8.37-0.99-8.37-5.19
		c0-1.56,0-3.61,0-6.14c0.04-5.54-0.22-8.92-0.78-10.13c-0.56-1.21-2.31-1.85-5.25-1.92c-1.82,0-3.65,0.33-5.47,1v17.19
		c0.07,2.23-0.62,3.69-2.09,4.38c-1.47,0.69-3.56,0.96-6.28,0.81v-43.53c0.67,0.48,1.55,0.77,2.65,0.87
		c1.1,0.09,2.03,0.14,2.79,0.14s1.44,0.4,2.04,1.2c0.59,0.8,0.89,2.11,0.89,3.93V238.17z"/>
	<path class="st2" d="M624.94,244.92c0-0.11-0.02-0.26-0.06-0.45c-0.04-0.19-0.05-0.55-0.03-1.09c0.02-0.54,0.07-1.05,0.17-1.54
		c0.09-0.48,0.28-1.03,0.56-1.65c0.28-0.61,0.65-1.13,1.12-1.56c0.46-0.43,1.1-0.79,1.9-1.09c0.8-0.3,1.74-0.45,2.82-0.45
		c0.33,0,0.86,0,1.56,0c0.97-0.04,1.96-0.04,2.99,0s2.05,0.08,3.07,0.14c1.02,0.06,2.02,0.21,2.99,0.47
		c0.97,0.26,1.89,0.58,2.76,0.95c0.87,0.37,1.67,0.9,2.4,1.59c0.73,0.69,1.36,1.48,1.9,2.37c0.54,0.89,0.96,1.99,1.26,3.29
		c0.3,1.3,0.45,2.77,0.45,4.41v0.39v0.39v0.45v0.39v0.45v0.45v0.5v0.56v0.56v0.67v0.89v0.45c0,1.53-0.17,2.91-0.5,4.16
		c-0.33,1.25-0.75,2.26-1.26,3.04c-0.5,0.78-1.13,1.47-1.87,2.07c-0.75,0.6-1.44,1.03-2.09,1.31c-0.65,0.28-1.41,0.5-2.26,0.67
		c-0.86,0.17-1.52,0.27-1.98,0.31s-1.01,0.06-1.65,0.06h-7.7c-0.11,0-0.28-0.01-0.5-0.03c-0.22-0.02-0.64-0.07-1.26-0.17
		c-0.61-0.09-1.2-0.23-1.76-0.42c-0.56-0.19-1.18-0.49-1.87-0.92c-0.69-0.43-1.27-0.93-1.76-1.51c-0.48-0.58-0.89-1.33-1.23-2.26
		c-0.33-0.93-0.5-1.97-0.5-3.13c0-2.05,0.26-3.77,0.78-5.16c0.52-1.39,1.31-2.47,2.37-3.24s2.24-1.29,3.54-1.59
		c1.3-0.3,2.88-0.45,4.74-0.45c3.24,0,5.44-0.21,6.61-0.64s1.76-1.09,1.76-1.98c0-1.26-1.22-2.12-3.66-2.57
		c-2.44-0.45-5.02-0.54-7.76-0.28C628.26,244.01,626.24,244.4,624.94,244.92z M642.63,253.35c-0.15,0.19-0.36,0.41-0.64,0.67
		c-0.28,0.26-0.9,0.6-1.87,1.03c-0.97,0.43-1.97,0.64-3.01,0.64c-1.82,0-3.3,0.22-4.44,0.67c-1.14,0.45-1.7,1.08-1.7,1.9
		c0,0.97,0.41,1.69,1.23,2.18c0.82,0.48,2.46,0.73,4.91,0.73c1,0,1.78-0.01,2.32-0.03c0.54-0.02,1.04-0.16,1.51-0.42
		c0.46-0.26,0.79-0.5,0.98-0.73c0.19-0.22,0.34-0.7,0.47-1.42c0.13-0.73,0.2-1.42,0.22-2.09
		C642.62,255.8,642.63,254.76,642.63,253.35z"/>
	<path class="st2" d="M682.92,247.76v20.31c-1.3,0.07-2.42,0.06-3.35-0.03c-0.93-0.09-1.81-0.31-2.65-0.64s-1.45-0.88-1.84-1.65
		c-0.39-0.76-0.57-1.72-0.53-2.87v-12.05v-0.11v-2.79c-0.56-2.71-3.09-3.79-7.59-3.24c-2.34,0.3-3.7,0.52-4.07,0.67
		c0.11,0.63,0.17,1.38,0.17,2.23v15.29c0.04,1.15-0.15,2.11-0.56,2.87c-0.41,0.76-1.02,1.31-1.84,1.65s-1.69,0.55-2.62,0.64
		c-0.93,0.09-2.05,0.1-3.35,0.03V240.9c0-2.42,3.89-3.72,11.66-3.91C677.36,236.7,682.88,240.29,682.92,247.76z"/>
	<path class="st2" d="M708.81,267.3c-1.53,0.15-2.89,0.26-4.1,0.33c-1.21,0.08-2.61,0.06-4.21-0.06c-1.6-0.11-3-0.33-4.21-0.64
		c-1.21-0.32-2.45-0.84-3.71-1.56s-2.31-1.62-3.13-2.68c-0.82-1.06-1.49-2.43-2.01-4.1c-0.52-1.67-0.78-3.59-0.78-5.75
		c0-8.33,3.38-13.34,10.16-15.01c3.5-0.89,8.43-0.78,14.79,0.33c1.53,0.41,2.6,0.83,3.24,1.26c0.63,0.43,0.95,1.14,0.95,2.15v22.99
		v0.06c0.04,0.04,0.06,0.08,0.06,0.11c0.78,2.12,1.03,3.99,0.75,5.61c-0.28,1.62-0.88,3.01-1.79,4.19
		c-0.91,1.17-2.16,2.13-3.74,2.87c-1.58,0.74-3.27,1.29-5.08,1.65c-1.8,0.35-3.73,0.53-5.78,0.53c-1.86,0-3.49-0.07-4.88-0.2
		c-1.4-0.13-2.44-0.28-3.13-0.45c-0.69-0.17-1.25-0.35-1.67-0.56c-0.43-0.21-0.67-0.35-0.73-0.45c-0.06-0.09-0.1-0.16-0.14-0.2
		c0-3.16,0.47-5.01,1.42-5.55c0.95-0.54,3.36-0.62,7.23-0.25c0.82,0.07,1.45,0.13,1.9,0.17c3.13,0,5.52-0.44,7.2-1.31
		C709.09,269.91,709.56,268.75,708.81,267.3z M707.53,244.86c-0.11,0-0.22,0-0.33,0c-0.48,0-1.17-0.01-2.06-0.03
		c-0.89-0.02-1.59-0.04-2.09-0.06c-0.5-0.02-1.14,0-1.93,0.06s-1.41,0.16-1.87,0.31c-0.47,0.15-0.98,0.37-1.54,0.67
		c-0.56,0.3-0.99,0.67-1.28,1.12c-0.3,0.45-0.55,1.02-0.75,1.73c-0.21,0.71-0.31,1.53-0.31,2.46c0,1.6,0.02,2.73,0.06,3.4
		c0.04,0.67,0.17,1.48,0.39,2.43c0.22,0.95,0.58,1.58,1.06,1.9c0.48,0.32,1.18,0.63,2.09,0.95c0.91,0.32,2.05,0.44,3.43,0.36
		c1.38-0.07,3.09-0.24,5.13-0.5V244.86z"/>
	<path class="st2" d="M728.46,257.36c0,1.15,0.58,2.02,1.73,2.6c1.15,0.58,2.61,0.88,4.38,0.89c1.77,0.02,3.5-0.06,5.19-0.22
		c1.69-0.17,3.29-0.36,4.8-0.59c1.51-0.22,2.37-0.33,2.6-0.33c0.15,3.24-0.49,5.52-1.93,6.86c-1.43,1.34-4.31,2.01-8.62,2.01
		c-5.95,0-10.33-1.21-13.12-3.63c-2.79-2.42-4.19-6.6-4.19-12.56c0-2.98,0.38-5.5,1.14-7.56c0.76-2.07,1.88-3.64,3.35-4.72
		c1.47-1.08,3.11-1.84,4.91-2.29c1.8-0.45,3.92-0.67,6.33-0.67c4.61,0,8.01,0.98,10.19,2.93s3.26,5.07,3.26,9.35
		c0,1.64-0.32,2.95-0.95,3.93c-0.63,0.99-1.46,1.65-2.48,1.98c-1.02,0.33-2.25,0.58-3.68,0.73c-1.43,0.15-2.85,0.2-4.24,0.14
		c-1.39-0.06-2.9,0.01-4.52,0.2C731,256.6,729.61,256.92,728.46,257.36z M728.18,251.5c0.63-0.45,1.67-0.74,3.1-0.89
		c1.43-0.15,2.77-0.23,4.02-0.25c1.25-0.02,2.35-0.28,3.32-0.78c0.97-0.5,1.43-1.29,1.4-2.37c0-0.97-0.76-1.77-2.29-2.4
		c-2.12-0.89-4.19-0.97-6.2-0.22C728.74,245.59,727.62,247.9,728.18,251.5z"/>
</g>
<g>
	<path class="st2" d="M318.74,97.03h8.95c0,0,7.95-0.61,7.95,6.12c0,7.16,0,14.16,0,14.16h-16.9l0.26,94.9h-17.5
		c0,0-9.76,1.15-9.76-13.68c0-17.24,0-130.74,0-130.74s-3.01-28.75,27.15-28.75l25.66,0.1l0.01,6.42
		c0.01,7.36-5.92,13.36-13.29,13.42h0c0,0-12.38-0.48-12.38,9.28C318.88,71.47,318.74,97.03,318.74,97.03z"/>
	<path class="st2" d="M349.26,211.81v-76.59c0-2.59,0.86-4.87,2.58-6.84c1.72-1.97,4.01-2.96,6.88-2.96h12.07v76.59
		c0,2.59-0.94,4.87-2.83,6.84c-1.89,1.97-4.07,2.96-6.54,2.96H349.26z M355.76,96.13h15.54c0.06,0,0.08,0.03,0.08,0.08V112
		c0,2.25-1.15,3.83-3.46,4.73c-0.56,0.11-1.1,0.17-1.6,0.17h-15.87c-0.06,0-0.08-0.03-0.08-0.08v-15.37c0-2.59,1.18-4.28,3.55-5.07
		C354.41,96.21,355.03,96.13,355.76,96.13z"/>
	<path class="st2" d="M455.06,200.83c0,3.15-0.91,5.63-2.71,7.43c-2.37,2.42-5.06,3.63-8.05,3.63h-11.53v-66.88
		c0-5.46-3.84-8.19-11.53-8.19s-11.53,2.73-11.53,8.19v55.81c0,3.15-0.91,5.63-2.71,7.43c-1.75,2.42-4.12,3.63-7.12,3.63h-12.46
		v-65.95c0-14.02,11.27-21.03,33.82-21.03s33.82,7.01,33.82,21.03V200.83z"/>
</g>
<g>
	<path class="st3" d="M698.41,200.83c0,3.15-0.91,5.63-2.71,7.43c-2.37,2.42-5.06,3.63-8.05,3.63h-11.53v-66.88
		c0-5.46-3.84-8.19-11.53-8.19c-7.68,0-11.53,2.73-11.53,8.19v55.81c0,3.15-0.91,5.63-2.71,7.43c-1.75,2.42-4.12,3.63-7.12,3.63
		h-12.46v-65.95c0-14.02,11.27-21.03,33.82-21.03c22.55,0,33.82,7.01,33.82,21.03V200.83z"/>
	<path class="st3" d="M504.8,125.09c12.95,0,21.9,2.51,26.85,7.52c4.67,4.5,7.01,11.74,7.01,21.7v0.34h-13.68
		c-2.2,0-4.19-0.99-6-2.96c-1.18-1.63-1.77-3.35-1.77-5.15v-0.76c0-3.94-1.75-6.5-5.24-7.68c-1.86-0.56-4.02-0.84-6.5-0.84
		c-7.82,0-11.74,2.76-11.74,8.26v45.79c0,3.71,1.75,6.13,5.24,7.25c1.75,0.56,3.69,0.84,5.83,0.84h1.18c5.29,0,8.75-1.43,10.39-4.29
		c0.56-1.12,0.84-2.44,0.84-3.95v-3.78c0-2.92,1.29-5.27,3.88-7.06c1.29-0.73,2.79-1.09,4.48-1.09h13.09v0.42
		c0,10.58-1.8,18.1-5.4,22.55c-0.17,0.34-0.93,1.18-2.28,2.53c-4.95,4.73-13.68,7.09-26.18,7.09c-14.19,0-24.04-3.12-29.55-9.37
		c-2.76-3.26-4.14-7.32-4.14-12.16v-43.66c0-9.79,5.57-16.3,16.72-19.51C492.78,125.76,498.43,125.09,504.8,125.09z"/>
	<path class="st3" d="M614.65,146.71v18.07c0,2.98-0.94,5.38-2.83,7.18s-4.04,2.7-6.46,2.7h-36.14v17.56
		c0,5.52,3.72,8.28,11.15,8.28c7.82,0,11.74-2.76,11.74-8.28v-1.19c0-5.26,4.27-9.53,9.53-9.53h13.01v9.71
		c0,14.02-11.43,21.03-34.28,21.03c-10.25,0-18.35-1.79-24.32-5.36c-5.97-3.57-8.95-8.8-8.95-15.66v-44.5
		c0-6.81,2.98-12.09,8.95-15.83c5.97-3.74,14.07-5.62,24.32-5.62C603.22,125.26,614.65,132.41,614.65,146.71z M569.31,145.86v15.62
		h23.05v-15.62c0-5.85-3.94-8.78-11.82-8.78C573.05,137.08,569.31,140.01,569.31,145.86z"/>
	<path class="st3" d="M709.14,137.19c-2.59,0-4.94-2.21-4.94-4.94v-6.68l11.17,0.01v-18.5c0-9.99,9.72-10.2,9.72-10.2h12.25
		l-0.04,28.36l0,0.32l6.26,0c2.73,0,4.94,2.21,4.94,4.94v6.68l-11.22,0.06l0,3.53l0.01,11.58c0,0,0.07,37.68,0,39.86
		c-0.26,8,11.11,8.65,11.11,8.65l-0.13,11.02c-8.21-0.48-19.37-2.68-19.37-2.68c-14.01-2.81-13.66-16.17-13.66-16.17v-41.33
		l0.13-14.46"/>
</g>
<path class="st3" d="M173.01,221.33l36.28-37.08c17.9-18.3,17.9-47.54,0-65.84l-36.28-37.08l0-50.42c-0.04-1.74,0.6-3.49,1.93-4.81
	c2.57-2.56,6.72-2.55,9.27,0.02l57.9,57.64c37.43,37.27,37.43,97.87,0,135.14l-57.79,57.54c-1.19,1.26-2.89,2.05-4.76,2.05
	c-3.62,0-6.56-2.94-6.56-6.56V221.33z"/>
<path class="st2" d="M163.31,81.34l-36.28,37.08c-17.9,18.3-17.9,47.54,0,65.84l36.28,37.08l0,50.42c0.04,1.74-0.6,3.49-1.93,4.81
	c-2.57,2.56-6.72,2.55-9.27-0.02l-57.9-57.64c-37.43-37.27-37.43-97.87,0-135.14L152,26.23c1.19-1.26,2.89-2.05,4.76-2.05
	c3.62,0,6.56,2.94,6.56,6.56V81.34z M137.99,153.2c-7.82,7.82-7.82,20.49,0,28.31s20.49,7.82,28.31,0l32.03-32.03
	c7.82-7.82,7.82-20.49,0-28.31s-20.49-7.82-28.31,0L137.99,153.2z"/>
</svg>
