<?xml version="1.0" encoding="utf-8"?>
<!-- Generator: Adobe Illustrator 23.0.1, SVG Export Plug-In . SVG Version: 6.00 Build 0)  -->
<svg version="1.1" id="Layer_1" xmlns="http://www.w3.org/2000/svg" xmlns:xlink="http://www.w3.org/1999/xlink" x="0px" y="0px"
	 viewBox="0 0 850.39 566.93" style="enable-background:new 0 0 850.39 566.93;" xml:space="preserve">
<style type="text/css">
	.st0{fill:#161341;}
	.st1{fill:#FFF200;}
	.st2{fill:#F47522;}
	.st3{fill:#F7F7F7;}
	.st4{opacity:0.2;fill:#504D50;}
	.st5{opacity:0.4;fill:#504D50;}
	.st6{opacity:0.6;fill:#504D50;}
	.st7{opacity:0.8;fill:#504D50;}
	.st8{fill:#4A4F54;}
	.st9{opacity:0.2;fill:#F37021;}
	.st10{opacity:0.4;fill:#F37021;}
	.st11{opacity:0.6;fill:#F37021;}
	.st12{opacity:0.8;fill:#F37021;}
	.st13{fill:#F37021;}
	.st14{opacity:0.2;fill:#161341;}
	.st15{opacity:0.4;fill:#161341;}
	.st16{opacity:0.6;fill:#161341;}
	.st17{opacity:0.8;fill:#161341;}
	.st18{fill:#1F1646;}
	.st19{fill:#CCC9CA;}
	.st20{fill:#A7A2A3;}
	.st21{fill:#938D8F;}
	.st22{fill:#868183;}
	.st23{fill:#6F6A6C;}
	.st24{fill:#6A6567;}
	.st25{fill:#5A5658;}
	.st26{fill:#FEDEC7;}
	.st27{fill:#FCC198;}
	.st28{fill:#FAB07F;}
	.st29{fill:#F9A56F;}
	.st30{fill:#F78F4F;}
	.st31{fill:#F68A46;}
	.st32{fill:#F47A2E;}
	.st33{fill:#B8B3C2;}
	.st34{fill:#857E97;}
	.st35{fill:#6B6481;}
	.st36{fill:#5C5574;}
	.st37{fill:#3F3A5D;}
	.st38{fill:#383458;}
	.st39{fill:#24204A;}
</style>
<g>
	<path class="st0" d="M592.04,367.94c0,0.04,0,0.12,0,0.24c0.51,4.58-1.05,6.88-4.68,6.88c-0.43,0-1.16-0.01-2.16-0.03
		c-1.01-0.02-1.76-0.03-2.25-0.03s-1.18,0.05-2.04,0.15c-0.87,0.1-1.54,0.25-2.02,0.44c-0.47,0.2-1.01,0.5-1.6,0.92
		c-0.59,0.41-1.05,0.92-1.36,1.51c-0.32,0.59-0.58,1.36-0.8,2.31c-0.22,0.95-0.33,2.01-0.33,3.2c0,1.15,0.1,2.15,0.3,3.02
		c0.2,0.87,0.44,1.6,0.74,2.19c0.3,0.59,0.74,1.1,1.33,1.51c0.59,0.41,1.18,0.74,1.78,0.98s1.39,0.42,2.4,0.53
		c1.01,0.12,1.94,0.19,2.79,0.21s1.96,0.03,3.35,0.03c0.55,0,1.04,0.07,1.45,0.21c0.41,0.14,0.77,0.32,1.07,0.53
		c0.3,0.22,0.55,0.5,0.77,0.83c0.22,0.34,0.38,0.67,0.5,1.01c0.12,0.34,0.21,0.7,0.27,1.1c0.06,0.4,0.09,0.76,0.09,1.1
		c0,0.34-0.01,0.68-0.03,1.04s-0.04,0.65-0.06,0.89c-0.02,0.24-0.07,0.57-0.15,1.01c-1.62,0.2-3.07,0.35-4.36,0.44
		c-1.28,0.1-2.88,0.12-4.77,0.06c-1.9-0.06-3.56-0.26-4.98-0.59c-1.42-0.33-2.9-0.89-4.45-1.66c-1.54-0.77-2.81-1.76-3.82-2.96
		c-1.01-1.2-1.84-2.79-2.49-4.74c-0.65-1.96-0.98-4.2-0.98-6.73c0-13.24,8.1-18.55,24.3-15.94
		C590.4,367.66,591.13,367.78,592.04,367.94z"/>
	<path class="st0" d="M599.93,375.11c0-0.12-0.02-0.28-0.06-0.47c-0.04-0.2-0.05-0.58-0.03-1.16c0.02-0.57,0.08-1.12,0.18-1.63
		s0.3-1.1,0.59-1.75c0.3-0.65,0.69-1.21,1.19-1.66c0.49-0.45,1.17-0.84,2.01-1.16c0.85-0.32,1.85-0.47,2.99-0.47
		c0.36,0,0.91,0,1.66,0c1.03-0.04,2.08-0.04,3.17,0c1.09,0.04,2.17,0.09,3.26,0.15c1.09,0.06,2.14,0.23,3.17,0.5
		c1.03,0.28,2,0.61,2.93,1.01c0.93,0.4,1.78,0.96,2.55,1.69c0.77,0.73,1.44,1.57,2.02,2.52c0.57,0.95,1.02,2.11,1.33,3.5
		s0.47,2.94,0.47,4.68v0.42v0.42v0.47v0.42v0.47v0.47v0.53v0.59v0.59v0.71v0.95v0.47c0,1.62-0.18,3.09-0.53,4.42
		c-0.36,1.32-0.8,2.4-1.33,3.23c-0.53,0.83-1.2,1.56-1.99,2.19c-0.79,0.63-1.53,1.1-2.22,1.39c-0.69,0.3-1.49,0.53-2.4,0.71
		c-0.91,0.18-1.61,0.29-2.1,0.33c-0.49,0.04-1.08,0.06-1.75,0.06h-8.18c-0.12,0-0.3-0.01-0.53-0.03c-0.24-0.02-0.68-0.08-1.33-0.18
		c-0.65-0.1-1.27-0.25-1.87-0.45c-0.59-0.2-1.25-0.52-1.99-0.98c-0.73-0.45-1.35-0.99-1.87-1.6c-0.51-0.61-0.95-1.41-1.3-2.4
		c-0.36-0.99-0.53-2.09-0.53-3.32c0-2.17,0.28-4,0.83-5.48c0.55-1.48,1.39-2.63,2.52-3.44c1.13-0.81,2.38-1.37,3.76-1.69
		c1.38-0.32,3.06-0.47,5.04-0.47c3.44,0,5.78-0.23,7.02-0.68c1.25-0.45,1.87-1.16,1.87-2.1c0-1.34-1.29-2.25-3.88-2.73
		c-2.59-0.47-5.33-0.57-8.24-0.3C603.45,374.14,601.31,374.55,599.93,375.11z M618.71,384.06c-0.16,0.2-0.39,0.44-0.68,0.71
		c-0.3,0.28-0.96,0.64-1.99,1.1c-1.03,0.45-2.09,0.68-3.2,0.68c-1.94,0-3.51,0.24-4.71,0.71c-1.21,0.47-1.81,1.15-1.81,2.01
		c0,1.03,0.43,1.8,1.3,2.31c0.87,0.51,2.61,0.77,5.22,0.77c1.07,0,1.89-0.01,2.46-0.03c0.57-0.02,1.11-0.17,1.6-0.44
		c0.49-0.28,0.84-0.53,1.04-0.77c0.2-0.24,0.36-0.74,0.5-1.51c0.14-0.77,0.22-1.51,0.24-2.22
		C618.7,386.66,618.71,385.56,618.71,384.06z"/>
	<path class="st0" d="M644.85,412.8c-0.71-0.51-1.65-0.82-2.82-0.92c-1.17-0.1-2.15-0.15-2.96-0.15c-0.81,0-1.53-0.42-2.16-1.27
		c-0.63-0.85-0.95-2.24-0.95-4.18v-34.96c0.04-0.04,0.23-0.27,0.56-0.68s0.64-0.74,0.92-0.98c0.28-0.24,0.79-0.57,1.54-1.01
		c0.75-0.43,1.58-0.77,2.49-1.01c0.91-0.24,2.13-0.45,3.67-0.65s3.28-0.3,5.22-0.3c6.08,0,10.45,1.31,13.1,3.94
		c2.65,2.63,3.97,7,3.97,13.13c0,2.96-0.47,5.53-1.42,7.7c-0.95,2.17-2.22,3.84-3.82,5.01c-1.6,1.17-3.3,2.01-5.1,2.55
		s-3.7,0.8-5.72,0.8c-2.73,0-4.9-0.28-6.52-0.83V412.8z M644.85,383.17v8.42c0.63,0.2,1.31,0.36,2.04,0.47
		c0.73,0.12,1.65,0.22,2.76,0.3c1.11,0.08,2.13-0.04,3.08-0.36c0.95-0.32,1.86-0.77,2.73-1.36s1.56-1.54,2.07-2.84
		s0.77-2.86,0.77-4.68c0-1.5-0.25-2.8-0.74-3.91c-0.5-1.11-1.07-1.96-1.72-2.55c-0.65-0.59-1.51-1.04-2.58-1.33
		c-1.07-0.3-1.96-0.47-2.67-0.53c-0.71-0.06-1.6-0.03-2.67,0.09c-1.07,0.12-1.72,0.2-1.96,0.24c-0.24,0.04-0.59,0.12-1.07,0.24
		h-0.06C644.81,375.34,644.81,377.95,644.85,383.17z"/>
	<path class="st0" d="M676.85,363.43c-0.91-0.95-1.36-2.07-1.36-3.38s0.46-2.42,1.39-3.35c0.93-0.93,2.04-1.39,3.35-1.39
		s2.42,0.46,3.35,1.39c0.93,0.93,1.39,2.04,1.39,3.35s-0.46,2.42-1.39,3.35c-0.93,0.93-2.04,1.39-3.35,1.39
		S677.8,364.34,676.85,363.43z M684.61,372.74c0-1.94-0.32-3.33-0.95-4.18s-1.35-1.27-2.16-1.27c-0.81,0-1.8-0.05-2.96-0.15
		c-1.17-0.1-2.1-0.4-2.82-0.92v33.48c2.88,0.16,5.11-0.13,6.67-0.86c1.56-0.73,2.3-2.28,2.22-4.65V372.74z"/>
	<path class="st0" d="M711.52,392c0.55,1.74,0.63,3.34,0.24,4.8c-0.4,1.46-1.07,2.43-2.02,2.9c-2.05,0.63-4.06,0.82-6.01,0.56
		c-1.96-0.26-3.7-0.8-5.21-1.63c-1.52-0.83-2.76-2.04-3.7-3.62s-1.42-3.38-1.42-5.39v-25.48c-0.04-1.22,0.16-2.24,0.59-3.05
		c0.43-0.81,1.09-1.39,1.96-1.75c0.87-0.36,1.8-0.58,2.79-0.68c0.99-0.1,2.17-0.11,3.56-0.03v8.59h10.19c0,0.12,0,0.27,0,0.44
		c0,0.18-0.04,0.54-0.12,1.1c-0.08,0.55-0.2,1.09-0.36,1.6s-0.42,1.08-0.8,1.69c-0.38,0.61-0.82,1.14-1.33,1.57
		c-0.51,0.44-1.21,0.8-2.07,1.1c-0.87,0.3-1.84,0.44-2.9,0.44c-0.95,0-1.82,0.02-2.61,0.06l0.06,13.69
		c-0.04,1.07,0.18,1.89,0.65,2.46c0.47,0.57,1.12,0.91,1.93,1.01c0.81,0.1,1.62,0.12,2.43,0.06c0.81-0.06,1.64-0.15,2.49-0.27
		S711.24,392,711.52,392z"/>
	<path class="st0" d="M721.35,375.11c0-0.12-0.02-0.28-0.06-0.47c-0.04-0.2-0.05-0.58-0.03-1.16c0.02-0.57,0.08-1.12,0.18-1.63
		s0.3-1.1,0.59-1.75c0.3-0.65,0.69-1.21,1.19-1.66c0.49-0.45,1.17-0.84,2.01-1.16c0.85-0.32,1.85-0.47,2.99-0.47
		c0.36,0,0.91,0,1.66,0c1.03-0.04,2.08-0.04,3.17,0c1.09,0.04,2.17,0.09,3.26,0.15c1.09,0.06,2.14,0.23,3.17,0.5
		c1.03,0.28,2,0.61,2.93,1.01c0.93,0.4,1.78,0.96,2.55,1.69c0.77,0.73,1.44,1.57,2.02,2.52c0.57,0.95,1.02,2.11,1.33,3.5
		s0.47,2.94,0.47,4.68v0.42v0.42v0.47v0.42v0.47v0.47v0.53v0.59v0.59v0.71v0.95v0.47c0,1.62-0.18,3.09-0.53,4.42
		c-0.36,1.32-0.8,2.4-1.33,3.23c-0.53,0.83-1.2,1.56-1.99,2.19c-0.79,0.63-1.53,1.1-2.22,1.39c-0.69,0.3-1.49,0.53-2.4,0.71
		c-0.91,0.18-1.61,0.29-2.1,0.33c-0.49,0.04-1.08,0.06-1.75,0.06h-8.18c-0.12,0-0.3-0.01-0.53-0.03c-0.24-0.02-0.68-0.08-1.33-0.18
		c-0.65-0.1-1.27-0.25-1.87-0.45c-0.59-0.2-1.25-0.52-1.99-0.98c-0.73-0.45-1.35-0.99-1.87-1.6c-0.51-0.61-0.95-1.41-1.3-2.4
		c-0.36-0.99-0.53-2.09-0.53-3.32c0-2.17,0.28-4,0.83-5.48c0.55-1.48,1.39-2.63,2.52-3.44c1.13-0.81,2.38-1.37,3.76-1.69
		c1.38-0.32,3.06-0.47,5.04-0.47c3.44,0,5.78-0.23,7.02-0.68c1.25-0.45,1.87-1.16,1.87-2.1c0-1.34-1.29-2.25-3.88-2.73
		c-2.59-0.47-5.33-0.57-8.24-0.3C724.88,374.14,722.74,374.55,721.35,375.11z M740.14,384.06c-0.16,0.2-0.39,0.44-0.68,0.71
		c-0.3,0.28-0.96,0.64-1.99,1.1c-1.03,0.45-2.09,0.68-3.2,0.68c-1.94,0-3.51,0.24-4.71,0.71c-1.21,0.47-1.81,1.15-1.81,2.01
		c0,1.03,0.43,1.8,1.3,2.31c0.87,0.51,2.61,0.77,5.22,0.77c1.07,0,1.89-0.01,2.46-0.03c0.57-0.02,1.11-0.17,1.6-0.44
		c0.49-0.28,0.84-0.53,1.04-0.77c0.2-0.24,0.36-0.74,0.5-1.51c0.14-0.77,0.22-1.51,0.24-2.22
		C740.13,386.66,740.14,385.56,740.14,384.06z"/>
	<path class="st0" d="M766.27,394.19c0.08,2.37-0.66,3.92-2.22,4.65c-1.56,0.73-3.78,1.02-6.67,0.86v-46.23
		c0.71,0.51,1.65,0.82,2.81,0.92c1.17,0.1,2.15,0.15,2.96,0.15s1.53,0.42,2.16,1.27c0.63,0.85,0.95,2.24,0.95,4.18V394.19z"/>
</g>
<g>
	<path class="st0" d="M336.62,230.15h8.95c0,0,7.95-0.61,7.95,6.12c0,7.16,0,14.16,0,14.16h-16.9l0.26,94.9h-17.5
		c0,0-9.76,1.15-9.76-13.68c0-17.24,0-130.74,0-130.74s-3.01-28.75,27.15-28.75l25.66,0.1l0.01,6.42
		c0.01,7.36-5.92,13.36-13.29,13.42h0c0,0-12.38-0.48-12.38,9.28C336.76,204.59,336.62,230.15,336.62,230.15z"/>
	<path class="st0" d="M367.14,344.93v-76.59c0-2.59,0.86-4.87,2.58-6.84c1.72-1.97,4.01-2.96,6.88-2.96h12.07v76.59
		c0,2.59-0.94,4.87-2.83,6.84s-4.07,2.96-6.54,2.96H367.14z M373.64,229.25h15.54c0.06,0,0.08,0.03,0.08,0.08v15.79
		c0,2.25-1.15,3.83-3.46,4.73c-0.56,0.11-1.1,0.17-1.6,0.17h-15.87c-0.06,0-0.08-0.03-0.08-0.08v-15.37c0-2.59,1.18-4.28,3.55-5.07
		C372.29,229.33,372.91,229.25,373.64,229.25z"/>
	<path class="st0" d="M472.94,333.95c0,3.15-0.91,5.63-2.71,7.43c-2.37,2.42-5.06,3.63-8.05,3.63h-11.53v-66.88
		c0-5.46-3.84-8.19-11.53-8.19c-7.68,0-11.53,2.73-11.53,8.19v55.81c0,3.15-0.91,5.63-2.71,7.43c-1.75,2.42-4.12,3.63-7.12,3.63
		H405.3v-65.95c0-14.02,11.27-21.03,33.82-21.03c22.55,0,33.82,7.01,33.82,21.03V333.95z"/>
</g>
<g>
	<path class="st0" d="M716.29,333.95c0,3.15-0.91,5.63-2.71,7.43c-2.37,2.42-5.06,3.63-8.05,3.63H694v-66.88
		c0-5.46-3.84-8.19-11.53-8.19c-7.68,0-11.53,2.73-11.53,8.19v55.81c0,3.15-0.91,5.63-2.71,7.43c-1.75,2.42-4.12,3.63-7.12,3.63
		h-12.46v-65.95c0-14.02,11.27-21.03,33.82-21.03c22.55,0,33.82,7.01,33.82,21.03V333.95z"/>
	<path class="st0" d="M522.67,258.21c12.95,0,21.9,2.51,26.85,7.52c4.67,4.5,7.01,11.74,7.01,21.7v0.34h-13.68
		c-2.2,0-4.19-0.99-6-2.96c-1.18-1.63-1.77-3.35-1.77-5.15v-0.76c0-3.94-1.75-6.5-5.24-7.68c-1.86-0.56-4.02-0.84-6.5-0.84
		c-7.82,0-11.74,2.76-11.74,8.26v45.79c0,3.71,1.75,6.13,5.24,7.25c1.75,0.56,3.69,0.84,5.83,0.84h1.18c5.29,0,8.75-1.43,10.39-4.29
		c0.56-1.12,0.84-2.44,0.84-3.95v-3.78c0-2.92,1.29-5.27,3.88-7.06c1.29-0.73,2.79-1.09,4.48-1.09h13.09v0.42
		c0,10.58-1.8,18.1-5.4,22.55c-0.17,0.34-0.93,1.18-2.28,2.53c-4.95,4.73-13.68,7.09-26.18,7.09c-14.19,0-24.04-3.12-29.55-9.37
		c-2.76-3.26-4.14-7.32-4.14-12.16v-43.66c0-9.79,5.57-16.3,16.72-19.51C510.66,258.89,516.31,258.21,522.67,258.21z"/>
	<path class="st0" d="M632.53,279.83v18.07c0,2.98-0.94,5.38-2.83,7.18c-1.89,1.8-4.04,2.7-6.46,2.7H587.1v17.56
		c0,5.52,3.72,8.28,11.15,8.28c7.82,0,11.74-2.76,11.74-8.28v-1.19c0-5.26,4.27-9.53,9.53-9.53h13.01v9.71
		c0,14.02-11.43,21.03-34.28,21.03c-10.25,0-18.35-1.79-24.32-5.36c-5.97-3.57-8.95-8.8-8.95-15.66v-44.5
		c0-6.81,2.98-12.09,8.95-15.83c5.97-3.74,14.07-5.62,24.32-5.62C621.1,258.38,632.53,265.53,632.53,279.83z M587.19,278.98v15.62
		h23.05v-15.62c0-5.85-3.94-8.78-11.82-8.78C590.93,270.2,587.19,273.13,587.19,278.98z"/>
	<path class="st0" d="M727.01,270.32c-2.59,0-4.94-2.21-4.94-4.94v-6.68l11.17,0.01v-18.5c0-9.99,9.72-10.2,9.72-10.2h12.25
		l-0.04,28.36l0,0.32l6.26,0c2.73,0,4.94,2.21,4.94,4.94v6.68l-11.22,0.06l0,3.53l0.01,11.58c0,0,0.07,37.68,0,39.86
		c-0.26,8,11.11,8.65,11.11,8.65L766.15,345c-8.21-0.48-19.37-2.68-19.37-2.68c-14.01-2.81-13.66-16.17-13.66-16.17v-41.33
		l0.13-14.46"/>
</g>
<g>
	<g>
		<path class="st0" d="M181.19,214.46l-36.28,37.08c-17.9,18.3-17.9,47.54,0,65.84l36.28,37.08l0,50.42
			c0.04,1.74-0.6,3.49-1.93,4.81c-2.57,2.56-6.72,2.55-9.27-0.02l-57.9-57.64c-37.43-37.27-37.43-97.87,0-135.14l57.79-57.54
			c1.19-1.26,2.89-2.05,4.76-2.05c3.62,0,6.56,2.94,6.56,6.56V214.46z"/>
		<path class="st0" d="M190.89,354.45l36.28-37.08c17.9-18.3,17.9-47.54,0-65.84l-36.28-37.08l0-50.42
			c-0.04-1.74,0.6-3.49,1.93-4.81c2.57-2.56,6.72-2.55,9.27,0.02l57.9,57.64c37.43,37.27,37.43,97.87,0,135.14l-57.79,57.54
			c-1.19,1.26-2.89,2.05-4.76,2.05c-3.62,0-6.56-2.94-6.56-6.56V354.45z"/>
	</g>
	<path class="st0" d="M155.87,286.32c-7.82,7.82-7.82,20.49,0,28.31c7.82,7.82,20.49,7.82,28.31,0l32.03-32.03
		c7.82-7.82,7.82-20.49,0-28.31c-7.82-7.82-20.49-7.82-28.31,0L155.87,286.32z"/>
</g>
</svg>
