<?xml version="1.0" encoding="UTF-8" standalone="no"?>
<!-- Generator: Adobe Illustrator 23.0.1, SVG Export Plug-In . SVG Version: 6.00 Build 0)  -->

<svg
   xmlns:dc="http://purl.org/dc/elements/1.1/"
   xmlns:cc="http://creativecommons.org/ns#"
   xmlns:rdf="http://www.w3.org/1999/02/22-rdf-syntax-ns#"
   xmlns:svg="http://www.w3.org/2000/svg"
   xmlns="http://www.w3.org/2000/svg"
   xmlns:sodipodi="http://sodipodi.sourceforge.net/DTD/sodipodi-0.dtd"
   xmlns:inkscape="http://www.inkscape.org/namespaces/inkscape"
   version="1.1"
   id="Layer_1"
   x="0px"
   y="0px"
   viewBox="0 0 682.35247 255.5"
   xml:space="preserve"
   sodipodi:docname="fincent-light.svg"
   width="682.35248"
   height="255.5"
   inkscape:version="0.92.4 (unknown)"><metadata
   id="metadata53"><rdf:RDF><cc:Work
       rdf:about=""><dc:format>image/svg+xml</dc:format><dc:type
         rdf:resource="http://purl.org/dc/dcmitype/StillImage" /></cc:Work></rdf:RDF></metadata><defs
   id="defs51" /><sodipodi:namedview
   pagecolor="#ffffff"
   bordercolor="#666666"
   borderopacity="1"
   objecttolerance="10"
   gridtolerance="10"
   guidetolerance="10"
   inkscape:pageopacity="0"
   inkscape:pageshadow="2"
   inkscape:window-width="1910"
   inkscape:window-height="1002"
   id="namedview49"
   showgrid="false"
   inkscape:zoom="0.5104909"
   inkscape:cx="-140.16772"
   inkscape:cy="460.11248"
   inkscape:window-x="0"
   inkscape:window-y="36"
   inkscape:window-maximized="0"
   inkscape:current-layer="Layer_1" />
<style
   type="text/css"
   id="style2">
	.st0{fill:#161341;}
	.st1{fill:#FFF200;}
	.st2{fill:#F47522;}
	.st3{fill:#F7F7F7;}
	.st4{opacity:0.2;fill:#504D50;}
	.st5{opacity:0.4;fill:#504D50;}
	.st6{opacity:0.6;fill:#504D50;}
	.st7{opacity:0.8;fill:#504D50;}
	.st8{fill:#4A4F54;}
	.st9{opacity:0.2;fill:#F37021;}
	.st10{opacity:0.4;fill:#F37021;}
	.st11{opacity:0.6;fill:#F37021;}
	.st12{opacity:0.8;fill:#F37021;}
	.st13{fill:#F37021;}
	.st14{opacity:0.2;fill:#161341;}
	.st15{opacity:0.4;fill:#161341;}
	.st16{opacity:0.6;fill:#161341;}
	.st17{opacity:0.8;fill:#161341;}
	.st18{fill:#1F1646;}
	.st19{fill:#CCC9CA;}
	.st20{fill:#A7A2A3;}
	.st21{fill:#938D8F;}
	.st22{fill:#868183;}
	.st23{fill:#6F6A6C;}
	.st24{fill:#6A6567;}
	.st25{fill:#5A5658;}
	.st26{fill:#FEDEC7;}
	.st27{fill:#FCC198;}
	.st28{fill:#FAB07F;}
	.st29{fill:#F9A56F;}
	.st30{fill:#F78F4F;}
	.st31{fill:#F68A46;}
	.st32{fill:#F47A2E;}
	.st33{fill:#B8B3C2;}
	.st34{fill:#857E97;}
	.st35{fill:#6B6481;}
	.st36{fill:#5C5574;}
	.st37{fill:#3F3A5D;}
	.st38{fill:#383458;}
	.st39{fill:#24204A;}
</style>
<g
   id="g18"
   transform="translate(-84.0175,-154.56)">
	<path
   class="st3"
   d="m 592.04,365.2 c 0,0.04 0,0.12 0,0.24 0.51,4.58 -1.05,6.88 -4.68,6.88 -0.43,0 -1.16,-0.01 -2.16,-0.03 -1.01,-0.02 -1.76,-0.03 -2.25,-0.03 -0.49,0 -1.18,0.05 -2.04,0.15 -0.87,0.1 -1.54,0.25 -2.02,0.44 -0.47,0.2 -1.01,0.5 -1.6,0.92 -0.59,0.41 -1.05,0.92 -1.36,1.51 -0.32,0.59 -0.58,1.36 -0.8,2.31 -0.22,0.95 -0.33,2.01 -0.33,3.2 0,1.15 0.1,2.15 0.3,3.02 0.2,0.87 0.44,1.6 0.74,2.19 0.3,0.59 0.74,1.1 1.33,1.51 0.59,0.41 1.18,0.74 1.78,0.98 0.6,0.24 1.39,0.42 2.4,0.53 1.01,0.12 1.94,0.19 2.79,0.21 0.85,0.02 1.96,0.03 3.35,0.03 0.55,0 1.04,0.07 1.45,0.21 0.41,0.14 0.77,0.32 1.07,0.53 0.3,0.22 0.55,0.5 0.77,0.83 0.22,0.34 0.38,0.67 0.5,1.01 0.12,0.34 0.21,0.7 0.27,1.1 0.06,0.4 0.09,0.76 0.09,1.1 0,0.34 -0.01,0.68 -0.03,1.04 -0.02,0.36 -0.04,0.65 -0.06,0.89 -0.02,0.24 -0.07,0.57 -0.15,1.01 -1.62,0.2 -3.07,0.35 -4.36,0.44 -1.28,0.1 -2.88,0.12 -4.77,0.06 -1.9,-0.06 -3.56,-0.26 -4.98,-0.59 -1.42,-0.33 -2.9,-0.89 -4.45,-1.66 -1.54,-0.77 -2.81,-1.76 -3.82,-2.96 -1.01,-1.2 -1.84,-2.79 -2.49,-4.74 -0.65,-1.96 -0.98,-4.2 -0.98,-6.73 0,-13.24 8.1,-18.55 24.3,-15.94 0.55,0.06 1.28,0.18 2.19,0.34 z"
   id="path4"
   inkscape:connector-curvature="0"
   style="fill:#f7f7f7" />
	<path
   class="st3"
   d="m 599.93,372.37 c 0,-0.12 -0.02,-0.28 -0.06,-0.47 -0.04,-0.2 -0.05,-0.58 -0.03,-1.16 0.02,-0.57 0.08,-1.12 0.18,-1.63 0.1,-0.51 0.3,-1.1 0.59,-1.75 0.3,-0.65 0.69,-1.21 1.19,-1.66 0.49,-0.45 1.17,-0.84 2.01,-1.16 0.85,-0.32 1.85,-0.47 2.99,-0.47 0.36,0 0.91,0 1.66,0 1.03,-0.04 2.08,-0.04 3.17,0 1.09,0.04 2.17,0.09 3.26,0.15 1.09,0.06 2.14,0.23 3.17,0.5 1.03,0.28 2,0.61 2.93,1.01 0.93,0.4 1.78,0.96 2.55,1.69 0.77,0.73 1.44,1.57 2.02,2.52 0.57,0.95 1.02,2.11 1.33,3.5 0.31,1.39 0.47,2.94 0.47,4.68 v 0.42 0.42 0.47 0.42 0.47 0.47 0.53 0.59 0.59 0.71 0.95 0.47 c 0,1.62 -0.18,3.09 -0.53,4.42 -0.36,1.32 -0.8,2.4 -1.33,3.23 -0.53,0.83 -1.2,1.56 -1.99,2.19 -0.79,0.63 -1.53,1.1 -2.22,1.39 -0.69,0.3 -1.49,0.53 -2.4,0.71 -0.91,0.18 -1.61,0.29 -2.1,0.33 -0.49,0.04 -1.08,0.06 -1.75,0.06 h -8.18 c -0.12,0 -0.3,-0.01 -0.53,-0.03 -0.24,-0.02 -0.68,-0.08 -1.33,-0.18 -0.65,-0.1 -1.27,-0.25 -1.87,-0.45 -0.59,-0.2 -1.25,-0.52 -1.99,-0.98 -0.73,-0.45 -1.35,-0.99 -1.87,-1.6 -0.51,-0.61 -0.95,-1.41 -1.3,-2.4 -0.36,-0.99 -0.53,-2.09 -0.53,-3.32 0,-2.17 0.28,-4 0.83,-5.48 0.55,-1.48 1.39,-2.63 2.52,-3.44 1.13,-0.81 2.38,-1.37 3.76,-1.69 1.38,-0.32 3.06,-0.47 5.04,-0.47 3.44,0 5.78,-0.23 7.02,-0.68 1.25,-0.45 1.87,-1.16 1.87,-2.1 0,-1.34 -1.29,-2.25 -3.88,-2.73 -2.59,-0.47 -5.33,-0.57 -8.24,-0.3 -2.91,0.29 -5.05,0.7 -6.43,1.26 z m 18.78,8.95 c -0.16,0.2 -0.39,0.44 -0.68,0.71 -0.3,0.28 -0.96,0.64 -1.99,1.1 -1.03,0.45 -2.09,0.68 -3.2,0.68 -1.94,0 -3.51,0.24 -4.71,0.71 -1.21,0.47 -1.81,1.15 -1.81,2.01 0,1.03 0.43,1.8 1.3,2.31 0.87,0.51 2.61,0.77 5.22,0.77 1.07,0 1.89,-0.01 2.46,-0.03 0.57,-0.02 1.11,-0.17 1.6,-0.44 0.49,-0.28 0.84,-0.53 1.04,-0.77 0.2,-0.24 0.36,-0.74 0.5,-1.51 0.14,-0.77 0.22,-1.51 0.24,-2.22 0.02,-0.72 0.03,-1.82 0.03,-3.32 z"
   id="path6"
   inkscape:connector-curvature="0"
   style="fill:#f7f7f7" />
	<path
   class="st3"
   d="m 644.85,410.06 c -0.71,-0.51 -1.65,-0.82 -2.82,-0.92 -1.17,-0.1 -2.15,-0.15 -2.96,-0.15 -0.81,0 -1.53,-0.42 -2.16,-1.27 -0.63,-0.85 -0.95,-2.24 -0.95,-4.18 v -34.96 c 0.04,-0.04 0.23,-0.27 0.56,-0.68 0.33,-0.41 0.64,-0.74 0.92,-0.98 0.28,-0.24 0.79,-0.57 1.54,-1.01 0.75,-0.43 1.58,-0.77 2.49,-1.01 0.91,-0.24 2.13,-0.45 3.67,-0.65 1.54,-0.2 3.28,-0.3 5.22,-0.3 6.08,0 10.45,1.31 13.1,3.94 2.65,2.63 3.97,7 3.97,13.13 0,2.96 -0.47,5.53 -1.42,7.7 -0.95,2.17 -2.22,3.84 -3.82,5.01 -1.6,1.17 -3.3,2.01 -5.1,2.55 -1.8,0.54 -3.7,0.8 -5.72,0.8 -2.73,0 -4.9,-0.28 -6.52,-0.83 z m 0,-29.63 v 8.42 c 0.63,0.2 1.31,0.36 2.04,0.47 0.73,0.12 1.65,0.22 2.76,0.3 1.11,0.08 2.13,-0.04 3.08,-0.36 0.95,-0.32 1.86,-0.77 2.73,-1.36 0.87,-0.59 1.56,-1.54 2.07,-2.84 0.51,-1.3 0.77,-2.86 0.77,-4.68 0,-1.5 -0.25,-2.8 -0.74,-3.91 -0.5,-1.11 -1.07,-1.96 -1.72,-2.55 -0.65,-0.59 -1.51,-1.04 -2.58,-1.33 -1.07,-0.3 -1.96,-0.47 -2.67,-0.53 -0.71,-0.06 -1.6,-0.03 -2.67,0.09 -1.07,0.12 -1.72,0.2 -1.96,0.24 -0.24,0.04 -0.59,0.12 -1.07,0.24 h -0.06 c -0.02,-0.03 -0.02,2.58 0.02,7.8 z"
   id="path8"
   inkscape:connector-curvature="0"
   style="fill:#f7f7f7" />
	<path
   class="st3"
   d="m 676.85,360.69 c -0.91,-0.95 -1.36,-2.07 -1.36,-3.38 0,-1.31 0.46,-2.42 1.39,-3.35 0.93,-0.93 2.04,-1.39 3.35,-1.39 1.31,0 2.42,0.46 3.35,1.39 0.93,0.93 1.39,2.04 1.39,3.35 0,1.31 -0.46,2.42 -1.39,3.35 -0.93,0.93 -2.04,1.39 -3.35,1.39 -1.31,0 -2.43,-0.45 -3.38,-1.36 z m 7.76,9.31 c 0,-1.94 -0.32,-3.33 -0.95,-4.18 -0.63,-0.85 -1.35,-1.27 -2.16,-1.27 -0.81,0 -1.8,-0.05 -2.96,-0.15 -1.17,-0.1 -2.1,-0.4 -2.82,-0.92 v 33.48 c 2.88,0.16 5.11,-0.13 6.67,-0.86 1.56,-0.73 2.3,-2.28 2.22,-4.65 z"
   id="path10"
   inkscape:connector-curvature="0"
   style="fill:#f7f7f7" />
	<path
   class="st3"
   d="m 711.52,389.26 c 0.55,1.74 0.63,3.34 0.24,4.8 -0.4,1.46 -1.07,2.43 -2.02,2.9 -2.05,0.63 -4.06,0.82 -6.01,0.56 -1.96,-0.26 -3.7,-0.8 -5.21,-1.63 -1.52,-0.83 -2.76,-2.04 -3.7,-3.62 -0.94,-1.58 -1.42,-3.38 -1.42,-5.39 V 361.4 c -0.04,-1.22 0.16,-2.24 0.59,-3.05 0.43,-0.81 1.09,-1.39 1.96,-1.75 0.87,-0.36 1.8,-0.58 2.79,-0.68 0.99,-0.1 2.17,-0.11 3.56,-0.03 v 8.59 h 10.19 c 0,0.12 0,0.27 0,0.44 0,0.18 -0.04,0.54 -0.12,1.1 -0.08,0.55 -0.2,1.09 -0.36,1.6 -0.16,0.51 -0.42,1.08 -0.8,1.69 -0.38,0.61 -0.82,1.14 -1.33,1.57 -0.51,0.44 -1.21,0.8 -2.07,1.1 -0.87,0.3 -1.84,0.44 -2.9,0.44 -0.95,0 -1.82,0.02 -2.61,0.06 l 0.06,13.69 c -0.04,1.07 0.18,1.89 0.65,2.46 0.47,0.57 1.12,0.91 1.93,1.01 0.81,0.1 1.62,0.12 2.43,0.06 0.81,-0.06 1.64,-0.15 2.49,-0.27 0.85,-0.12 1.38,-0.17 1.66,-0.17 z"
   id="path12"
   inkscape:connector-curvature="0"
   style="fill:#f7f7f7" />
	<path
   class="st3"
   d="m 721.35,372.37 c 0,-0.12 -0.02,-0.28 -0.06,-0.47 -0.04,-0.2 -0.05,-0.58 -0.03,-1.16 0.02,-0.57 0.08,-1.12 0.18,-1.63 0.1,-0.51 0.3,-1.1 0.59,-1.75 0.3,-0.65 0.69,-1.21 1.19,-1.66 0.49,-0.45 1.17,-0.84 2.01,-1.16 0.85,-0.32 1.85,-0.47 2.99,-0.47 0.36,0 0.91,0 1.66,0 1.03,-0.04 2.08,-0.04 3.17,0 1.09,0.04 2.17,0.09 3.26,0.15 1.09,0.06 2.14,0.23 3.17,0.5 1.03,0.28 2,0.61 2.93,1.01 0.93,0.4 1.78,0.96 2.55,1.69 0.77,0.73 1.44,1.57 2.02,2.52 0.57,0.95 1.02,2.11 1.33,3.5 0.31,1.39 0.47,2.94 0.47,4.68 v 0.42 0.42 0.47 0.42 0.47 0.47 0.53 0.59 0.59 0.71 0.95 0.47 c 0,1.62 -0.18,3.09 -0.53,4.42 -0.36,1.32 -0.8,2.4 -1.33,3.23 -0.53,0.83 -1.2,1.56 -1.99,2.19 -0.79,0.63 -1.53,1.1 -2.22,1.39 -0.69,0.3 -1.49,0.53 -2.4,0.71 -0.91,0.18 -1.61,0.29 -2.1,0.33 -0.49,0.04 -1.08,0.06 -1.75,0.06 h -8.18 c -0.12,0 -0.3,-0.01 -0.53,-0.03 -0.24,-0.02 -0.68,-0.08 -1.33,-0.18 -0.65,-0.1 -1.27,-0.25 -1.87,-0.45 -0.59,-0.2 -1.25,-0.52 -1.99,-0.98 -0.73,-0.45 -1.35,-0.99 -1.87,-1.6 -0.51,-0.61 -0.95,-1.41 -1.3,-2.4 -0.36,-0.99 -0.53,-2.09 -0.53,-3.32 0,-2.17 0.28,-4 0.83,-5.48 0.55,-1.48 1.39,-2.63 2.52,-3.44 1.13,-0.81 2.38,-1.37 3.76,-1.69 1.38,-0.32 3.06,-0.47 5.04,-0.47 3.44,0 5.78,-0.23 7.02,-0.68 1.25,-0.45 1.87,-1.16 1.87,-2.1 0,-1.34 -1.29,-2.25 -3.88,-2.73 -2.59,-0.47 -5.33,-0.57 -8.24,-0.3 -2.9,0.29 -5.04,0.7 -6.43,1.26 z m 18.79,8.95 c -0.16,0.2 -0.39,0.44 -0.68,0.71 -0.3,0.28 -0.96,0.64 -1.99,1.1 -1.03,0.45 -2.09,0.68 -3.2,0.68 -1.94,0 -3.51,0.24 -4.71,0.71 -1.21,0.47 -1.81,1.15 -1.81,2.01 0,1.03 0.43,1.8 1.3,2.31 0.87,0.51 2.61,0.77 5.22,0.77 1.07,0 1.89,-0.01 2.46,-0.03 0.57,-0.02 1.11,-0.17 1.6,-0.44 0.49,-0.28 0.84,-0.53 1.04,-0.77 0.2,-0.24 0.36,-0.74 0.5,-1.51 0.14,-0.77 0.22,-1.51 0.24,-2.22 0.02,-0.72 0.03,-1.82 0.03,-3.32 z"
   id="path14"
   inkscape:connector-curvature="0"
   style="fill:#f7f7f7" />
	<path
   class="st3"
   d="m 766.27,391.45 c 0.08,2.37 -0.66,3.92 -2.22,4.65 -1.56,0.73 -3.78,1.02 -6.67,0.86 v -46.23 c 0.71,0.51 1.65,0.82 2.81,0.92 1.17,0.1 2.15,0.15 2.96,0.15 0.81,0 1.53,0.42 2.16,1.27 0.63,0.85 0.95,2.24 0.95,4.18 v 34.2 z"
   id="path16"
   inkscape:connector-curvature="0"
   style="fill:#f7f7f7" />
</g>
<g
   id="g26"
   transform="translate(-84.0175,-154.56)">
	<path
   class="st3"
   d="m 336.62,227.41 h 8.95 c 0,0 7.95,-0.61 7.95,6.12 0,7.16 0,14.16 0,14.16 h -16.9 l 0.26,94.9 h -17.5 c 0,0 -9.76,1.15 -9.76,-13.68 0,-17.24 0,-130.74 0,-130.74 0,0 -3.01,-28.75 27.15,-28.75 l 25.66,0.1 0.01,6.42 c 0.01,7.36 -5.92,13.36 -13.29,13.42 v 0 c 0,0 -12.38,-0.48 -12.38,9.28 -0.01,3.21 -0.15,28.77 -0.15,28.77 z"
   id="path20"
   inkscape:connector-curvature="0"
   style="fill:#f7f7f7" />
	<path
   class="st3"
   d="M 367.14,342.19 V 265.6 c 0,-2.59 0.86,-4.87 2.58,-6.84 1.72,-1.97 4.01,-2.96 6.88,-2.96 h 12.07 v 76.59 c 0,2.59 -0.94,4.87 -2.83,6.84 -1.89,1.97 -4.07,2.96 -6.54,2.96 z m 6.5,-115.68 h 15.54 c 0.06,0 0.08,0.03 0.08,0.08 v 15.79 c 0,2.25 -1.15,3.83 -3.46,4.73 -0.56,0.11 -1.1,0.17 -1.6,0.17 h -15.87 c -0.06,0 -0.08,-0.03 -0.08,-0.08 v -15.37 c 0,-2.59 1.18,-4.28 3.55,-5.07 0.49,-0.17 1.11,-0.25 1.84,-0.25 z"
   id="path22"
   inkscape:connector-curvature="0"
   style="fill:#f7f7f7" />
	<path
   class="st3"
   d="m 472.94,331.21 c 0,3.15 -0.91,5.63 -2.71,7.43 -2.37,2.42 -5.06,3.63 -8.05,3.63 H 450.65 V 275.4 c 0,-5.46 -3.84,-8.19 -11.53,-8.19 -7.68,0 -11.53,2.73 -11.53,8.19 v 55.81 c 0,3.15 -0.91,5.63 -2.71,7.43 -1.75,2.42 -4.12,3.63 -7.12,3.63 H 405.3 v -65.95 c 0,-14.02 11.27,-21.03 33.82,-21.03 22.55,0 33.82,7.01 33.82,21.03 z"
   id="path24"
   inkscape:connector-curvature="0"
   style="fill:#f7f7f7" />
</g>
<g
   id="g36"
   transform="translate(-84.0175,-154.56)">
	<path
   class="st3"
   d="m 716.29,331.21 c 0,3.15 -0.91,5.63 -2.71,7.43 -2.37,2.42 -5.06,3.63 -8.05,3.63 H 694 V 275.4 c 0,-5.46 -3.84,-8.19 -11.53,-8.19 -7.68,0 -11.53,2.73 -11.53,8.19 v 55.81 c 0,3.15 -0.91,5.63 -2.71,7.43 -1.75,2.42 -4.12,3.63 -7.12,3.63 h -12.46 v -65.95 c 0,-14.02 11.27,-21.03 33.82,-21.03 22.55,0 33.82,7.01 33.82,21.03 z"
   id="path28"
   inkscape:connector-curvature="0"
   style="fill:#f7f7f7" />
	<path
   class="st3"
   d="m 522.67,255.47 c 12.95,0 21.9,2.51 26.85,7.52 4.67,4.5 7.01,11.74 7.01,21.7 v 0.34 h -13.68 c -2.2,0 -4.19,-0.99 -6,-2.96 -1.18,-1.63 -1.77,-3.35 -1.77,-5.15 v -0.76 c 0,-3.94 -1.75,-6.5 -5.24,-7.68 -1.86,-0.56 -4.02,-0.84 -6.5,-0.84 -7.82,0 -11.74,2.76 -11.74,8.26 v 45.79 c 0,3.71 1.75,6.13 5.24,7.25 1.75,0.56 3.69,0.84 5.83,0.84 h 1.18 c 5.29,0 8.75,-1.43 10.39,-4.29 0.56,-1.12 0.84,-2.44 0.84,-3.95 v -3.78 c 0,-2.92 1.29,-5.27 3.88,-7.06 1.29,-0.73 2.79,-1.09 4.48,-1.09 h 13.09 v 0.42 c 0,10.58 -1.8,18.1 -5.4,22.55 -0.17,0.34 -0.93,1.18 -2.28,2.53 -4.95,4.73 -13.68,7.09 -26.18,7.09 -14.19,0 -24.04,-3.12 -29.55,-9.37 -2.76,-3.26 -4.14,-7.32 -4.14,-12.16 V 277 c 0,-9.79 5.57,-16.3 16.72,-19.51 4.96,-1.34 10.61,-2.02 16.97,-2.02 z"
   id="path30"
   inkscape:connector-curvature="0"
   style="fill:#f7f7f7" />
	<path
   class="st3"
   d="m 632.53,277.09 v 18.07 c 0,2.98 -0.94,5.38 -2.83,7.18 -1.89,1.8 -4.04,2.7 -6.46,2.7 H 587.1 v 17.56 c 0,5.52 3.72,8.28 11.15,8.28 7.82,0 11.74,-2.76 11.74,-8.28 v -1.19 c 0,-5.26 4.27,-9.53 9.53,-9.53 h 13.01 v 9.71 c 0,14.02 -11.43,21.03 -34.28,21.03 -10.25,0 -18.35,-1.79 -24.32,-5.36 -5.97,-3.57 -8.95,-8.8 -8.95,-15.66 v -44.5 c 0,-6.81 2.98,-12.09 8.95,-15.83 5.97,-3.74 14.07,-5.62 24.32,-5.62 22.85,-0.01 34.28,7.14 34.28,21.44 z m -45.34,-0.85 v 15.62 h 23.05 v -15.62 c 0,-5.85 -3.94,-8.78 -11.82,-8.78 -7.49,0 -11.23,2.93 -11.23,8.78 z"
   id="path32"
   inkscape:connector-curvature="0"
   style="fill:#f7f7f7" />
	<path
   class="st3"
   d="m 727.01,267.58 c -2.59,0 -4.94,-2.21 -4.94,-4.94 v -6.68 l 11.17,0.01 v -18.5 c 0,-9.99 9.72,-10.2 9.72,-10.2 h 12.25 l -0.04,28.36 v 0.32 h 6.26 c 2.73,0 4.94,2.21 4.94,4.94 v 6.68 l -11.22,0.06 v 3.53 l 0.01,11.58 c 0,0 0.07,37.68 0,39.86 -0.26,8 11.11,8.65 11.11,8.65 l -0.13,11.02 c -8.21,-0.48 -19.37,-2.68 -19.37,-2.68 -14.01,-2.81 -13.66,-16.17 -13.66,-16.17 v -41.33 l 0.13,-14.46"
   id="path34"
   inkscape:connector-curvature="0"
   style="fill:#f7f7f7" />
</g>
<g
   id="g46"
   transform="translate(-84.0175,-154.56)">
	<g
   id="g42">
		<path
   class="st3"
   d="m 181.19,211.72 -36.28,37.08 c -17.9,18.3 -17.9,47.54 0,65.84 l 36.28,37.08 v 50.42 c 0.04,1.74 -0.6,3.49 -1.93,4.81 -2.57,2.56 -6.72,2.55 -9.27,-0.02 l -57.9,-57.64 c -37.43,-37.27 -37.43,-97.87 0,-135.14 l 57.79,-57.54 c 1.19,-1.26 2.89,-2.05 4.76,-2.05 3.62,0 6.56,2.94 6.56,6.56 v 50.6 z"
   id="path38"
   inkscape:connector-curvature="0"
   style="fill:#f7f7f7" />
		<path
   class="st3"
   d="m 190.89,351.71 36.28,-37.08 c 17.9,-18.3 17.9,-47.54 0,-65.84 l -36.28,-37.08 v -50.42 c -0.04,-1.74 0.6,-3.49 1.93,-4.81 2.57,-2.56 6.72,-2.55 9.27,0.02 l 57.9,57.64 c 37.43,37.27 37.43,97.87 0,135.14 l -57.79,57.54 c -1.19,1.26 -2.89,2.05 -4.76,2.05 -3.62,0 -6.56,-2.94 -6.56,-6.56 v -50.6 z"
   id="path40"
   inkscape:connector-curvature="0"
   style="fill:#f7f7f7" />
	</g>
	<path
   class="st3"
   d="m 155.87,283.58 c -7.82,7.82 -7.82,20.49 0,28.31 7.82,7.82 20.49,7.82 28.31,0 l 32.03,-32.03 c 7.82,-7.82 7.82,-20.49 0,-28.31 -7.82,-7.82 -20.49,-7.82 -28.31,0 z"
   id="path44"
   inkscape:connector-curvature="0"
   style="fill:#f7f7f7" />
</g>
</svg>