<?xml version="1.0" encoding="UTF-8" standalone="no"?>
<!-- Generator: Adobe Illustrator 23.0.1, SVG Export Plug-In . SVG Version: 6.00 Build 0)  -->

<svg
   xmlns:dc="http://purl.org/dc/elements/1.1/"
   xmlns:cc="http://creativecommons.org/ns#"
   xmlns:rdf="http://www.w3.org/1999/02/22-rdf-syntax-ns#"
   xmlns:svg="http://www.w3.org/2000/svg"
   xmlns="http://www.w3.org/2000/svg"
   xmlns:sodipodi="http://sodipodi.sourceforge.net/DTD/sodipodi-0.dtd"
   xmlns:inkscape="http://www.inkscape.org/namespaces/inkscape"
   version="1.1"
   id="Layer_1"
   x="0px"
   y="0px"
   viewBox="0 0 682.35247 256.62571"
   xml:space="preserve"
   sodipodi:docname="fincent-orange-white.svg"
   width="682.35248"
   height="256.6257"
   inkscape:version="0.92.4 (unknown)"><metadata
   id="metadata39"><rdf:RDF><cc:Work
       rdf:about=""><dc:format>image/svg+xml</dc:format><dc:type
         rdf:resource="http://purl.org/dc/dcmitype/StillImage" /></cc:Work></rdf:RDF></metadata><defs
   id="defs37" /><sodipodi:namedview
   pagecolor="#ffffff"
   bordercolor="#666666"
   borderopacity="1"
   objecttolerance="10"
   gridtolerance="10"
   guidetolerance="10"
   inkscape:pageopacity="0"
   inkscape:pageshadow="2"
   inkscape:window-width="1910"
   inkscape:window-height="1002"
   id="namedview35"
   showgrid="false"
   inkscape:zoom="1.0279462"
   inkscape:cx="-134.97223"
   inkscape:cy="108.54104"
   inkscape:window-x="0"
   inkscape:window-y="36"
   inkscape:window-maximized="0"
   inkscape:current-layer="Layer_1" />
<style
   type="text/css"
   id="style2">
	.st0{fill:#161341;}
	.st1{fill:#FFF200;}
	.st2{fill:#4E4F51;}
	.st3{font-family:'ATOSalutino';}
	.st4{font-size:59.2633px;}
	.st5{fill:#F1F2F2;}
	.st6{fill:#F47522;}
	.st7{fill:#F7F7F7;}
	.st8{opacity:0.2;fill:#504D50;}
	.st9{opacity:0.4;fill:#504D50;}
	.st10{opacity:0.6;fill:#504D50;}
	.st11{opacity:0.8;fill:#504D50;}
	.st12{fill:#4A4F54;}
	.st13{opacity:0.2;fill:#F37021;}
	.st14{opacity:0.4;fill:#F37021;}
	.st15{opacity:0.6;fill:#F37021;}
	.st16{opacity:0.8;fill:#F37021;}
	.st17{fill:#F37021;}
	.st18{opacity:0.2;fill:#161341;}
	.st19{opacity:0.4;fill:#161341;}
	.st20{opacity:0.6;fill:#161341;}
	.st21{opacity:0.8;fill:#161341;}
	.st22{fill:#1F1646;}
	.st23{fill:#CCC9CA;}
	.st24{fill:#A7A2A3;}
	.st25{fill:#938D8F;}
	.st26{fill:#868183;}
	.st27{fill:#6F6A6C;}
	.st28{fill:#6A6567;}
	.st29{fill:#5A5658;}
	.st30{fill:#FEDEC7;}
	.st31{fill:#FCC198;}
	.st32{fill:#FAB07F;}
	.st33{fill:#F9A56F;}
	.st34{fill:#F78F4F;}
	.st35{fill:#F68A46;}
	.st36{fill:#F47A2E;}
	.st37{fill:#B8B3C2;}
	.st38{fill:#857E97;}
	.st39{fill:#6B6481;}
	.st40{fill:#5C5574;}
	.st41{fill:#3F3A5D;}
	.st42{fill:#383458;}
	.st43{fill:#24204A;}
</style>
<g
   id="g32"
   transform="translate(-84.0175,-156.31)">
	<g
   id="g6">
		<text
   transform="translate(562.9453,398.7125)"
   class="st2 st3 st4"
   id="text4"
   style="font-size:59.26330185px;font-family:ATOSalutino;fill:#4e4f51">capital</text>

	</g>
	<g
   id="g14">
		<path
   class="st5"
   d="m 336.62,229.16 h 8.95 c 0,0 7.95,-0.61 7.95,6.12 0,7.16 0,14.16 0,14.16 h -16.9 l 0.26,94.9 h -17.5 c 0,0 -9.76,1.15 -9.76,-13.68 0,-17.24 0,-130.74 0,-130.74 0,0 -3.01,-28.75 27.15,-28.75 l 25.66,0.1 0.01,6.42 c 0.01,7.36 -5.92,13.36 -13.29,13.42 v 0 c 0,0 -12.38,-0.48 -12.38,9.28 -0.01,3.21 -0.15,28.77 -0.15,28.77 z"
   id="path8"
   inkscape:connector-curvature="0"
   style="fill:#f1f2f2" />
		<path
   class="st5"
   d="m 367.14,343.94 v -76.59 c 0,-2.59 0.86,-4.87 2.58,-6.84 1.72,-1.97 4.01,-2.96 6.88,-2.96 h 12.07 v 76.59 c 0,2.59 -0.94,4.87 -2.83,6.84 -1.89,1.97 -4.07,2.96 -6.54,2.96 z m 6.5,-115.68 h 15.54 c 0.06,0 0.08,0.03 0.08,0.08 v 15.79 c 0,2.25 -1.15,3.83 -3.46,4.73 -0.56,0.11 -1.1,0.17 -1.6,0.17 h -15.87 c -0.06,0 -0.08,-0.03 -0.08,-0.08 v -15.37 c 0,-2.59 1.18,-4.28 3.55,-5.07 0.49,-0.17 1.11,-0.25 1.84,-0.25 z"
   id="path10"
   inkscape:connector-curvature="0"
   style="fill:#f1f2f2" />
		<path
   class="st5"
   d="m 472.94,332.96 c 0,3.15 -0.91,5.63 -2.71,7.43 -2.37,2.42 -5.06,3.63 -8.05,3.63 h -11.53 v -66.88 c 0,-5.46 -3.84,-8.19 -11.53,-8.19 -7.68,0 -11.53,2.73 -11.53,8.19 v 55.81 c 0,3.15 -0.91,5.63 -2.71,7.43 -1.75,2.42 -4.12,3.63 -7.12,3.63 H 405.3 v -65.95 c 0,-14.02 11.27,-21.03 33.82,-21.03 22.55,0 33.82,7.01 33.82,21.03 z"
   id="path12"
   inkscape:connector-curvature="0"
   style="fill:#f1f2f2" />
	</g>
	<g
   id="g24">
		<path
   class="st6"
   d="m 716.29,332.96 c 0,3.15 -0.91,5.63 -2.71,7.43 -2.37,2.42 -5.06,3.63 -8.05,3.63 H 694 v -66.88 c 0,-5.46 -3.84,-8.19 -11.53,-8.19 -7.68,0 -11.53,2.73 -11.53,8.19 v 55.81 c 0,3.15 -0.91,5.63 -2.71,7.43 -1.75,2.42 -4.12,3.63 -7.12,3.63 h -12.46 v -65.95 c 0,-14.02 11.27,-21.03 33.82,-21.03 22.55,0 33.82,7.01 33.82,21.03 z"
   id="path16"
   inkscape:connector-curvature="0"
   style="fill:#f47522" />
		<path
   class="st6"
   d="m 522.67,257.22 c 12.95,0 21.9,2.51 26.85,7.52 4.67,4.5 7.01,11.74 7.01,21.7 v 0.34 h -13.68 c -2.2,0 -4.19,-0.99 -6,-2.96 -1.18,-1.63 -1.77,-3.35 -1.77,-5.15 v -0.76 c 0,-3.94 -1.75,-6.5 -5.24,-7.68 -1.86,-0.56 -4.02,-0.84 -6.5,-0.84 -7.82,0 -11.74,2.76 -11.74,8.26 v 45.79 c 0,3.71 1.75,6.13 5.24,7.25 1.75,0.56 3.69,0.84 5.83,0.84 h 1.18 c 5.29,0 8.75,-1.43 10.39,-4.29 0.56,-1.12 0.84,-2.44 0.84,-3.95 v -3.78 c 0,-2.92 1.29,-5.27 3.88,-7.06 1.29,-0.73 2.79,-1.09 4.48,-1.09 h 13.09 v 0.42 c 0,10.58 -1.8,18.1 -5.4,22.55 -0.17,0.34 -0.93,1.18 -2.28,2.53 -4.95,4.73 -13.68,7.09 -26.18,7.09 -14.19,0 -24.04,-3.12 -29.55,-9.37 -2.76,-3.27 -4.14,-7.32 -4.14,-12.16 v -43.66 c 0,-9.79 5.57,-16.3 16.72,-19.51 4.96,-1.35 10.61,-2.03 16.97,-2.03 z"
   id="path18"
   inkscape:connector-curvature="0"
   style="fill:#f47522" />
		<path
   class="st6"
   d="m 632.53,278.84 v 18.07 c 0,2.98 -0.94,5.38 -2.83,7.18 -1.89,1.8 -4.04,2.7 -6.46,2.7 H 587.1 v 17.56 c 0,5.52 3.72,8.28 11.15,8.28 7.82,0 11.74,-2.76 11.74,-8.28 v -1.19 c 0,-5.26 4.27,-9.53 9.53,-9.53 h 13.01 v 9.71 c 0,14.02 -11.43,21.03 -34.28,21.03 -10.25,0 -18.35,-1.79 -24.32,-5.36 -5.97,-3.57 -8.95,-8.8 -8.95,-15.66 v -44.5 c 0,-6.81 2.98,-12.09 8.95,-15.83 5.97,-3.74 14.07,-5.62 24.32,-5.62 22.85,-0.01 34.28,7.14 34.28,21.44 z m -45.34,-0.85 v 15.62 h 23.05 v -15.62 c 0,-5.85 -3.94,-8.78 -11.82,-8.78 -7.49,0 -11.23,2.93 -11.23,8.78 z"
   id="path20"
   inkscape:connector-curvature="0"
   style="fill:#f47522" />
		<path
   class="st6"
   d="m 727.01,269.33 c -2.59,0 -4.94,-2.21 -4.94,-4.94 v -6.68 l 11.17,0.01 v -18.5 c 0,-9.99 9.72,-10.2 9.72,-10.2 h 12.25 l -0.04,28.36 v 0.32 h 6.26 c 2.73,0 4.94,2.21 4.94,4.94 v 6.68 l -11.22,0.06 v 3.53 l 0.01,11.58 c 0,0 0.07,37.68 0,39.86 -0.26,8 11.11,8.65 11.11,8.65 l -0.13,11.02 c -8.21,-0.48 -19.37,-2.68 -19.37,-2.68 -14.01,-2.81 -13.66,-16.17 -13.66,-16.17 v -41.33 l 0.13,-14.46"
   id="path22"
   inkscape:connector-curvature="0"
   style="fill:#f47522" />
	</g>
	<path
   class="st5"
   d="m 181.19,213.47 -36.28,37.08 c -17.9,18.3 -17.9,47.54 0,65.84 l 36.28,37.08 v 50.42 c 0.04,1.74 -0.6,3.49 -1.93,4.81 -2.57,2.56 -6.72,2.55 -9.27,-0.02 l -57.9,-57.64 c -37.43,-37.27 -37.43,-97.87 0,-135.14 l 57.79,-57.54 c 1.19,-1.26 2.89,-2.05 4.76,-2.05 3.62,0 6.56,2.94 6.56,6.56 v 50.6 z"
   id="path26"
   inkscape:connector-curvature="0"
   style="fill:#f1f2f2" />
	<path
   class="st6"
   d="m 190.89,353.46 36.28,-37.08 c 17.9,-18.3 17.9,-47.54 0,-65.84 l -36.28,-37.08 v -50.42 c -0.04,-1.74 0.6,-3.49 1.93,-4.81 2.57,-2.56 6.72,-2.55 9.27,0.02 l 57.9,57.64 c 37.43,37.27 37.43,97.87 0,135.14 l -57.79,57.54 c -1.19,1.26 -2.89,2.05 -4.76,2.05 -3.62,0 -6.56,-2.94 -6.56,-6.56 v -50.6 z"
   id="path28"
   inkscape:connector-curvature="0"
   style="fill:#f47522" />
	<path
   class="st5"
   d="m 155.87,285.33 c -7.82,7.82 -7.82,20.49 0,28.31 7.82,7.82 20.49,7.82 28.31,0 l 32.03,-32.03 c 7.82,-7.82 7.82,-20.49 0,-28.31 -7.82,-7.82 -20.49,-7.82 -28.31,0 z"
   id="path30"
   inkscape:connector-curvature="0"
   style="fill:#f1f2f2" />
</g>
</svg>