<?xml version="1.0" encoding="UTF-8" standalone="no"?>
<svg
   xmlns:dc="http://purl.org/dc/elements/1.1/"
   xmlns:cc="http://creativecommons.org/ns#"
   xmlns:rdf="http://www.w3.org/1999/02/22-rdf-syntax-ns#"
   xmlns:svg="http://www.w3.org/2000/svg"
   xmlns="http://www.w3.org/2000/svg"
   height="256.21097"
   width="681.2475"
   xml:space="preserve"
   viewBox="0 0 681.24749 256.21097"
   y="0px"
   x="0px"
   id="Layer_1"
   version="1.1"><metadata
   id="metadata39"><rdf:RDF><cc:Work
       rdf:about=""><dc:format>image/svg+xml</dc:format><dc:type
         rdf:resource="http://purl.org/dc/dcmitype/StillImage" /><dc:title></dc:title></cc:Work></rdf:RDF></metadata><defs
   id="defs37" />
<style
   id="style2"
   type="text/css">
	.st0{fill:#161341;}
	.st1{fill:#F47522;}
	.st2{fill:#FFF200;}
	.st3{fill:#ED1C24;}
	.st4{fill:#58595B;}
	.st5{fill:#F7941D;}
	.st6{fill:none;stroke:#006838;stroke-miterlimit:10;}
	.st7{fill:#F15A29;}
	.st8{fill:#00AEEF;}
	.st9{fill:#4E4F51;}
	.st10{fill:#EC008C;}
	.st11{fill:#030202;}
	.st12{fill:#010101;}
	.st13{fill:none;stroke:#EC008C;stroke-width:2;stroke-miterlimit:10;}
	.st14{fill:none;stroke:#00AEEF;stroke-width:2;stroke-miterlimit:10;}
	.st15{fill:none;stroke:#00A14B;stroke-width:2;stroke-miterlimit:10;}
	.st16{fill:none;stroke:#000000;stroke-miterlimit:10;}
	.st17{fill:#1B75BC;}
	.st18{fill:#BCBEC0;}
	.st19{font-family:'ATOSalutino';}
	.st20{font-size:59.1678px;}
	.st21{fill:#FFFFFF;}
</style>
<g
   transform="translate(-79.6625,-166.21)"
   id="g6">
	<text
   style="font-size:59.1678009px;font-family:ATOSalutino;fill:#4e4f51"
   id="text4"
   class="st9 st19 st20"
   transform="translate(557.8151,408.2207)">capital</text>

</g>
<path
   style="fill:#161341"
   id="path8"
   d="m 252.1875,72.73 h 8.93 c 0,0 7.94,-0.61 7.94,6.11 0,7.14 0,14.13 0,14.13 h -16.87 l 0.26,94.75 h -17.47 c 0,0 -9.75,1.15 -9.75,-13.66 0,-17.21 0,-130.53 0,-130.53 0,0 -3,-28.7 27.1,-28.7 l 25.62,0.1 0.01,6.41 c 0.01,7.35 -5.92,13.33 -13.27,13.4 v 0 c 0,0 -12.36,-0.48 -12.36,9.27 0,3.21 -0.14,28.72 -0.14,28.72 z"
   class="st0" />
<path
   style="fill:#161341"
   id="path10"
   d="m 282.6575,187.33 v -76.46 c 0,-2.59 0.86,-4.86 2.57,-6.83 1.71,-1.97 4,-2.95 6.87,-2.95 h 12.06 v 76.46 c 0,2.59 -0.94,4.86 -2.82,6.83 -1.88,1.97 -4.06,2.95 -6.53,2.95 z m 6.49,-115.5 h 15.51 c 0.06,0 0.08,0.03 0.08,0.08 v 15.76 c 0,2.25 -1.15,3.82 -3.46,4.72 -0.56,0.11 -1.1,0.17 -1.6,0.17 h -15.84 c -0.06,0 -0.08,-0.03 -0.08,-0.08 V 77.14 c 0,-2.58 1.18,-4.27 3.54,-5.06 0.51,-0.16 1.12,-0.25 1.85,-0.25 z"
   class="st0" />
<path
   style="fill:#161341"
   id="path12"
   d="m 388.2975,176.37 c 0,3.15 -0.9,5.62 -2.71,7.42 -2.37,2.42 -5.05,3.63 -8.04,3.63 h -11.51 v -66.77 c 0,-5.45 -3.84,-8.18 -11.51,-8.18 -7.67,0 -11.51,2.73 -11.51,8.18 v 55.72 c 0,3.15 -0.9,5.62 -2.71,7.42 -1.75,2.42 -4.12,3.63 -7.11,3.63 h -12.44 v -65.84 c 0,-13.99 11.25,-20.99 33.76,-20.99 22.51,0 33.76,7 33.76,20.99 v 54.79 z"
   class="st0" />
<g
   transform="translate(-79.6625,-166.21)"
   id="g22">
	<path
   style="fill:#f47522"
   id="path14"
   d="m 710.92,342.58 c 0,3.15 -0.9,5.62 -2.71,7.42 -2.37,2.42 -5.05,3.63 -8.04,3.63 h -11.51 v -66.77 c 0,-5.45 -3.84,-8.18 -11.51,-8.18 -7.67,0 -11.51,2.73 -11.51,8.18 v 55.72 c 0,3.15 -0.9,5.62 -2.71,7.42 -1.75,2.42 -4.12,3.63 -7.11,3.63 h -12.44 v -65.84 c 0,-13.99 11.25,-20.99 33.76,-20.99 22.51,0 33.76,7 33.76,20.99 v 54.79 z"
   class="st1" />
	<path
   style="fill:#f47522"
   id="path16"
   d="m 517.61,266.96 c 12.93,0 21.86,2.5 26.81,7.5 4.66,4.5 7,11.72 7,21.67 v 0.34 h -13.66 c -2.19,0 -4.19,-0.98 -5.99,-2.95 -1.18,-1.63 -1.77,-3.34 -1.77,-5.14 v -0.76 c 0,-3.93 -1.74,-6.49 -5.23,-7.67 -1.85,-0.56 -4.02,-0.84 -6.49,-0.84 -7.81,0 -11.72,2.75 -11.72,8.25 v 45.71 c 0,3.7 1.74,6.12 5.23,7.24 1.74,0.56 3.68,0.84 5.82,0.84 h 1.18 c 5.28,0 8.74,-1.43 10.37,-4.28 0.56,-1.12 0.84,-2.44 0.84,-3.95 v -3.78 c 0,-2.91 1.29,-5.26 3.88,-7.05 1.29,-0.73 2.78,-1.09 4.47,-1.09 h 13.07 v 0.42 c 0,10.57 -1.8,18.07 -5.4,22.51 -0.17,0.34 -0.93,1.18 -2.28,2.53 -4.95,4.72 -13.66,7.08 -26.13,7.08 -14.16,0 -24,-3.12 -29.51,-9.36 -2.75,-3.26 -4.13,-7.31 -4.13,-12.14 v -43.58 c 0,-9.78 5.56,-16.27 16.69,-19.47 4.95,-1.36 10.6,-2.03 16.95,-2.03 z"
   class="st1" />
	<path
   style="fill:#f47522"
   id="path18"
   d="m 627.29,288.54 v 18.04 c 0,2.98 -0.94,5.37 -2.82,7.17 -1.88,1.8 -4.03,2.7 -6.45,2.7 h -36.08 v 17.54 c 0,5.51 3.71,8.26 11.13,8.26 7.81,0 11.72,-2.75 11.72,-8.26 v -1.19 c 0,-5.26 4.26,-9.52 9.52,-9.52 h 12.99 v 9.69 c 0,13.99 -11.41,20.99 -34.23,20.99 -10.23,0 -18.32,-1.78 -24.28,-5.35 -5.96,-3.57 -8.94,-8.78 -8.94,-15.64 v -44.43 c 0,-6.8 2.98,-12.07 8.94,-15.81 5.96,-3.74 14.05,-5.61 24.28,-5.61 22.81,0.01 34.22,7.14 34.22,21.42 z m -45.27,-0.84 v 15.6 h 23.01 v -15.6 c 0,-5.85 -3.93,-8.77 -11.8,-8.77 -7.47,0 -11.21,2.92 -11.21,8.77 z"
   class="st1" />
	<path
   style="fill:#f47522"
   id="path20"
   d="m 721.62,279.04 c -2.59,0 -4.93,-2.21 -4.93,-4.93 v -6.67 l 11.15,0.01 v -18.47 c 0,-9.97 9.7,-10.19 9.7,-10.19 h 12.23 l -0.04,28.32 v 0.32 h 6.25 c 2.72,0 4.93,2.21 4.93,4.93 v 6.67 l -11.2,0.06 v 3.53 l 0.01,11.56 c 0,0 0.07,37.62 0,39.8 -0.26,7.99 11.09,8.63 11.09,8.63 l -0.13,11.01 c -8.2,-0.47 -19.34,-2.68 -19.34,-2.68 C 727.36,348.13 727.7,334.8 727.7,334.8 v -41.26 l 0.13,-14.44"
   class="st1" />
</g>
<g
   transform="translate(-79.6625,-166.21)"
   id="g32">
	<g
   id="g28">
		<path
   style="fill:#161341"
   id="path24"
   d="m 176.68,223.28 -36.22,37.02 c -17.87,18.27 -17.87,47.46 0,65.73 l 36.22,37.02 v 50.34 c 0.04,1.73 -0.6,3.48 -1.92,4.8 -2.56,2.55 -6.71,2.54 -9.26,-0.02 l -57.81,-57.55 c -37.37,-37.21 -37.37,-97.71 0,-134.92 l 57.69,-57.45 c 1.19,-1.26 2.88,-2.04 4.75,-2.04 3.62,0 6.55,2.93 6.55,6.55 z"
   class="st0" />
		<path
   style="fill:#f47522"
   id="path26"
   d="m 186.36,363.04 36.22,-37.02 c 17.87,-18.27 17.87,-47.46 0,-65.73 l -36.22,-37.02 v -50.34 c -0.04,-1.73 0.6,-3.48 1.92,-4.8 2.56,-2.55 6.71,-2.54 9.26,0.02 l 57.81,57.55 c 37.37,37.21 37.37,97.71 0,134.92 l -57.69,57.45 c -1.19,1.26 -2.88,2.04 -4.75,2.04 -3.62,0 -6.55,-2.93 -6.55,-6.55 z"
   class="st1" />
	</g>
	<path
   style="fill:#161341"
   id="path30"
   d="m 151.4,295.02 c -7.8,7.8 -7.8,20.46 0,28.26 7.8,7.8 20.46,7.8 28.26,0 l 31.98,-31.98 c 7.8,-7.8 7.8,-20.46 0,-28.26 -7.8,-7.8 -20.46,-7.8 -28.26,0 z"
   class="st0" />
</g>
</svg>