<?xml version="1.0" encoding="utf-8"?>
<!-- Generator: Adobe Illustrator 23.0.1, SVG Export Plug-In . SVG Version: 6.00 Build 0)  -->
<svg version="1.1" id="Layer_1" xmlns="http://www.w3.org/2000/svg" xmlns:xlink="http://www.w3.org/1999/xlink" x="0px" y="0px"
	 viewBox="0 0 850.39 311.18" style="enable-background:new 0 0 850.39 311.18;" xml:space="preserve">
<style type="text/css">
	.st0{fill:#161341;}
	.st1{fill:#FFF200;}
	.st2{fill:#F1F2F2;}
	.st3{fill:#F47522;}
	.st4{opacity:0.2;fill:#504D50;}
	.st5{opacity:0.4;fill:#504D50;}
	.st6{opacity:0.6;fill:#504D50;}
	.st7{opacity:0.8;fill:#504D50;}
	.st8{fill:#4A4F54;}
	.st9{opacity:0.2;fill:#F37021;}
	.st10{opacity:0.4;fill:#F37021;}
	.st11{opacity:0.6;fill:#F37021;}
	.st12{opacity:0.8;fill:#F37021;}
	.st13{fill:#F37021;}
	.st14{opacity:0.2;fill:#161341;}
	.st15{opacity:0.4;fill:#161341;}
	.st16{opacity:0.6;fill:#161341;}
	.st17{opacity:0.8;fill:#161341;}
	.st18{fill:#1F1646;}
	.st19{fill:#CCC9CA;}
	.st20{fill:#A7A2A3;}
	.st21{fill:#938D8F;}
	.st22{fill:#868183;}
	.st23{fill:#6F6A6C;}
	.st24{fill:#6A6567;}
	.st25{fill:#5A5658;}
	.st26{fill:#FEDEC7;}
	.st27{fill:#FCC198;}
	.st28{fill:#FAB07F;}
	.st29{fill:#F9A56F;}
	.st30{fill:#F78F4F;}
	.st31{fill:#F68A46;}
	.st32{fill:#F47A2E;}
	.st33{fill:#B8B3C2;}
	.st34{fill:#857E97;}
	.st35{fill:#6B6481;}
	.st36{fill:#5C5574;}
	.st37{fill:#3F3A5D;}
	.st38{fill:#383458;}
	.st39{fill:#24204A;}
</style>
<g>
	<path class="st2" d="M377.4,241.79c0.12,0.68,0.18,1.48,0.18,2.4v16.44c0.04,1.24-0.16,2.27-0.6,3.09
		c-0.44,0.82-1.1,1.41-1.98,1.77c-0.88,0.36-1.82,0.59-2.82,0.69c-1,0.1-2.2,0.11-3.6,0.03v-29.22c0-2.6,4.18-4,12.54-4.2
		c1.28-0.04,2.41-0.03,3.39,0.03c0.98,0.06,1.74,0.12,2.28,0.18s1.07,0.22,1.59,0.48c0.52,0.26,0.84,0.42,0.96,0.48
		s0.37,0.28,0.75,0.66c0.38,0.38,0.59,0.59,0.63,0.63c0.36-0.44,0.64-0.75,0.84-0.93c0.2-0.18,0.62-0.42,1.26-0.72
		c0.64-0.3,1.55-0.5,2.73-0.6c1.18-0.1,2.69-0.15,4.53-0.15c2.16,0,4.07,0.32,5.73,0.96c1.66,0.64,2.92,1.4,3.78,2.28
		c0.86,0.88,1.56,1.88,2.1,3c0.54,1.12,0.89,2.03,1.05,2.73c0.16,0.7,0.24,1.33,0.24,1.89l-0.06,22.5c-1.4,0.08-2.6,0.07-3.6-0.03
		c-1-0.1-1.94-0.33-2.82-0.69c-0.88-0.36-1.54-0.95-1.98-1.77c-0.44-0.82-0.64-1.85-0.6-3.09v-15.84c0-0.28-0.01-0.49-0.03-0.63
		c-0.02-0.14-0.1-0.44-0.24-0.9c-0.14-0.46-0.35-0.82-0.63-1.08c-0.28-0.26-0.71-0.51-1.29-0.75c-0.58-0.24-1.29-0.36-2.13-0.36
		c-1.8,0-3.16,0.12-4.08,0.36v24.78h-9.42v-23.28c-0.08-1.24-1.52-1.86-4.32-1.86C379.98,241.07,378.52,241.3,377.4,241.79z"/>
	<path class="st2" d="M422.94,229.49c-0.92-0.96-1.38-2.1-1.38-3.42c0-1.32,0.47-2.45,1.41-3.39c0.94-0.94,2.07-1.41,3.39-1.41
		c1.32,0,2.45,0.47,3.39,1.41c0.94,0.94,1.41,2.07,1.41,3.39c0,1.32-0.47,2.45-1.41,3.39c-0.94,0.94-2.07,1.41-3.39,1.41
		C425.04,230.87,423.9,230.41,422.94,229.49z M430.8,238.91c0-1.96-0.32-3.37-0.96-4.23c-0.64-0.86-1.37-1.29-2.19-1.29
		c-0.82,0-1.82-0.05-3-0.15s-2.13-0.41-2.85-0.93v33.9c2.92,0.16,5.17-0.13,6.75-0.87c1.58-0.74,2.33-2.31,2.25-4.71V238.91z"/>
	<path class="st2" d="M466.02,234.05c0,0.04,0,0.12,0,0.24c0.52,4.64-1.06,6.96-4.74,6.96c-0.44,0-1.17-0.01-2.19-0.03
		c-1.02-0.02-1.78-0.03-2.28-0.03c-0.5,0-1.19,0.05-2.07,0.15c-0.88,0.1-1.56,0.25-2.04,0.45c-0.48,0.2-1.02,0.51-1.62,0.93
		c-0.6,0.42-1.06,0.93-1.38,1.53s-0.59,1.38-0.81,2.34c-0.22,0.96-0.33,2.04-0.33,3.24c0,1.16,0.1,2.18,0.3,3.06
		c0.2,0.88,0.45,1.62,0.75,2.22c0.3,0.6,0.75,1.11,1.35,1.53c0.6,0.42,1.2,0.75,1.8,0.99c0.6,0.24,1.41,0.42,2.43,0.54
		c1.02,0.12,1.96,0.19,2.82,0.21c0.86,0.02,1.99,0.03,3.39,0.03c0.56,0,1.05,0.07,1.47,0.21c0.42,0.14,0.78,0.32,1.08,0.54
		c0.3,0.22,0.56,0.5,0.78,0.84c0.22,0.34,0.39,0.68,0.51,1.02c0.12,0.34,0.21,0.71,0.27,1.11c0.06,0.4,0.09,0.77,0.09,1.11
		s-0.01,0.69-0.03,1.05c-0.02,0.36-0.04,0.66-0.06,0.9c-0.02,0.24-0.07,0.58-0.15,1.02c-1.64,0.2-3.11,0.35-4.41,0.45
		c-1.3,0.1-2.91,0.12-4.83,0.06c-1.92-0.06-3.6-0.26-5.04-0.6c-1.44-0.34-2.94-0.9-4.5-1.68c-1.56-0.78-2.85-1.78-3.87-3
		c-1.02-1.22-1.86-2.82-2.52-4.8c-0.66-1.98-0.99-4.25-0.99-6.81c0-13.4,8.2-18.78,24.6-16.14
		C464.36,233.77,465.1,233.89,466.02,234.05z"/>
	<path class="st2" d="M495.06,232.91c-0.04,0.08-0.03,0.5,0.03,1.26c0.06,0.76,0.05,1.49-0.03,2.19s-0.24,1.45-0.48,2.25
		s-0.73,1.44-1.47,1.92c-0.74,0.48-1.69,0.72-2.85,0.72c-1.68,0-2.98,0.06-3.9,0.18s-1.74,0.42-2.46,0.9
		c-0.72,0.48-1.2,1.16-1.44,2.04s-0.36,2.08-0.36,3.6v19.2c-0.72-0.52-1.67-0.93-2.85-1.23c-1.18-0.3-2.18-0.53-3-0.69
		c-0.82-0.16-1.55-0.63-2.19-1.41s-0.96-1.91-0.96-3.39v-16.08c0-0.24,0.01-0.57,0.03-0.99c0.02-0.42,0.09-1,0.21-1.74
		c0.12-0.74,0.32-1.48,0.6-2.22c0.28-0.74,0.7-1.51,1.26-2.31c0.56-0.8,1.24-1.5,2.04-2.1c0.8-0.6,1.83-1.1,3.09-1.5
		c1.26-0.4,2.67-0.6,4.23-0.6c2.68,0,4.66,0,5.94,0c1.28,0,1.98,0,2.1,0s0.35,0,0.69,0C493.63,232.91,494.22,232.91,495.06,232.91z"
		/>
	<path class="st2" d="M496.86,249.59c-0.04-0.24-0.07-0.56-0.09-0.96c-0.02-0.4,0.04-1.18,0.18-2.34c0.14-1.16,0.37-2.27,0.69-3.33
		c0.32-1.06,0.88-2.23,1.68-3.51c0.8-1.28,1.79-2.38,2.97-3.3c1.18-0.92,2.77-1.69,4.77-2.31c2-0.62,4.28-0.93,6.84-0.93
		c1.8,0,3.46,0.14,4.98,0.42c1.52,0.28,2.83,0.66,3.93,1.14c1.1,0.48,2.08,1.08,2.94,1.8c0.86,0.72,1.57,1.43,2.13,2.13
		c0.56,0.7,1.03,1.53,1.41,2.49c0.38,0.96,0.67,1.79,0.87,2.49c0.2,0.7,0.34,1.52,0.42,2.46c0.08,0.94,0.13,1.65,0.15,2.13
		c0.02,0.48,0.02,1.09,0,1.83c-0.02,0.74-0.03,1.15-0.03,1.23c0,0.64-0.02,1.22-0.06,1.74c-0.04,0.52-0.16,1.34-0.36,2.46
		c-0.2,1.12-0.48,2.12-0.84,3c-0.36,0.88-0.93,1.84-1.71,2.88c-0.78,1.04-1.7,1.91-2.76,2.61c-1.06,0.7-2.44,1.29-4.14,1.77
		c-1.7,0.48-3.61,0.72-5.73,0.72c-2.2,0-4.16-0.14-5.88-0.42c-1.72-0.28-3.18-0.65-4.38-1.11c-1.2-0.46-2.25-1.09-3.15-1.89
		c-0.9-0.8-1.63-1.62-2.19-2.46c-0.56-0.84-1.02-1.88-1.38-3.12c-0.36-1.24-0.63-2.43-0.81-3.57
		C497.13,252.5,496.98,251.15,496.86,249.59z M505.8,250.13c0.12,1.4,0.29,2.51,0.51,3.33c0.22,0.82,0.62,1.63,1.2,2.43
		c0.58,0.8,1.45,1.38,2.61,1.74s2.64,0.54,4.44,0.54c1.4,0,2.6-0.22,3.6-0.66c1-0.44,1.74-0.94,2.22-1.5
		c0.48-0.56,0.86-1.24,1.14-2.04c0.28-0.8,0.44-1.4,0.48-1.8c0.04-0.4,0.06-0.84,0.06-1.32c0-0.04,0-0.25,0-0.63
		c0-0.38,0-0.7,0-0.96c0-0.26-0.02-0.65-0.06-1.17c-0.04-0.52-0.11-0.97-0.21-1.35c-0.1-0.38-0.24-0.83-0.42-1.35
		c-0.18-0.52-0.4-0.97-0.66-1.35c-0.26-0.38-0.6-0.77-1.02-1.17c-0.42-0.4-0.89-0.73-1.41-0.99c-0.52-0.26-1.15-0.47-1.89-0.63
		c-0.74-0.16-1.55-0.24-2.43-0.24c-1.6,0-2.96,0.22-4.08,0.66c-1.12,0.44-1.94,0.95-2.46,1.53c-0.52,0.58-0.92,1.34-1.2,2.28
		c-0.28,0.94-0.43,1.67-0.45,2.19c-0.02,0.52-0.01,1.18,0.03,1.98C505.8,249.88,505.8,250.05,505.8,250.13z"/>
	<path class="st2" d="M559.08,220.3c0,0.08,0,0.24,0,0.48c0.08,0.64,0.13,1.15,0.15,1.53c0.02,0.38,0.04,0.91,0.06,1.59
		c0.02,0.68-0.03,1.24-0.15,1.68c-0.12,0.44-0.28,0.89-0.48,1.35s-0.51,0.81-0.93,1.05c-0.42,0.24-0.93,0.36-1.53,0.36
		c-0.8,0-1.72-0.01-2.76-0.03c-1.04-0.02-1.76-0.04-2.16-0.06c-0.4-0.02-0.88,0.01-1.44,0.09c-0.56,0.08-0.91,0.21-1.05,0.39
		c-0.14,0.18-0.32,0.48-0.54,0.9s-0.34,0.91-0.36,1.47c-0.02,0.56-0.05,1.3-0.09,2.22l9.84,0.18c0.04,0.2,0.07,0.47,0.09,0.81
		c0.02,0.34-0.02,0.95-0.12,1.83c-0.1,0.88-0.29,1.65-0.57,2.31c-0.28,0.66-0.8,1.26-1.56,1.8c-0.76,0.54-1.72,0.81-2.88,0.81
		c-3.2,0-4.8,0.26-4.8,0.78v26.64c-0.56-0.6-1.27-1.04-2.13-1.32c-0.86-0.28-1.63-0.49-2.31-0.63c-0.68-0.14-1.35-0.38-2.01-0.72
		s-1.17-1-1.53-1.98c-0.36-0.98-0.54-2.33-0.54-4.05v-30.24v-0.06c0.04-0.4,0.09-0.83,0.15-1.29c0.06-0.46,0.28-1.22,0.66-2.28
		c0.38-1.06,0.87-1.97,1.47-2.73c0.6-0.76,1.52-1.45,2.76-2.07c1.24-0.62,2.68-0.93,4.32-0.93c2.08,0,3.7,0,4.86,0
		s1.89,0.01,2.19,0.03c0.3,0.02,0.73,0.03,1.29,0.03C557.54,220.25,558.24,220.27,559.08,220.3z"/>
	<path class="st2" d="M568.14,229.49c-0.92-0.96-1.38-2.1-1.38-3.42c0-1.32,0.47-2.45,1.41-3.39c0.94-0.94,2.07-1.41,3.39-1.41
		c1.32,0,2.45,0.47,3.39,1.41c0.94,0.94,1.41,2.07,1.41,3.39c0,1.32-0.47,2.45-1.41,3.39c-0.94,0.94-2.07,1.41-3.39,1.41
		C570.24,230.87,569.1,230.41,568.14,229.49z M576,238.91c0-1.96-0.32-3.37-0.96-4.23c-0.64-0.86-1.37-1.29-2.19-1.29
		c-0.82,0-1.82-0.05-3-0.15s-2.13-0.41-2.85-0.93v33.9c2.92,0.16,5.17-0.13,6.75-0.87c1.58-0.74,2.33-2.31,2.25-4.71V238.91z"/>
	<path class="st2" d="M615.24,244.37v21.84c-1.4,0.08-2.6,0.07-3.6-0.03c-1-0.1-1.95-0.33-2.85-0.69c-0.9-0.36-1.56-0.95-1.98-1.77
		c-0.42-0.82-0.61-1.85-0.57-3.09v-12.96v-0.12v-3c-0.6-2.92-3.32-4.08-8.16-3.48c-2.52,0.32-3.98,0.56-4.38,0.72
		c0.12,0.68,0.18,1.48,0.18,2.4v16.44c0.04,1.24-0.16,2.27-0.6,3.09c-0.44,0.82-1.1,1.41-1.98,1.77c-0.88,0.36-1.82,0.59-2.82,0.69
		c-1,0.1-2.2,0.11-3.6,0.03v-29.22c0-2.6,4.18-4,12.54-4.2C609.26,232.47,615.2,236.33,615.24,244.37z"/>
	<path class="st2" d="M626.16,241.3c0-0.12-0.02-0.28-0.06-0.48c-0.04-0.2-0.05-0.59-0.03-1.17c0.02-0.58,0.08-1.13,0.18-1.65
		c0.1-0.52,0.3-1.11,0.6-1.77s0.7-1.22,1.2-1.68c0.5-0.46,1.18-0.85,2.04-1.17c0.86-0.32,1.87-0.48,3.03-0.48c0.36,0,0.92,0,1.68,0
		c1.04-0.04,2.11-0.04,3.21,0c1.1,0.04,2.2,0.09,3.3,0.15c1.1,0.06,2.17,0.23,3.21,0.51c1.04,0.28,2.03,0.62,2.97,1.02
		c0.94,0.4,1.8,0.97,2.58,1.71c0.78,0.74,1.46,1.59,2.04,2.55c0.58,0.96,1.03,2.14,1.35,3.54c0.32,1.4,0.48,2.98,0.48,4.74v0.42
		v0.42v0.48v0.42v0.48v0.48v0.54v0.6v0.6v0.72v0.96v0.48c0,1.64-0.18,3.13-0.54,4.47c-0.36,1.34-0.81,2.43-1.35,3.27
		s-1.21,1.58-2.01,2.22c-0.8,0.64-1.55,1.11-2.25,1.41c-0.7,0.3-1.51,0.54-2.43,0.72c-0.92,0.18-1.63,0.29-2.13,0.33
		c-0.5,0.04-1.09,0.06-1.77,0.06h-8.28c-0.12,0-0.3-0.01-0.54-0.03c-0.24-0.02-0.69-0.08-1.35-0.18c-0.66-0.1-1.29-0.25-1.89-0.45
		c-0.6-0.2-1.27-0.53-2.01-0.99c-0.74-0.46-1.37-1-1.89-1.62c-0.52-0.62-0.96-1.43-1.32-2.43c-0.36-1-0.54-2.12-0.54-3.36
		c0-2.2,0.28-4.05,0.84-5.55c0.56-1.5,1.41-2.66,2.55-3.48c1.14-0.82,2.41-1.39,3.81-1.71c1.4-0.32,3.1-0.48,5.1-0.48
		c3.48,0,5.85-0.23,7.11-0.69s1.89-1.17,1.89-2.13c0-1.36-1.31-2.28-3.93-2.76c-2.62-0.48-5.4-0.58-8.34-0.3
		C629.73,240.33,627.56,240.75,626.16,241.3z M645.18,250.37c-0.16,0.2-0.39,0.44-0.69,0.72c-0.3,0.28-0.97,0.65-2.01,1.11
		c-1.04,0.46-2.12,0.69-3.24,0.69c-1.96,0-3.55,0.24-4.77,0.72c-1.22,0.48-1.83,1.16-1.83,2.04c0,1.04,0.44,1.82,1.32,2.34
		c0.88,0.52,2.64,0.78,5.28,0.78c1.08,0,1.91-0.01,2.49-0.03c0.58-0.02,1.12-0.17,1.62-0.45c0.5-0.28,0.85-0.54,1.05-0.78
		s0.37-0.75,0.51-1.53c0.14-0.78,0.22-1.53,0.24-2.25C645.17,253,645.18,251.89,645.18,250.37z"/>
	<path class="st2" d="M693,244.37v21.84c-1.4,0.08-2.6,0.07-3.6-0.03c-1-0.1-1.95-0.33-2.85-0.69c-0.9-0.36-1.56-0.95-1.98-1.77
		c-0.42-0.82-0.61-1.85-0.57-3.09v-12.96v-0.12v-3c-0.6-2.92-3.32-4.08-8.16-3.48c-2.52,0.32-3.98,0.56-4.38,0.72
		c0.12,0.68,0.18,1.48,0.18,2.4v16.44c0.04,1.24-0.16,2.27-0.6,3.09c-0.44,0.82-1.1,1.41-1.98,1.77c-0.88,0.36-1.82,0.59-2.82,0.69
		c-1,0.1-2.2,0.11-3.6,0.03v-29.22c0-2.6,4.18-4,12.54-4.2C687.02,232.47,692.96,236.33,693,244.37z"/>
	<path class="st2" d="M728.34,234.05c0,0.04,0,0.12,0,0.24c0.52,4.64-1.06,6.96-4.74,6.96c-0.44,0-1.17-0.01-2.19-0.03
		c-1.02-0.02-1.78-0.03-2.28-0.03c-0.5,0-1.19,0.05-2.07,0.15c-0.88,0.1-1.56,0.25-2.04,0.45c-0.48,0.2-1.02,0.51-1.62,0.93
		c-0.6,0.42-1.06,0.93-1.38,1.53s-0.59,1.38-0.81,2.34c-0.22,0.96-0.33,2.04-0.33,3.24c0,1.16,0.1,2.18,0.3,3.06
		c0.2,0.88,0.45,1.62,0.75,2.22c0.3,0.6,0.75,1.11,1.35,1.53c0.6,0.42,1.2,0.75,1.8,0.99c0.6,0.24,1.41,0.42,2.43,0.54
		c1.02,0.12,1.96,0.19,2.82,0.21c0.86,0.02,1.99,0.03,3.39,0.03c0.56,0,1.05,0.07,1.47,0.21c0.42,0.14,0.78,0.32,1.08,0.54
		c0.3,0.22,0.56,0.5,0.78,0.84c0.22,0.34,0.39,0.68,0.51,1.02c0.12,0.34,0.21,0.71,0.27,1.11c0.06,0.4,0.09,0.77,0.09,1.11
		s-0.01,0.69-0.03,1.05c-0.02,0.36-0.04,0.66-0.06,0.9c-0.02,0.24-0.07,0.58-0.15,1.02c-1.64,0.2-3.11,0.35-4.41,0.45
		c-1.3,0.1-2.91,0.12-4.83,0.06c-1.92-0.06-3.6-0.26-5.04-0.6c-1.44-0.34-2.94-0.9-4.5-1.68c-1.56-0.78-2.85-1.78-3.87-3
		c-1.02-1.22-1.86-2.82-2.52-4.8c-0.66-1.98-0.99-4.25-0.99-6.81c0-13.4,8.2-18.78,24.6-16.14
		C726.67,233.77,727.41,233.89,728.34,234.05z"/>
	<path class="st2" d="M742.08,254.69c0,1.24,0.62,2.17,1.86,2.79c1.24,0.62,2.81,0.94,4.71,0.96c1.9,0.02,3.76-0.06,5.58-0.24
		c1.82-0.18,3.54-0.39,5.16-0.63c1.62-0.24,2.55-0.36,2.79-0.36c0.16,3.48-0.53,5.94-2.07,7.38c-1.54,1.44-4.63,2.16-9.27,2.16
		c-6.4,0-11.1-1.3-14.1-3.9c-3-2.6-4.5-7.1-4.5-13.5c0-3.2,0.41-5.91,1.23-8.13c0.82-2.22,2.02-3.91,3.6-5.07s3.34-1.98,5.28-2.46
		c1.94-0.48,4.21-0.72,6.81-0.72c4.96,0,8.61,1.05,10.95,3.15c2.34,2.1,3.51,5.45,3.51,10.05c0,1.76-0.34,3.17-1.02,4.23
		c-0.68,1.06-1.57,1.77-2.67,2.13c-1.1,0.36-2.42,0.62-3.96,0.78c-1.54,0.16-3.06,0.21-4.56,0.15s-3.12,0.01-4.86,0.21
		C744.8,253.87,743.31,254.21,742.08,254.69z M741.77,248.38c0.68-0.48,1.79-0.8,3.33-0.96c1.54-0.16,2.98-0.25,4.32-0.27
		c1.34-0.02,2.53-0.3,3.57-0.84c1.04-0.54,1.54-1.39,1.5-2.55c0-1.04-0.82-1.9-2.46-2.58c-2.28-0.96-4.5-1.04-6.66-0.24
		C742.38,242.03,741.17,244.51,741.77,248.38z"/>
</g>
<g>
	<path class="st2" d="M336.62,97.03h8.95c0,0,7.95-0.61,7.95,6.12c0,7.16,0,14.16,0,14.16h-16.9l0.26,94.9h-17.5
		c0,0-9.76,1.15-9.76-13.68c0-17.24,0-130.74,0-130.74s-3.01-28.75,27.15-28.75l25.66,0.1l0.01,6.42
		c0.01,7.36-5.92,13.36-13.29,13.42h0c0,0-12.38-0.48-12.38,9.28C336.76,71.47,336.62,97.03,336.62,97.03z"/>
	<path class="st2" d="M367.14,211.81v-76.59c0-2.59,0.86-4.87,2.58-6.84c1.72-1.97,4.01-2.96,6.88-2.96h12.07v76.59
		c0,2.59-0.94,4.87-2.83,6.84c-1.89,1.97-4.07,2.96-6.54,2.96H367.14z M373.64,96.13h15.54c0.06,0,0.08,0.03,0.08,0.08V112
		c0,2.25-1.15,3.83-3.46,4.73c-0.56,0.11-1.1,0.17-1.6,0.17h-15.87c-0.06,0-0.08-0.03-0.08-0.08v-15.37c0-2.59,1.18-4.28,3.55-5.07
		C372.29,96.21,372.91,96.13,373.64,96.13z"/>
	<path class="st2" d="M472.94,200.83c0,3.15-0.91,5.63-2.71,7.43c-2.37,2.42-5.06,3.63-8.05,3.63h-11.53v-66.88
		c0-5.46-3.84-8.19-11.53-8.19c-7.68,0-11.53,2.73-11.53,8.19v55.81c0,3.15-0.91,5.63-2.71,7.43c-1.75,2.42-4.12,3.63-7.12,3.63
		H405.3v-65.95c0-14.02,11.27-21.03,33.82-21.03c22.55,0,33.82,7.01,33.82,21.03V200.83z"/>
</g>
<g>
	<path class="st3" d="M716.29,200.83c0,3.15-0.91,5.63-2.71,7.43c-2.37,2.42-5.06,3.63-8.05,3.63H694v-66.88
		c0-5.46-3.84-8.19-11.53-8.19c-7.68,0-11.53,2.73-11.53,8.19v55.81c0,3.15-0.91,5.63-2.71,7.43c-1.75,2.42-4.12,3.63-7.12,3.63
		h-12.46v-65.95c0-14.02,11.27-21.03,33.82-21.03c22.55,0,33.82,7.01,33.82,21.03V200.83z"/>
	<path class="st3" d="M522.67,125.09c12.95,0,21.9,2.51,26.85,7.52c4.67,4.5,7.01,11.74,7.01,21.7v0.34h-13.68
		c-2.2,0-4.19-0.99-6-2.96c-1.18-1.63-1.77-3.35-1.77-5.15v-0.76c0-3.94-1.75-6.5-5.24-7.68c-1.86-0.56-4.02-0.84-6.5-0.84
		c-7.82,0-11.74,2.76-11.74,8.26v45.79c0,3.71,1.75,6.13,5.24,7.25c1.75,0.56,3.69,0.84,5.83,0.84h1.18c5.29,0,8.75-1.43,10.39-4.29
		c0.56-1.12,0.84-2.44,0.84-3.95v-3.78c0-2.92,1.29-5.27,3.88-7.06c1.29-0.73,2.79-1.09,4.48-1.09h13.09v0.42
		c0,10.58-1.8,18.1-5.4,22.55c-0.17,0.34-0.93,1.18-2.28,2.53c-4.95,4.73-13.68,7.09-26.18,7.09c-14.19,0-24.04-3.12-29.55-9.37
		c-2.76-3.26-4.14-7.32-4.14-12.16v-43.66c0-9.79,5.57-16.3,16.72-19.51C510.66,125.76,516.31,125.09,522.67,125.09z"/>
	<path class="st3" d="M632.53,146.71v18.07c0,2.98-0.94,5.38-2.83,7.18s-4.04,2.7-6.46,2.7H587.1v17.56c0,5.52,3.72,8.28,11.15,8.28
		c7.82,0,11.74-2.76,11.74-8.28v-1.19c0-5.26,4.27-9.53,9.53-9.53h13.01v9.71c0,14.02-11.43,21.03-34.28,21.03
		c-10.25,0-18.35-1.79-24.32-5.36c-5.97-3.57-8.95-8.8-8.95-15.66v-44.5c0-6.81,2.98-12.09,8.95-15.83
		c5.97-3.74,14.07-5.62,24.32-5.62C621.1,125.26,632.53,132.41,632.53,146.71z M587.19,145.86v15.62h23.05v-15.62
		c0-5.85-3.94-8.78-11.82-8.78C590.93,137.08,587.19,140.01,587.19,145.86z"/>
	<path class="st3" d="M727.01,137.19c-2.59,0-4.94-2.21-4.94-4.94v-6.68l11.17,0.01v-18.5c0-9.99,9.72-10.2,9.72-10.2h12.25
		l-0.04,28.36l0,0.32l6.26,0c2.73,0,4.94,2.21,4.94,4.94v6.68l-11.22,0.06l0,3.53l0.01,11.58c0,0,0.07,37.68,0,39.86
		c-0.26,8,11.11,8.65,11.11,8.65l-0.13,11.02c-8.21-0.48-19.37-2.68-19.37-2.68c-14.01-2.81-13.66-16.17-13.66-16.17v-41.33
		l0.13-14.46"/>
</g>
<path class="st3" d="M190.89,221.33l36.28-37.08c17.9-18.3,17.9-47.54,0-65.84l-36.28-37.08l0-50.42c-0.04-1.74,0.6-3.49,1.93-4.81
	c2.57-2.56,6.72-2.55,9.27,0.02l57.9,57.64c37.43,37.27,37.43,97.87,0,135.14l-57.79,57.54c-1.19,1.26-2.89,2.05-4.76,2.05
	c-3.62,0-6.56-2.94-6.56-6.56V221.33z"/>
<path class="st2" d="M181.19,81.34l-36.28,37.08c-17.9,18.3-17.9,47.54,0,65.84l36.28,37.08l0,50.42c0.04,1.74-0.6,3.49-1.93,4.81
	c-2.57,2.56-6.72,2.55-9.27-0.02l-57.9-57.64c-37.43-37.27-37.43-97.87,0-135.14l57.79-57.54c1.19-1.26,2.89-2.05,4.76-2.05
	c3.62,0,6.56,2.94,6.56,6.56V81.34z M155.87,153.2c-7.82,7.82-7.82,20.49,0,28.31c7.82,7.82,20.49,7.82,28.31,0l32.03-32.03
	c7.82-7.82,7.82-20.49,0-28.31c-7.82-7.82-20.49-7.82-28.31,0L155.87,153.2z"/>
</svg>
