<?xml version="1.0" encoding="utf-8"?>
<!-- Generator: Adobe Illustrator 23.0.1, SVG Export Plug-In . SVG Version: 6.00 Build 0)  -->
<svg version="1.1" id="Layer_1" xmlns="http://www.w3.org/2000/svg" xmlns:xlink="http://www.w3.org/1999/xlink" x="0px" y="0px"
	 viewBox="0 0 850.39 302.67" style="enable-background:new 0 0 850.39 302.67;" xml:space="preserve">
<style type="text/css">
	.st0{fill:#161341;}
	.st1{fill:#FFF200;}
	.st2{fill:#F1F2F2;}
	.st3{fill:#F47522;}
	.st4{opacity:0.2;fill:#504D50;}
	.st5{opacity:0.4;fill:#504D50;}
	.st6{opacity:0.6;fill:#504D50;}
	.st7{opacity:0.8;fill:#504D50;}
	.st8{fill:#4A4F54;}
	.st9{opacity:0.2;fill:#F37021;}
	.st10{opacity:0.4;fill:#F37021;}
	.st11{opacity:0.6;fill:#F37021;}
	.st12{opacity:0.8;fill:#F37021;}
	.st13{fill:#F37021;}
	.st14{opacity:0.2;fill:#161341;}
	.st15{opacity:0.4;fill:#161341;}
	.st16{opacity:0.6;fill:#161341;}
	.st17{opacity:0.8;fill:#161341;}
	.st18{fill:#1F1646;}
	.st19{fill:#CCC9CA;}
	.st20{fill:#A7A2A3;}
	.st21{fill:#938D8F;}
	.st22{fill:#868183;}
	.st23{fill:#6F6A6C;}
	.st24{fill:#6A6567;}
	.st25{fill:#5A5658;}
	.st26{fill:#FEDEC7;}
	.st27{fill:#FCC198;}
	.st28{fill:#FAB07F;}
	.st29{fill:#F9A56F;}
	.st30{fill:#F78F4F;}
	.st31{fill:#F68A46;}
	.st32{fill:#F47A2E;}
	.st33{fill:#B8B3C2;}
	.st34{fill:#857E97;}
	.st35{fill:#6B6481;}
	.st36{fill:#5C5574;}
	.st37{fill:#3F3A5D;}
	.st38{fill:#383458;}
	.st39{fill:#24204A;}
</style>
<g>
	<path class="st2" d="M487.11,241.67c-1.23-0.04-2.82-0.15-4.77-0.33c-1.96-0.18-3.38-0.28-4.27-0.3c-0.89-0.02-2.34,0.03-4.36,0.15
		c-0.51,0.04-0.97,0.12-1.36,0.24c-1.5,0.44-2.17,1.13-2.01,2.07c0.12,0.59,0.51,0.93,1.18,1.01c2.02,0.32,3.86,0.7,5.54,1.16
		c1.68,0.46,3.09,0.93,4.24,1.42c1.15,0.49,2.18,1.04,3.11,1.63c0.93,0.59,1.66,1.18,2.19,1.75c0.53,0.57,1.01,1.15,1.42,1.72
		c0.42,0.57,0.68,1.12,0.8,1.63c0.12,0.51,0.24,1,0.36,1.45c0.12,0.45,0.15,0.83,0.09,1.13c-0.06,0.3-0.07,0.52-0.03,0.68v0.12
		c0,3.36-1.4,5.76-4.21,7.2c-2.81,1.44-7.17,2.16-13.1,2.16c-1.58,0-2.95-0.17-4.12-0.5c-1.17-0.33-2.07-0.73-2.73-1.18
		c-0.65-0.45-1.17-1.01-1.54-1.66c-0.38-0.65-0.62-1.24-0.74-1.78c-0.12-0.53-0.17-1.09-0.15-1.66c0.02-0.57,0.05-0.97,0.09-1.19
		c0.04-0.22,0.08-0.37,0.12-0.44c1.22,0.04,2.82,0.15,4.77,0.33c1.96,0.18,3.38,0.28,4.27,0.3c0.89,0.02,2.34-0.03,4.36-0.15
		c1.22-0.12,2.19-0.33,2.9-0.65c0.71-0.32,1.12-0.65,1.21-1.01c0.1-0.36,0.04-0.71-0.18-1.07c-0.22-0.36-0.58-0.68-1.1-0.98
		c-0.51-0.3-1.11-0.52-1.78-0.68c-1.03-0.32-2.32-0.63-3.88-0.95c-1.56-0.32-2.86-0.57-3.88-0.77c-1.03-0.2-2.13-0.53-3.32-1.01
		c-1.18-0.47-2.14-1.04-2.87-1.69c-0.73-0.65-1.34-1.57-1.84-2.75c-0.5-1.19-0.76-2.59-0.8-4.21c0-0.08,0-0.16,0-0.24
		c0-3.36,1.4-5.76,4.21-7.2c2.8-1.44,7.17-2.16,13.1-2.16c1.58,0,2.95,0.17,4.12,0.5s2.07,0.73,2.73,1.18
		c0.65,0.46,1.17,1.01,1.54,1.66c0.38,0.65,0.62,1.24,0.74,1.78c0.12,0.53,0.17,1.09,0.15,1.66c-0.02,0.57-0.05,0.97-0.09,1.19
		C487.18,241.44,487.14,241.59,487.11,241.67z"/>
	<path class="st2" d="M506.13,254.83c0,1.23,0.61,2.14,1.84,2.76c1.22,0.61,2.78,0.93,4.65,0.95c1.88,0.02,3.71-0.06,5.51-0.24
		c1.8-0.18,3.5-0.38,5.1-0.62c1.6-0.24,2.52-0.36,2.76-0.36c0.16,3.44-0.52,5.87-2.04,7.29c-1.52,1.42-4.57,2.13-9.16,2.13
		c-6.32,0-10.96-1.28-13.93-3.85c-2.96-2.57-4.45-7.01-4.45-13.33c0-3.16,0.41-5.84,1.21-8.03c0.81-2.19,2-3.86,3.56-5.01
		s3.3-1.96,5.22-2.43c1.92-0.47,4.16-0.71,6.73-0.71c4.9,0,8.5,1.04,10.82,3.11c2.31,2.07,3.47,5.38,3.47,9.93
		c0,1.74-0.34,3.13-1.01,4.18c-0.67,1.05-1.55,1.75-2.64,2.1c-1.09,0.36-2.39,0.61-3.91,0.77c-1.52,0.16-3.02,0.21-4.5,0.15
		c-1.48-0.06-3.08,0.01-4.8,0.21C508.83,254.02,507.35,254.35,506.13,254.83z M505.83,248.6c0.67-0.47,1.77-0.79,3.29-0.95
		c1.52-0.16,2.94-0.25,4.27-0.27c1.32-0.02,2.5-0.3,3.53-0.83s1.52-1.37,1.48-2.52c0-1.03-0.81-1.88-2.43-2.55
		c-2.25-0.95-4.44-1.03-6.58-0.24C506.42,242.32,505.24,244.77,505.83,248.6z"/>
	<path class="st2" d="M561.72,234.44c0,0.04,0,0.12,0,0.24c0.51,4.58-1.05,6.88-4.68,6.88c-0.43,0-1.16-0.01-2.16-0.03
		c-1.01-0.02-1.76-0.03-2.25-0.03s-1.18,0.05-2.04,0.15c-0.87,0.1-1.54,0.25-2.02,0.44c-0.47,0.2-1.01,0.5-1.6,0.92
		c-0.59,0.41-1.05,0.92-1.36,1.51c-0.32,0.59-0.58,1.36-0.8,2.31c-0.22,0.95-0.33,2.01-0.33,3.2c0,1.15,0.1,2.15,0.3,3.02
		c0.2,0.87,0.44,1.6,0.74,2.19c0.3,0.59,0.74,1.1,1.33,1.51c0.59,0.41,1.18,0.74,1.78,0.98s1.39,0.42,2.4,0.53
		c1.01,0.12,1.94,0.19,2.79,0.21s1.96,0.03,3.35,0.03c0.55,0,1.04,0.07,1.45,0.21c0.41,0.14,0.77,0.32,1.07,0.53
		c0.3,0.22,0.55,0.5,0.77,0.83c0.22,0.34,0.38,0.67,0.5,1.01c0.12,0.34,0.21,0.7,0.27,1.1c0.06,0.4,0.09,0.76,0.09,1.1
		c0,0.34-0.01,0.68-0.03,1.04s-0.04,0.65-0.06,0.89c-0.02,0.24-0.07,0.57-0.15,1.01c-1.62,0.2-3.07,0.35-4.36,0.44
		c-1.28,0.1-2.88,0.12-4.77,0.06c-1.9-0.06-3.56-0.26-4.98-0.59c-1.42-0.33-2.9-0.89-4.45-1.66c-1.54-0.77-2.81-1.76-3.82-2.96
		c-1.01-1.2-1.84-2.79-2.49-4.74c-0.65-1.96-0.98-4.2-0.98-6.73c0-13.24,8.1-18.55,24.3-15.94
		C560.08,234.17,560.81,234.28,561.72,234.44z"/>
	<path class="st2" d="M569.95,255.06v-21.57c1.38-0.08,2.57-0.07,3.56,0.03s1.92,0.33,2.79,0.68c0.87,0.36,1.52,0.94,1.96,1.75
		c0.43,0.81,0.63,1.83,0.59,3.05v12.8v0.12v2.96c0.59,2.92,3.28,4.07,8.06,3.44c2.45-0.32,3.89-0.55,4.33-0.71
		c-0.12-0.67-0.18-1.46-0.18-2.37V239c-0.04-1.22,0.15-2.24,0.56-3.05c0.42-0.81,1.07-1.39,1.96-1.75c0.89-0.36,1.83-0.58,2.82-0.68
		c0.99-0.1,2.17-0.11,3.56-0.03v28.86c0,2.57-4.13,3.95-12.39,4.15C575.82,266.82,569.95,263.01,569.95,255.06z"/>
	<path class="st2" d="M630.4,233.32c-0.04,0.08-0.03,0.49,0.03,1.24c0.06,0.75,0.05,1.47-0.03,2.16c-0.08,0.69-0.24,1.43-0.47,2.22
		s-0.72,1.42-1.45,1.9c-0.73,0.47-1.67,0.71-2.81,0.71c-1.66,0-2.94,0.06-3.85,0.18c-0.91,0.12-1.72,0.42-2.43,0.89
		c-0.71,0.47-1.19,1.15-1.42,2.01c-0.24,0.87-0.36,2.06-0.36,3.56v18.96c-0.71-0.51-1.65-0.92-2.81-1.21
		c-1.17-0.3-2.15-0.52-2.96-0.68c-0.81-0.16-1.53-0.62-2.16-1.39c-0.63-0.77-0.95-1.89-0.95-3.35v-15.88c0-0.24,0.01-0.56,0.03-0.98
		c0.02-0.42,0.09-0.99,0.21-1.72c0.12-0.73,0.32-1.46,0.59-2.19c0.28-0.73,0.69-1.49,1.25-2.28c0.55-0.79,1.22-1.48,2.01-2.07
		c0.79-0.59,1.81-1.09,3.05-1.48c1.25-0.39,2.64-0.59,4.18-0.59c2.65,0,4.6,0,5.87,0s1.96,0,2.07,0c0.12,0,0.35,0,0.68,0
		C628.99,233.32,629.57,233.32,630.4,233.32z"/>
	<path class="st2" d="M639.7,229.94c-0.91-0.95-1.36-2.07-1.36-3.38s0.46-2.42,1.39-3.35c0.93-0.93,2.04-1.39,3.35-1.39
		s2.42,0.46,3.35,1.39c0.93,0.93,1.39,2.04,1.39,3.35s-0.46,2.42-1.39,3.35c-0.93,0.93-2.04,1.39-3.35,1.39
		S640.65,230.85,639.7,229.94z M647.47,239.24c0-1.94-0.32-3.33-0.95-4.18s-1.35-1.27-2.16-1.27c-0.81,0-1.8-0.05-2.96-0.15
		c-1.17-0.1-2.1-0.4-2.82-0.92v33.48c2.88,0.16,5.11-0.13,6.67-0.86c1.56-0.73,2.3-2.28,2.22-4.65V239.24z"/>
	<path class="st2" d="M674.37,258.5c0.55,1.74,0.63,3.34,0.24,4.8c-0.4,1.46-1.07,2.43-2.02,2.9c-2.05,0.63-4.06,0.82-6.01,0.56
		c-1.96-0.26-3.7-0.8-5.21-1.63c-1.52-0.83-2.76-2.04-3.7-3.62s-1.42-3.38-1.42-5.39v-25.48c-0.04-1.22,0.16-2.24,0.59-3.05
		c0.43-0.81,1.09-1.39,1.96-1.75c0.87-0.36,1.8-0.58,2.79-0.68c0.99-0.1,2.17-0.11,3.56-0.03v8.59h10.19c0,0.12,0,0.27,0,0.44
		c0,0.18-0.04,0.54-0.12,1.1c-0.08,0.55-0.2,1.09-0.36,1.6s-0.42,1.08-0.8,1.69c-0.38,0.61-0.82,1.14-1.33,1.57
		c-0.51,0.44-1.21,0.8-2.07,1.1c-0.87,0.3-1.84,0.44-2.9,0.44c-0.95,0-1.82,0.02-2.61,0.06l0.06,13.69
		c-0.04,1.07,0.18,1.89,0.65,2.46c0.47,0.57,1.12,0.91,1.93,1.01c0.81,0.1,1.62,0.12,2.43,0.06c0.81-0.06,1.64-0.15,2.49-0.27
		S674.09,258.5,674.37,258.5z"/>
	<path class="st2" d="M684.33,229.94c-0.91-0.95-1.36-2.07-1.36-3.38s0.46-2.42,1.39-3.35c0.93-0.93,2.04-1.39,3.35-1.39
		s2.42,0.46,3.35,1.39c0.93,0.93,1.39,2.04,1.39,3.35s-0.46,2.42-1.39,3.35c-0.93,0.93-2.04,1.39-3.35,1.39
		S685.28,230.85,684.33,229.94z M692.09,239.24c0-1.94-0.32-3.33-0.95-4.18s-1.35-1.27-2.16-1.27c-0.81,0-1.8-0.05-2.96-0.15
		c-1.17-0.1-2.1-0.4-2.82-0.92v33.48c2.88,0.16,5.11-0.13,6.67-0.86c1.56-0.73,2.3-2.28,2.22-4.65V239.24z"/>
	<path class="st2" d="M710.17,254.83c0,1.23,0.61,2.14,1.84,2.76c1.22,0.61,2.78,0.93,4.65,0.95c1.88,0.02,3.71-0.06,5.51-0.24
		c1.8-0.18,3.5-0.38,5.1-0.62c1.6-0.24,2.52-0.36,2.76-0.36c0.16,3.44-0.52,5.87-2.04,7.29c-1.52,1.42-4.57,2.13-9.16,2.13
		c-6.32,0-10.96-1.28-13.93-3.85c-2.96-2.57-4.45-7.01-4.45-13.33c0-3.16,0.41-5.84,1.21-8.03c0.81-2.19,2-3.86,3.56-5.01
		s3.3-1.96,5.22-2.43c1.92-0.47,4.16-0.71,6.73-0.71c4.9,0,8.5,1.04,10.82,3.11c2.31,2.07,3.47,5.38,3.47,9.93
		c0,1.74-0.34,3.13-1.01,4.18c-0.67,1.05-1.55,1.75-2.64,2.1c-1.09,0.36-2.39,0.61-3.91,0.77c-1.52,0.16-3.02,0.21-4.5,0.15
		c-1.48-0.06-3.08,0.01-4.8,0.21C712.86,254.02,711.39,254.35,710.17,254.83z M709.87,248.6c0.67-0.47,1.77-0.79,3.29-0.95
		c1.52-0.16,2.94-0.25,4.27-0.27c1.32-0.02,2.5-0.3,3.53-0.83s1.52-1.37,1.48-2.52c0-1.03-0.81-1.88-2.43-2.55
		c-2.25-0.95-4.44-1.03-6.58-0.24C710.46,242.32,709.28,244.77,709.87,248.6z"/>
	<path class="st2" d="M765.64,241.67c-1.23-0.04-2.82-0.15-4.77-0.33c-1.96-0.18-3.38-0.28-4.27-0.3c-0.89-0.02-2.34,0.03-4.36,0.15
		c-0.51,0.04-0.97,0.12-1.36,0.24c-1.5,0.44-2.17,1.13-2.01,2.07c0.12,0.59,0.51,0.93,1.18,1.01c2.02,0.32,3.86,0.7,5.54,1.16
		c1.68,0.46,3.09,0.93,4.24,1.42c1.15,0.49,2.18,1.04,3.11,1.63c0.93,0.59,1.66,1.18,2.19,1.75c0.53,0.57,1.01,1.15,1.42,1.72
		c0.42,0.57,0.68,1.12,0.8,1.63c0.12,0.51,0.24,1,0.36,1.45c0.12,0.45,0.15,0.83,0.09,1.13c-0.06,0.3-0.07,0.52-0.03,0.68v0.12
		c0,3.36-1.4,5.76-4.21,7.2c-2.81,1.44-7.17,2.16-13.1,2.16c-1.58,0-2.95-0.17-4.12-0.5c-1.17-0.33-2.07-0.73-2.73-1.18
		c-0.65-0.45-1.17-1.01-1.54-1.66c-0.38-0.65-0.62-1.24-0.74-1.78c-0.12-0.53-0.17-1.09-0.15-1.66c0.02-0.57,0.05-0.97,0.09-1.19
		c0.04-0.22,0.08-0.37,0.12-0.44c1.22,0.04,2.82,0.15,4.77,0.33c1.96,0.18,3.38,0.28,4.27,0.3c0.89,0.02,2.34-0.03,4.36-0.15
		c1.22-0.12,2.19-0.33,2.9-0.65c0.71-0.32,1.12-0.65,1.21-1.01c0.1-0.36,0.04-0.71-0.18-1.07c-0.22-0.36-0.58-0.68-1.1-0.98
		c-0.51-0.3-1.11-0.52-1.78-0.68c-1.03-0.32-2.32-0.63-3.88-0.95c-1.56-0.32-2.86-0.57-3.88-0.77c-1.03-0.2-2.13-0.53-3.32-1.01
		c-1.18-0.47-2.14-1.04-2.87-1.69c-0.73-0.65-1.34-1.57-1.84-2.75c-0.5-1.19-0.76-2.59-0.8-4.21c0-0.08,0-0.16,0-0.24
		c0-3.36,1.4-5.76,4.21-7.2c2.8-1.44,7.17-2.16,13.1-2.16c1.58,0,2.95,0.17,4.12,0.5s2.07,0.73,2.73,1.18
		c0.65,0.46,1.17,1.01,1.54,1.66c0.38,0.65,0.62,1.24,0.74,1.78c0.12,0.53,0.17,1.09,0.15,1.66c-0.02,0.57-0.05,0.97-0.09,1.19
		C765.71,241.44,765.67,241.59,765.64,241.67z"/>
</g>
<g>
	<path class="st2" d="M336.62,96.65h8.95c0,0,7.95-0.61,7.95,6.12c0,7.16,0,14.16,0,14.16h-16.9l0.26,94.9h-17.5
		c0,0-9.76,1.15-9.76-13.68c0-17.24,0-130.74,0-130.74s-3.01-28.75,27.15-28.75l25.66,0.1l0.01,6.42
		c0.01,7.36-5.92,13.36-13.29,13.42h0c0,0-12.38-0.48-12.38,9.28C336.76,71.1,336.62,96.65,336.62,96.65z"/>
	<path class="st2" d="M367.14,211.43v-76.59c0-2.59,0.86-4.87,2.58-6.84c1.72-1.97,4.01-2.96,6.88-2.96h12.07v76.59
		c0,2.59-0.94,4.87-2.83,6.84c-1.89,1.97-4.07,2.96-6.54,2.96H367.14z M373.64,95.75h15.54c0.06,0,0.08,0.03,0.08,0.08v15.79
		c0,2.25-1.15,3.83-3.46,4.73c-0.56,0.11-1.1,0.17-1.6,0.17h-15.87c-0.06,0-0.08-0.03-0.08-0.08v-15.37c0-2.59,1.18-4.28,3.55-5.07
		C372.29,95.84,372.91,95.75,373.64,95.75z"/>
	<path class="st2" d="M472.94,200.46c0,3.15-0.91,5.63-2.71,7.43c-2.37,2.42-5.06,3.63-8.05,3.63h-11.53v-66.88
		c0-5.46-3.84-8.19-11.53-8.19c-7.68,0-11.53,2.73-11.53,8.19v55.81c0,3.15-0.91,5.63-2.71,7.43c-1.75,2.42-4.12,3.63-7.12,3.63
		H405.3v-65.95c0-14.02,11.27-21.03,33.82-21.03c22.55,0,33.82,7.01,33.82,21.03V200.46z"/>
</g>
<g>
	<path class="st3" d="M716.29,200.46c0,3.15-0.91,5.63-2.71,7.43c-2.37,2.42-5.06,3.63-8.05,3.63H694v-66.88
		c0-5.46-3.84-8.19-11.53-8.19c-7.68,0-11.53,2.73-11.53,8.19v55.81c0,3.15-0.91,5.63-2.71,7.43c-1.75,2.42-4.12,3.63-7.12,3.63
		h-12.46v-65.95c0-14.02,11.27-21.03,33.82-21.03c22.55,0,33.82,7.01,33.82,21.03V200.46z"/>
	<path class="st3" d="M522.67,124.71c12.95,0,21.9,2.51,26.85,7.52c4.67,4.5,7.01,11.74,7.01,21.7v0.34h-13.68
		c-2.2,0-4.19-0.99-6-2.96c-1.18-1.63-1.77-3.35-1.77-5.15v-0.76c0-3.94-1.75-6.5-5.24-7.68c-1.86-0.56-4.02-0.84-6.5-0.84
		c-7.82,0-11.74,2.76-11.74,8.26v45.79c0,3.71,1.75,6.13,5.24,7.25c1.75,0.56,3.69,0.84,5.83,0.84h1.18c5.29,0,8.75-1.43,10.39-4.29
		c0.56-1.12,0.84-2.44,0.84-3.95V187c0-2.92,1.29-5.27,3.88-7.06c1.29-0.73,2.79-1.09,4.48-1.09h13.09v0.42
		c0,10.58-1.8,18.1-5.4,22.55c-0.17,0.34-0.93,1.18-2.28,2.53c-4.95,4.73-13.68,7.09-26.18,7.09c-14.19,0-24.04-3.12-29.55-9.37
		c-2.76-3.26-4.14-7.32-4.14-12.16v-43.66c0-9.79,5.57-16.3,16.72-19.51C510.66,125.39,516.31,124.71,522.67,124.71z"/>
	<path class="st3" d="M632.53,146.33v18.07c0,2.98-0.94,5.38-2.83,7.18c-1.89,1.8-4.04,2.7-6.46,2.7H587.1v17.56
		c0,5.52,3.72,8.28,11.15,8.28c7.82,0,11.74-2.76,11.74-8.28v-1.19c0-5.26,4.27-9.53,9.53-9.53h13.01v9.71
		c0,14.02-11.43,21.03-34.28,21.03c-10.25,0-18.35-1.79-24.32-5.36c-5.97-3.57-8.95-8.8-8.95-15.66v-44.5
		c0-6.81,2.98-12.09,8.95-15.83c5.97-3.74,14.07-5.62,24.32-5.62C621.1,124.88,632.53,132.03,632.53,146.33z M587.19,145.49v15.62
		h23.05v-15.62c0-5.85-3.94-8.78-11.82-8.78C590.93,136.7,587.19,139.63,587.19,145.49z"/>
	<path class="st3" d="M727.01,136.82c-2.59,0-4.94-2.21-4.94-4.94v-6.68l11.17,0.01v-18.5c0-9.99,9.72-10.2,9.72-10.2h12.25
		l-0.04,28.36l0,0.32l6.26,0c2.73,0,4.94,2.21,4.94,4.94v6.68l-11.22,0.06l0,3.53l0.01,11.58c0,0,0.07,37.68,0,39.86
		c-0.26,8,11.11,8.65,11.11,8.65l-0.13,11.02c-8.21-0.48-19.37-2.68-19.37-2.68c-14.01-2.81-13.66-16.17-13.66-16.17v-41.33
		l0.13-14.46"/>
</g>
<path class="st3" d="M190.89,220.95l36.28-37.08c17.9-18.3,17.9-47.54,0-65.84l-36.28-37.08l0-50.42c-0.04-1.74,0.6-3.49,1.93-4.81
	c2.57-2.56,6.72-2.55,9.27,0.02l57.9,57.64c37.43,37.27,37.43,97.87,0,135.14l-57.79,57.54c-1.19,1.26-2.89,2.05-4.76,2.05
	c-3.62,0-6.56-2.94-6.56-6.56V220.95z"/>
<path class="st2" d="M181.19,80.96l-36.28,37.08c-17.9,18.3-17.9,47.54,0,65.84l36.28,37.08l0,50.42c0.04,1.74-0.6,3.49-1.93,4.81
	c-2.57,2.56-6.72,2.55-9.27-0.02l-57.9-57.64c-37.43-37.27-37.43-97.87,0-135.14l57.79-57.54c1.19-1.26,2.89-2.05,4.76-2.05
	c3.62,0,6.56,2.94,6.56,6.56V80.96z M155.87,152.82c-7.82,7.82-7.82,20.49,0,28.31c7.82,7.82,20.49,7.82,28.31,0l32.03-32.03
	c7.82-7.82,7.82-20.49,0-28.31c-7.82-7.82-20.49-7.82-28.31,0L155.87,152.82z"/>
</svg>
