<?xml version="1.0" encoding="utf-8"?>
<!-- Generator: Adobe Illustrator 23.0.1, SVG Export Plug-In . SVG Version: 6.00 Build 0)  -->
<svg version="1.1" id="Layer_1" xmlns="http://www.w3.org/2000/svg" xmlns:xlink="http://www.w3.org/1999/xlink" x="0px" y="0px"
	 viewBox="0 0 850.39 302.67" style="enable-background:new 0 0 850.39 302.67;" xml:space="preserve">
<style type="text/css">
	.st0{fill:#161341;}
	.st1{fill:#FFF200;}
	.st2{fill:#4E4F51;}
	.st3{fill:#F47522;}
	.st4{opacity:0.2;fill:#504D50;}
	.st5{opacity:0.4;fill:#504D50;}
	.st6{opacity:0.6;fill:#504D50;}
	.st7{opacity:0.8;fill:#504D50;}
	.st8{fill:#4A4F54;}
	.st9{opacity:0.2;fill:#F37021;}
	.st10{opacity:0.4;fill:#F37021;}
	.st11{opacity:0.6;fill:#F37021;}
	.st12{opacity:0.8;fill:#F37021;}
	.st13{fill:#F37021;}
	.st14{opacity:0.2;fill:#161341;}
	.st15{opacity:0.4;fill:#161341;}
	.st16{opacity:0.6;fill:#161341;}
	.st17{opacity:0.8;fill:#161341;}
	.st18{fill:#1F1646;}
	.st19{fill:#CCC9CA;}
	.st20{fill:#A7A2A3;}
	.st21{fill:#938D8F;}
	.st22{fill:#868183;}
	.st23{fill:#6F6A6C;}
	.st24{fill:#6A6567;}
	.st25{fill:#5A5658;}
	.st26{fill:#FEDEC7;}
	.st27{fill:#FCC198;}
	.st28{fill:#FAB07F;}
	.st29{fill:#F9A56F;}
	.st30{fill:#F78F4F;}
	.st31{fill:#F68A46;}
	.st32{fill:#F47A2E;}
	.st33{fill:#B8B3C2;}
	.st34{fill:#857E97;}
	.st35{fill:#6B6481;}
	.st36{fill:#5C5574;}
	.st37{fill:#3F3A5D;}
	.st38{fill:#383458;}
	.st39{fill:#24204A;}
</style>
<g>
	<path class="st2" d="M494.02,241.61c0-0.12-0.02-0.28-0.06-0.47c-0.04-0.2-0.05-0.58-0.03-1.16c0.02-0.57,0.08-1.12,0.18-1.63
		s0.3-1.1,0.59-1.75c0.3-0.65,0.69-1.21,1.19-1.66c0.49-0.45,1.17-0.84,2.01-1.16c0.85-0.32,1.85-0.47,2.99-0.47
		c0.36,0,0.91,0,1.66,0c1.03-0.04,2.08-0.04,3.17,0c1.09,0.04,2.17,0.09,3.26,0.15c1.09,0.06,2.14,0.23,3.17,0.5
		c1.03,0.28,2,0.61,2.93,1.01c0.93,0.4,1.78,0.96,2.55,1.69c0.77,0.73,1.44,1.57,2.02,2.52c0.57,0.95,1.02,2.11,1.33,3.5
		s0.47,2.94,0.47,4.68v0.42v0.42v0.47v0.42v0.47v0.47v0.53v0.59v0.59v0.71v0.95v0.47c0,1.62-0.18,3.09-0.53,4.42
		c-0.36,1.32-0.8,2.4-1.33,3.23c-0.53,0.83-1.2,1.56-1.99,2.19c-0.79,0.63-1.53,1.1-2.22,1.39c-0.69,0.3-1.49,0.53-2.4,0.71
		c-0.91,0.18-1.61,0.29-2.1,0.33c-0.49,0.04-1.08,0.06-1.75,0.06h-8.18c-0.12,0-0.3-0.01-0.53-0.03c-0.24-0.02-0.68-0.08-1.33-0.18
		c-0.65-0.1-1.27-0.25-1.87-0.45c-0.59-0.2-1.25-0.52-1.99-0.98c-0.73-0.45-1.35-0.99-1.87-1.6c-0.51-0.61-0.95-1.41-1.3-2.4
		c-0.36-0.99-0.53-2.09-0.53-3.32c0-2.17,0.28-4,0.83-5.48c0.55-1.48,1.39-2.63,2.52-3.44c1.13-0.81,2.38-1.37,3.76-1.69
		c1.38-0.32,3.06-0.47,5.04-0.47c3.44,0,5.78-0.23,7.02-0.68c1.25-0.45,1.87-1.16,1.87-2.1c0-1.34-1.29-2.25-3.88-2.73
		c-2.59-0.47-5.33-0.57-8.24-0.3C497.55,240.64,495.4,241.06,494.02,241.61z M512.81,250.56c-0.16,0.2-0.39,0.44-0.68,0.71
		c-0.3,0.28-0.96,0.64-1.99,1.1c-1.03,0.45-2.09,0.68-3.2,0.68c-1.94,0-3.51,0.24-4.71,0.71c-1.21,0.47-1.81,1.15-1.81,2.01
		c0,1.03,0.43,1.8,1.3,2.31c0.87,0.51,2.61,0.77,5.22,0.77c1.07,0,1.89-0.01,2.46-0.03c0.57-0.02,1.11-0.17,1.6-0.44
		c0.49-0.28,0.84-0.53,1.04-0.77c0.2-0.24,0.36-0.74,0.5-1.51c0.14-0.77,0.22-1.51,0.24-2.22
		C512.8,253.17,512.81,252.06,512.81,250.56z"/>
	<path class="st2" d="M552.45,220.51c0.59,0.44,1.33,0.71,2.22,0.83s1.7,0.18,2.43,0.18c0.73,0,1.43,0.11,2.1,0.33
		c0.67,0.22,1.19,0.74,1.57,1.57c0.38,0.83,0.56,2.04,0.56,3.62V262c-0.04,0.04-0.23,0.27-0.56,0.68c-0.34,0.42-0.64,0.75-0.92,1.01
		s-0.79,0.59-1.54,1.01c-0.75,0.41-1.58,0.74-2.49,0.98s-2.13,0.45-3.67,0.65s-3.28,0.3-5.21,0.3c-6.08,0-10.45-1.31-13.1-3.94
		c-2.65-2.63-3.97-7-3.97-13.13c0-2.37,0.32-4.49,0.95-6.37c0.63-1.88,1.47-3.41,2.52-4.59c1.05-1.19,2.28-2.17,3.7-2.96
		c1.42-0.79,2.86-1.34,4.33-1.66c1.46-0.32,2.98-0.47,4.56-0.47c3.04,0,5.21,0.47,6.52,1.42V220.51z M552.45,250.14v-8.42
		c-0.51-0.16-1.08-0.3-1.69-0.42c-0.61-0.12-1.37-0.21-2.28-0.27s-1.77-0.05-2.58,0.03c-0.81,0.08-1.65,0.32-2.52,0.71
		s-1.62,0.92-2.25,1.57c-0.63,0.65-1.15,1.56-1.54,2.73c-0.4,1.17-0.59,2.54-0.59,4.12c0,1.5,0.24,2.81,0.71,3.91
		c0.47,1.11,1.06,1.96,1.75,2.55c0.69,0.59,1.54,1.04,2.55,1.33c1.01,0.3,1.92,0.47,2.73,0.53c0.81,0.06,1.69,0.04,2.64-0.06
		s1.61-0.19,1.99-0.27c0.38-0.08,0.72-0.16,1.04-0.24h0.06C552.49,257.97,552.49,255.36,552.45,250.14z"/>
	<path class="st2" d="M588.37,266.21c-1.5,0.04-2.79,0.05-3.85,0.03c-1.07-0.02-2-0.22-2.79-0.59c-0.79-0.38-1.51-1.04-2.16-1.98
		c-0.65-0.95-1.33-2.33-2.04-4.15c-1.42-3.48-2.88-7.27-4.36-11.38c-1.48-4.11-2.6-7.34-3.35-9.69s-1.13-3.55-1.13-3.59
		c0.04,0,0.33-0.1,0.86-0.3c0.53-0.2,1.09-0.37,1.66-0.5c0.57-0.14,1.27-0.21,2.1-0.21c0.83,0,1.61,0.13,2.34,0.38
		c0.73,0.26,1.48,0.75,2.25,1.48c0.77,0.73,1.41,1.71,1.93,2.93c1.3,3.71,3.2,9.29,5.69,16.71c2.92-8.69,4.9-14.52,5.93-17.48
		c0.51-1.18,1.16-2.15,1.93-2.9c0.77-0.75,1.52-1.25,2.25-1.48c0.73-0.24,1.51-0.37,2.34-0.39c0.83-0.02,1.52,0.05,2.07,0.21
		c0.55,0.16,1.11,0.33,1.66,0.5c0.55,0.18,0.85,0.27,0.89,0.27c-3.71,10.75-7.17,19.99-10.37,27.74c-0.08,0.16-0.16,0.36-0.24,0.59
		c-0.32,0.75-0.55,1.3-0.71,1.66c-0.16,0.36-0.38,0.73-0.65,1.13c-0.28,0.4-0.59,0.66-0.95,0.8S588.88,266.21,588.37,266.21z"/>
	<path class="st2" d="M610.71,229.94c-0.91-0.95-1.36-2.07-1.36-3.38s0.46-2.42,1.39-3.35c0.93-0.93,2.04-1.39,3.35-1.39
		s2.42,0.46,3.35,1.39c0.93,0.93,1.39,2.04,1.39,3.35s-0.46,2.42-1.39,3.35c-0.93,0.93-2.04,1.39-3.35,1.39
		S611.66,230.85,610.71,229.94z M618.47,239.24c0-1.94-0.32-3.33-0.95-4.18s-1.35-1.27-2.16-1.27c-0.81,0-1.8-0.05-2.96-0.15
		c-1.17-0.1-2.1-0.4-2.82-0.92v33.48c2.88,0.16,5.11-0.13,6.67-0.86c1.56-0.73,2.3-2.28,2.22-4.65V239.24z"/>
	<path class="st2" d="M652.9,241.67c-1.23-0.04-2.82-0.15-4.77-0.33c-1.96-0.18-3.38-0.28-4.27-0.3c-0.89-0.02-2.34,0.03-4.36,0.15
		c-0.51,0.04-0.97,0.12-1.36,0.24c-1.5,0.44-2.17,1.13-2.01,2.07c0.12,0.59,0.51,0.93,1.18,1.01c2.02,0.32,3.86,0.7,5.54,1.16
		c1.68,0.46,3.09,0.93,4.24,1.42c1.15,0.49,2.18,1.04,3.11,1.63c0.93,0.59,1.66,1.18,2.19,1.75c0.53,0.57,1.01,1.15,1.42,1.72
		c0.42,0.57,0.68,1.12,0.8,1.63c0.12,0.51,0.24,1,0.36,1.45c0.12,0.45,0.15,0.83,0.09,1.13c-0.06,0.3-0.07,0.52-0.03,0.68v0.12
		c0,3.36-1.4,5.76-4.21,7.2c-2.81,1.44-7.17,2.16-13.1,2.16c-1.58,0-2.95-0.17-4.12-0.5c-1.17-0.33-2.07-0.73-2.73-1.18
		c-0.65-0.45-1.17-1.01-1.54-1.66c-0.38-0.65-0.62-1.24-0.74-1.78c-0.12-0.53-0.17-1.09-0.15-1.66c0.02-0.57,0.05-0.97,0.09-1.19
		c0.04-0.22,0.08-0.37,0.12-0.44c1.22,0.04,2.82,0.15,4.77,0.33c1.96,0.18,3.38,0.28,4.27,0.3c0.89,0.02,2.34-0.03,4.36-0.15
		c1.22-0.12,2.19-0.33,2.9-0.65c0.71-0.32,1.12-0.65,1.21-1.01c0.1-0.36,0.04-0.71-0.18-1.07c-0.22-0.36-0.58-0.68-1.1-0.98
		c-0.51-0.3-1.11-0.52-1.78-0.68c-1.03-0.32-2.32-0.63-3.88-0.95c-1.56-0.32-2.86-0.57-3.88-0.77c-1.03-0.2-2.13-0.53-3.32-1.01
		c-1.18-0.47-2.14-1.04-2.87-1.69c-0.73-0.65-1.34-1.57-1.84-2.75c-0.5-1.19-0.76-2.59-0.8-4.21c0-0.08,0-0.16,0-0.24
		c0-3.36,1.4-5.76,4.21-7.2c2.8-1.44,7.17-2.16,13.1-2.16c1.58,0,2.95,0.17,4.12,0.5s2.07,0.73,2.73,1.18
		c0.65,0.46,1.17,1.01,1.54,1.66c0.38,0.65,0.62,1.24,0.74,1.78c0.12,0.53,0.17,1.09,0.15,1.66c-0.02,0.57-0.05,0.97-0.09,1.19
		C652.98,241.44,652.94,241.59,652.9,241.67z"/>
	<path class="st2" d="M661.91,249.79c-0.04-0.24-0.07-0.55-0.09-0.95c-0.02-0.39,0.04-1.17,0.18-2.31c0.14-1.15,0.36-2.24,0.68-3.29
		c0.32-1.05,0.87-2.2,1.66-3.47c0.79-1.26,1.77-2.35,2.93-3.26c1.17-0.91,2.74-1.67,4.71-2.28c1.98-0.61,4.23-0.92,6.76-0.92
		c1.78,0,3.42,0.14,4.92,0.41c1.5,0.28,2.79,0.65,3.88,1.13c1.09,0.47,2.05,1.07,2.9,1.78c0.85,0.71,1.55,1.41,2.1,2.1
		c0.55,0.69,1.02,1.51,1.39,2.46c0.38,0.95,0.66,1.77,0.86,2.46c0.2,0.69,0.34,1.5,0.42,2.43c0.08,0.93,0.13,1.63,0.15,2.1
		c0.02,0.47,0.02,1.08,0,1.81c-0.02,0.73-0.03,1.14-0.03,1.22c0,0.63-0.02,1.21-0.06,1.72c-0.04,0.51-0.16,1.32-0.36,2.43
		c-0.2,1.11-0.47,2.09-0.83,2.96s-0.92,1.82-1.69,2.84c-0.77,1.03-1.68,1.89-2.73,2.58s-2.41,1.27-4.09,1.75
		c-1.68,0.47-3.57,0.71-5.66,0.71c-2.17,0-4.11-0.14-5.81-0.42c-1.7-0.28-3.14-0.64-4.33-1.1s-2.22-1.08-3.11-1.87
		c-0.89-0.79-1.61-1.6-2.16-2.43c-0.55-0.83-1.01-1.86-1.36-3.08c-0.36-1.22-0.62-2.4-0.8-3.53S662.03,251.33,661.91,249.79z
		 M670.74,250.32c0.12,1.38,0.29,2.48,0.5,3.29c0.22,0.81,0.61,1.61,1.19,2.4c0.57,0.79,1.43,1.36,2.58,1.72
		c1.15,0.36,2.61,0.53,4.39,0.53c1.38,0,2.57-0.22,3.56-0.65c0.99-0.43,1.72-0.93,2.19-1.48c0.47-0.55,0.85-1.22,1.13-2.01
		c0.28-0.79,0.43-1.38,0.47-1.78c0.04-0.39,0.06-0.83,0.06-1.3c0-0.04,0-0.25,0-0.62c0-0.38,0-0.69,0-0.95
		c0-0.26-0.02-0.64-0.06-1.16c-0.04-0.51-0.11-0.96-0.21-1.33c-0.1-0.38-0.24-0.82-0.42-1.33c-0.18-0.51-0.4-0.96-0.65-1.33
		c-0.26-0.38-0.59-0.76-1.01-1.16c-0.42-0.39-0.88-0.72-1.39-0.98c-0.51-0.26-1.14-0.46-1.87-0.62c-0.73-0.16-1.53-0.24-2.4-0.24
		c-1.58,0-2.92,0.22-4.03,0.65c-1.11,0.43-1.92,0.94-2.43,1.51c-0.51,0.57-0.91,1.32-1.19,2.25c-0.28,0.93-0.42,1.65-0.44,2.16
		c-0.02,0.51-0.01,1.17,0.03,1.96C670.74,250.09,670.74,250.24,670.74,250.32z"/>
	<path class="st2" d="M725.5,233.31c-0.04,0.08-0.03,0.49,0.03,1.24c0.06,0.75,0.05,1.47-0.03,2.16c-0.08,0.69-0.24,1.43-0.47,2.22
		s-0.72,1.42-1.45,1.9c-0.73,0.47-1.67,0.71-2.81,0.71c-1.66,0-2.94,0.06-3.85,0.18c-0.91,0.12-1.72,0.42-2.43,0.89
		c-0.71,0.47-1.19,1.15-1.42,2.01c-0.24,0.87-0.36,2.06-0.36,3.56v18.96c-0.71-0.51-1.65-0.92-2.81-1.21
		c-1.17-0.3-2.15-0.52-2.96-0.68c-0.81-0.16-1.53-0.62-2.16-1.39c-0.63-0.77-0.95-1.89-0.95-3.35v-15.88c0-0.24,0.01-0.56,0.03-0.98
		c0.02-0.42,0.09-0.99,0.21-1.72c0.12-0.73,0.32-1.46,0.59-2.19c0.28-0.73,0.69-1.49,1.25-2.28c0.55-0.79,1.22-1.48,2.01-2.07
		c0.79-0.59,1.81-1.09,3.05-1.48c1.25-0.39,2.64-0.59,4.18-0.59c2.65,0,4.6,0,5.87,0s1.96,0,2.07,0c0.12,0,0.35,0,0.68,0
		C724.08,233.31,724.67,233.31,725.5,233.31z"/>
	<path class="st2" d="M746.77,264.6h7.94l-5.1,11.2c-1.5,1.62-3.32,2.43-5.45,2.43c-0.95,0-1.77-0.25-2.46-0.74
		c-0.69-0.5-1.16-0.98-1.39-1.45l-0.36-0.77l6.52-12.98c-0.08-0.2-0.16-0.42-0.24-0.65c-1.42-3.48-3.34-7.58-5.75-12.3
		c-2.41-4.72-4.14-8.03-5.19-9.93c-1.05-1.9-1.89-3.4-2.52-4.5c1.26-0.39,2.21-0.67,2.84-0.83c0.63-0.16,1.41-0.23,2.34-0.21
		c0.93,0.02,1.8,0.15,2.61,0.38c0.81,0.24,1.63,0.72,2.46,1.45c0.83,0.73,1.5,1.71,2.02,2.93c0.55,1.58,1.33,3.5,2.34,5.75
		c1.01,2.25,1.89,4.13,2.64,5.63c0.75,1.5,1.13,2.27,1.13,2.31c2.65-6.68,4.48-11.5,5.51-14.46c0.51-1.18,1.17-2.14,1.99-2.87
		c0.81-0.73,1.61-1.21,2.4-1.42c0.79-0.22,1.63-0.32,2.52-0.3c0.89,0.02,1.65,0.12,2.28,0.3s1.23,0.37,1.81,0.56
		c0.57,0.2,0.88,0.3,0.92,0.3c-3.44,6.91-6.76,14.26-9.96,22.05c-0.63,1.46-1.39,2.73-2.28,3.79c-0.89,1.07-1.72,1.87-2.49,2.4
		c-0.77,0.53-1.66,0.96-2.67,1.27c-1.01,0.32-1.8,0.5-2.37,0.56C748.24,264.58,747.56,264.6,746.77,264.6z"/>
</g>
<g>
	<path class="st0" d="M336.62,99.08h8.95c0,0,7.95-0.61,7.95,6.12c0,7.16,0,14.16,0,14.16h-16.9l0.26,94.9h-17.5
		c0,0-9.76,1.15-9.76-13.68c0-17.24,0-130.74,0-130.74s-3.01-28.75,27.15-28.75l25.66,0.1l0.01,6.42
		c0.01,7.36-5.92,13.36-13.29,13.42h0c0,0-12.38-0.48-12.38,9.28C336.76,73.52,336.62,99.08,336.62,99.08z"/>
	<path class="st0" d="M367.14,213.86v-76.59c0-2.59,0.86-4.87,2.58-6.84c1.72-1.97,4.01-2.96,6.88-2.96h12.07v76.59
		c0,2.59-0.94,4.87-2.83,6.84c-1.89,1.97-4.07,2.96-6.54,2.96H367.14z M373.64,98.18h15.54c0.06,0,0.08,0.03,0.08,0.08v15.79
		c0,2.25-1.15,3.83-3.46,4.73c-0.56,0.11-1.1,0.17-1.6,0.17h-15.87c-0.06,0-0.08-0.03-0.08-0.08V103.5c0-2.59,1.18-4.28,3.55-5.07
		C372.29,98.26,372.91,98.18,373.64,98.18z"/>
	<path class="st0" d="M472.94,202.88c0,3.15-0.91,5.63-2.71,7.43c-2.37,2.42-5.06,3.63-8.05,3.63h-11.53v-66.88
		c0-5.46-3.84-8.19-11.53-8.19c-7.68,0-11.53,2.73-11.53,8.19v55.81c0,3.15-0.91,5.63-2.71,7.43c-1.75,2.42-4.12,3.63-7.12,3.63
		H405.3V148c0-14.02,11.27-21.03,33.82-21.03c22.55,0,33.82,7.01,33.82,21.03V202.88z"/>
</g>
<g>
	<path class="st3" d="M716.29,202.88c0,3.15-0.91,5.63-2.71,7.43c-2.37,2.42-5.06,3.63-8.05,3.63H694v-66.88
		c0-5.46-3.84-8.19-11.53-8.19c-7.68,0-11.53,2.73-11.53,8.19v55.81c0,3.15-0.91,5.63-2.71,7.43c-1.75,2.42-4.12,3.63-7.12,3.63
		h-12.46V148c0-14.02,11.27-21.03,33.82-21.03c22.55,0,33.82,7.01,33.82,21.03V202.88z"/>
	<path class="st3" d="M522.67,127.14c12.95,0,21.9,2.51,26.85,7.52c4.67,4.5,7.01,11.74,7.01,21.7v0.34h-13.68
		c-2.2,0-4.19-0.99-6-2.96c-1.18-1.63-1.77-3.35-1.77-5.15v-0.76c0-3.94-1.75-6.5-5.24-7.68c-1.86-0.56-4.02-0.84-6.5-0.84
		c-7.82,0-11.74,2.76-11.74,8.26v45.79c0,3.71,1.75,6.13,5.24,7.25c1.75,0.56,3.69,0.84,5.83,0.84h1.18c5.29,0,8.75-1.43,10.39-4.29
		c0.56-1.12,0.84-2.44,0.84-3.95v-3.78c0-2.92,1.29-5.27,3.88-7.06c1.29-0.73,2.79-1.09,4.48-1.09h13.09v0.42
		c0,10.58-1.8,18.1-5.4,22.55c-0.17,0.34-0.93,1.18-2.28,2.53c-4.95,4.73-13.68,7.09-26.18,7.09c-14.19,0-24.04-3.12-29.55-9.37
		c-2.76-3.26-4.14-7.32-4.14-12.16v-43.66c0-9.79,5.57-16.3,16.72-19.51C510.66,127.82,516.31,127.14,522.67,127.14z"/>
	<path class="st3" d="M632.53,148.76v18.07c0,2.98-0.94,5.38-2.83,7.18s-4.04,2.7-6.46,2.7H587.1v17.56c0,5.52,3.72,8.28,11.15,8.28
		c7.82,0,11.74-2.76,11.74-8.28v-1.19c0-5.26,4.27-9.53,9.53-9.53h13.01v9.71c0,14.02-11.43,21.03-34.28,21.03
		c-10.25,0-18.35-1.79-24.32-5.36c-5.97-3.57-8.95-8.8-8.95-15.66v-44.5c0-6.81,2.98-12.09,8.95-15.83
		c5.97-3.74,14.07-5.62,24.32-5.62C621.1,127.31,632.53,134.46,632.53,148.76z M587.19,147.91v15.62h23.05v-15.62
		c0-5.85-3.94-8.78-11.82-8.78C590.93,139.13,587.19,142.06,587.19,147.91z"/>
	<path class="st3" d="M727.01,139.25c-2.59,0-4.94-2.21-4.94-4.94v-6.68l11.17,0.01v-18.5c0-9.99,9.72-10.2,9.72-10.2h12.25
		l-0.04,28.36l0,0.32l6.26,0c2.73,0,4.94,2.21,4.94,4.94v6.68l-11.22,0.06l0,3.53l0.01,11.58c0,0,0.07,37.68,0,39.86
		c-0.26,8,11.11,8.65,11.11,8.65l-0.13,11.02c-8.21-0.48-19.37-2.68-19.37-2.68c-14.01-2.81-13.66-16.17-13.66-16.17v-41.33
		l0.13-14.46"/>
</g>
<path class="st3" d="M190.89,223.38l36.28-37.08c17.9-18.3,17.9-47.54,0-65.84l-36.28-37.08l0-50.42c-0.04-1.74,0.6-3.49,1.93-4.81
	c2.57-2.56,6.72-2.55,9.27,0.02l57.9,57.64c37.43,37.27,37.43,97.87,0,135.14l-57.79,57.54c-1.19,1.26-2.89,2.05-4.76,2.05
	c-3.62,0-6.56-2.94-6.56-6.56V223.38z"/>
<path class="st0" d="M181.19,83.39l-36.28,37.08c-17.9,18.3-17.9,47.54,0,65.84l36.28,37.08l0,50.42c0.04,1.74-0.6,3.49-1.93,4.81
	c-2.57,2.56-6.72,2.55-9.27-0.02l-57.9-57.64c-37.43-37.27-37.43-97.87,0-135.14l57.79-57.54c1.19-1.26,2.89-2.05,4.76-2.05
	c3.62,0,6.56,2.94,6.56,6.56V83.39z M155.87,155.25c-7.82,7.82-7.82,20.49,0,28.31c7.82,7.82,20.49,7.82,28.31,0l32.03-32.03
	c7.82-7.82,7.82-20.49,0-28.31c-7.82-7.82-20.49-7.82-28.31,0L155.87,155.25z"/>
</svg>
