<?xml version="1.0" encoding="UTF-8" standalone="no"?>
<!-- Generator: Adobe Illustrator 23.0.1, SVG Export Plug-In . SVG Version: 6.00 Build 0)  -->

<svg
   xmlns:dc="http://purl.org/dc/elements/1.1/"
   xmlns:cc="http://creativecommons.org/ns#"
   xmlns:rdf="http://www.w3.org/1999/02/22-rdf-syntax-ns#"
   xmlns:svg="http://www.w3.org/2000/svg"
   xmlns="http://www.w3.org/2000/svg"
   xmlns:sodipodi="http://sodipodi.sourceforge.net/DTD/sodipodi-0.dtd"
   xmlns:inkscape="http://www.inkscape.org/namespaces/inkscape"
   version="1.1"
   id="Layer_1"
   x="0px"
   y="0px"
   viewBox="0 0 682.36248 255.4"
   xml:space="preserve"
   sodipodi:docname="bureau-de-change.svg"
   width="682.36249"
   height="255.39999"
   inkscape:version="0.92.4 (unknown)"><metadata
   id="metadata61"><rdf:RDF><cc:Work
       rdf:about=""><dc:format>image/svg+xml</dc:format><dc:type
         rdf:resource="http://purl.org/dc/dcmitype/StillImage" /></cc:Work></rdf:RDF></metadata><defs
   id="defs59" /><sodipodi:namedview
   pagecolor="#ffffff"
   bordercolor="#666666"
   borderopacity="1"
   objecttolerance="10"
   gridtolerance="10"
   guidetolerance="10"
   inkscape:pageopacity="0"
   inkscape:pageshadow="2"
   inkscape:window-width="1910"
   inkscape:window-height="1002"
   id="namedview57"
   showgrid="false"
   inkscape:zoom="2.3807963"
   inkscape:cx="149.88556"
   inkscape:cy="114.98245"
   inkscape:window-x="1920"
   inkscape:window-y="36"
   inkscape:window-maximized="0"
   inkscape:current-layer="Layer_1" />
<style
   type="text/css"
   id="style2">
	.st0{fill:#161341;}
	.st1{fill:#FFF200;}
	.st2{fill:#4E4F51;}
	.st3{fill:#F47522;}
	.st4{opacity:0.2;fill:#504D50;}
	.st5{opacity:0.4;fill:#504D50;}
	.st6{opacity:0.6;fill:#504D50;}
	.st7{opacity:0.8;fill:#504D50;}
	.st8{fill:#4A4F54;}
	.st9{opacity:0.2;fill:#F37021;}
	.st10{opacity:0.4;fill:#F37021;}
	.st11{opacity:0.6;fill:#F37021;}
	.st12{opacity:0.8;fill:#F37021;}
	.st13{fill:#F37021;}
	.st14{opacity:0.2;fill:#161341;}
	.st15{opacity:0.4;fill:#161341;}
	.st16{opacity:0.6;fill:#161341;}
	.st17{opacity:0.8;fill:#161341;}
	.st18{fill:#1F1646;}
	.st19{fill:#CCC9CA;}
	.st20{fill:#A7A2A3;}
	.st21{fill:#938D8F;}
	.st22{fill:#868183;}
	.st23{fill:#6F6A6C;}
	.st24{fill:#6A6567;}
	.st25{fill:#5A5658;}
	.st26{fill:#FEDEC7;}
	.st27{fill:#FCC198;}
	.st28{fill:#FAB07F;}
	.st29{fill:#F9A56F;}
	.st30{fill:#F78F4F;}
	.st31{fill:#F68A46;}
	.st32{fill:#F47A2E;}
	.st33{fill:#B8B3C2;}
	.st34{fill:#857E97;}
	.st35{fill:#6B6481;}
	.st36{fill:#5C5574;}
	.st37{fill:#3F3A5D;}
	.st38{fill:#383458;}
	.st39{fill:#24204A;}
</style>
<g
   id="g32"
   transform="translate(-66.1375,-24.18)">
	<path
   class="st2"
   d="m 302.7,236.99 -3.35,3.85 c 0.74,-0.26 1.42,-0.63 2.04,-1.12 0.61,-0.48 1.1,-0.88 1.45,-1.2 0.35,-0.32 1.03,-0.6 2.04,-0.87 1,-0.26 2.33,-0.39 3.96,-0.39 1.49,0 2.92,0.15 4.3,0.45 1.38,0.3 2.73,0.82 4.07,1.56 1.34,0.75 2.5,1.67 3.49,2.79 0.99,1.12 1.78,2.56 2.37,4.33 0.59,1.77 0.89,3.77 0.89,6 0,5.77 -1.25,9.89 -3.74,12.36 -2.49,2.47 -6.6,3.71 -12.33,3.71 -1.82,0 -3.46,-0.09 -4.91,-0.28 -1.45,-0.19 -2.6,-0.39 -3.46,-0.61 -0.86,-0.22 -1.64,-0.53 -2.34,-0.92 -0.71,-0.39 -1.19,-0.71 -1.45,-0.95 -0.26,-0.24 -0.55,-0.56 -0.87,-0.95 -0.32,-0.39 -0.49,-0.6 -0.53,-0.64 v -32.93 c 0,-1.49 0.18,-2.62 0.53,-3.4 0.35,-0.78 0.85,-1.27 1.48,-1.48 0.63,-0.2 1.29,-0.31 1.98,-0.31 0.69,0 1.45,-0.06 2.29,-0.17 0.84,-0.11 1.54,-0.37 2.09,-0.78 z m 0,15.97 c -0.04,4.91 -0.04,7.37 0,7.37 h 0.06 c 0.3,0.08 0.62,0.15 0.98,0.22 0.35,0.08 0.98,0.16 1.87,0.25 0.89,0.09 1.72,0.11 2.48,0.06 0.76,-0.05 1.62,-0.22 2.57,-0.5 0.95,-0.28 1.75,-0.7 2.4,-1.26 0.65,-0.56 1.2,-1.36 1.65,-2.4 0.45,-1.04 0.67,-2.27 0.67,-3.68 0,-1.49 -0.19,-2.78 -0.56,-3.88 -0.37,-1.1 -0.86,-1.95 -1.45,-2.57 -0.6,-0.61 -1.3,-1.11 -2.12,-1.48 -0.82,-0.37 -1.61,-0.59 -2.37,-0.67 -0.76,-0.07 -1.57,-0.08 -2.43,-0.03 -0.86,0.06 -1.57,0.14 -2.15,0.25 -0.58,0.11 -1.11,0.24 -1.59,0.39 v 7.93 z"
   id="path4"
   inkscape:connector-curvature="0"
   style="fill:#4e4f51" />
	<path
   class="st2"
   d="m 327.65,257.59 v -20.31 c 1.3,-0.07 2.42,-0.06 3.35,0.03 0.93,0.09 1.8,0.31 2.62,0.64 0.82,0.33 1.43,0.88 1.84,1.65 0.41,0.76 0.59,1.72 0.56,2.87 v 12.05 0.11 2.79 c 0.56,2.75 3.09,3.83 7.59,3.24 2.31,-0.3 3.67,-0.52 4.07,-0.67 -0.11,-0.63 -0.17,-1.38 -0.17,-2.23 v -15.29 c -0.04,-1.15 0.14,-2.11 0.53,-2.87 0.39,-0.76 1,-1.31 1.84,-1.65 0.84,-0.33 1.72,-0.55 2.65,-0.64 0.93,-0.09 2.05,-0.1 3.35,-0.03 v 27.18 c 0,2.42 -3.89,3.72 -11.66,3.91 -11.05,0.29 -16.57,-3.3 -16.57,-10.78 z"
   id="path6"
   inkscape:connector-curvature="0"
   style="fill:#4e4f51" />
	<path
   class="st2"
   d="m 380.39,237.11 c -0.04,0.07 -0.03,0.46 0.03,1.17 0.06,0.71 0.05,1.39 -0.03,2.04 -0.08,0.65 -0.22,1.35 -0.45,2.09 -0.23,0.74 -0.68,1.34 -1.37,1.79 -0.69,0.45 -1.57,0.67 -2.65,0.67 -1.56,0 -2.77,0.06 -3.63,0.17 -0.86,0.11 -1.62,0.39 -2.29,0.84 -0.67,0.45 -1.12,1.08 -1.34,1.9 -0.22,0.82 -0.33,1.93 -0.33,3.35 v 17.86 c -0.67,-0.48 -1.55,-0.86 -2.65,-1.14 -1.1,-0.28 -2.03,-0.49 -2.79,-0.64 -0.76,-0.15 -1.44,-0.59 -2.04,-1.31 -0.6,-0.73 -0.89,-1.78 -0.89,-3.15 v -14.96 c 0,-0.22 0.01,-0.53 0.03,-0.92 0.02,-0.39 0.08,-0.93 0.2,-1.62 0.11,-0.69 0.3,-1.38 0.56,-2.07 0.26,-0.69 0.65,-1.4 1.17,-2.15 0.52,-0.74 1.15,-1.4 1.9,-1.95 0.74,-0.56 1.7,-1.02 2.87,-1.4 1.17,-0.37 2.48,-0.56 3.93,-0.56 2.49,0 4.33,0 5.53,0 1.19,0 1.84,0 1.95,0 0.11,0 0.33,0 0.64,0 0.31,0 0.86,-0.01 1.65,-0.01 z"
   id="path8"
   inkscape:connector-curvature="0"
   style="fill:#4e4f51" />
	<path
   class="st2"
   d="m 387.7,257.36 c 0,1.15 0.58,2.02 1.73,2.6 1.15,0.58 2.61,0.88 4.38,0.89 1.77,0.02 3.5,-0.06 5.19,-0.22 1.69,-0.17 3.29,-0.36 4.8,-0.59 1.51,-0.22 2.37,-0.33 2.6,-0.33 0.15,3.24 -0.49,5.52 -1.93,6.86 -1.43,1.34 -4.31,2.01 -8.62,2.01 -5.95,0 -10.33,-1.21 -13.12,-3.63 -2.79,-2.42 -4.19,-6.6 -4.19,-12.56 0,-2.98 0.38,-5.5 1.14,-7.56 0.76,-2.07 1.88,-3.64 3.35,-4.72 1.47,-1.08 3.11,-1.84 4.91,-2.29 1.8,-0.45 3.92,-0.67 6.33,-0.67 4.61,0 8.01,0.98 10.19,2.93 2.18,1.95 3.26,5.07 3.26,9.35 0,1.64 -0.32,2.95 -0.95,3.93 -0.63,0.99 -1.46,1.65 -2.48,1.98 -1.02,0.33 -2.25,0.58 -3.68,0.73 -1.43,0.15 -2.85,0.2 -4.24,0.14 -1.39,-0.06 -2.9,0.01 -4.52,0.2 -1.61,0.19 -3,0.51 -4.15,0.95 z m -0.28,-5.86 c 0.63,-0.45 1.67,-0.74 3.1,-0.89 1.43,-0.15 2.77,-0.23 4.02,-0.25 1.25,-0.02 2.35,-0.28 3.32,-0.78 0.97,-0.5 1.43,-1.29 1.4,-2.37 0,-0.97 -0.76,-1.77 -2.29,-2.4 -2.12,-0.89 -4.19,-0.97 -6.2,-0.22 -2.79,1 -3.91,3.31 -3.35,6.91 z"
   id="path10"
   inkscape:connector-curvature="0"
   style="fill:#4e4f51" />
	<path
   class="st2"
   d="m 410.86,244.92 c 0,-0.11 -0.02,-0.26 -0.06,-0.45 -0.04,-0.19 -0.05,-0.55 -0.03,-1.09 0.02,-0.54 0.07,-1.05 0.17,-1.54 0.09,-0.48 0.28,-1.03 0.56,-1.65 0.28,-0.61 0.65,-1.13 1.12,-1.56 0.46,-0.43 1.1,-0.79 1.9,-1.09 0.8,-0.3 1.74,-0.45 2.82,-0.45 0.33,0 0.86,0 1.56,0 0.97,-0.04 1.96,-0.04 2.99,0 1.03,0.04 2.05,0.08 3.07,0.14 1.02,0.06 2.02,0.21 2.99,0.47 0.97,0.26 1.89,0.58 2.76,0.95 0.87,0.37 1.67,0.9 2.4,1.59 0.73,0.69 1.36,1.48 1.9,2.37 0.54,0.89 0.96,1.99 1.26,3.29 0.3,1.3 0.45,2.77 0.45,4.41 v 0.39 0.39 0.45 0.39 0.45 0.45 0.5 0.56 0.56 0.67 0.89 0.45 c 0,1.53 -0.17,2.91 -0.5,4.16 -0.33,1.25 -0.75,2.26 -1.26,3.04 -0.5,0.78 -1.13,1.47 -1.87,2.07 -0.75,0.6 -1.44,1.03 -2.09,1.31 -0.65,0.28 -1.41,0.5 -2.26,0.67 -0.86,0.17 -1.52,0.27 -1.98,0.31 -0.46,0.04 -1.01,0.06 -1.65,0.06 h -7.7 c -0.11,0 -0.28,-0.01 -0.5,-0.03 -0.22,-0.02 -0.64,-0.07 -1.26,-0.17 -0.61,-0.09 -1.2,-0.23 -1.76,-0.42 -0.56,-0.19 -1.18,-0.49 -1.87,-0.92 -0.69,-0.43 -1.27,-0.93 -1.76,-1.51 -0.48,-0.58 -0.89,-1.33 -1.23,-2.26 -0.33,-0.93 -0.5,-1.97 -0.5,-3.13 0,-2.05 0.26,-3.77 0.78,-5.16 0.52,-1.39 1.31,-2.47 2.37,-3.24 1.06,-0.77 2.24,-1.29 3.54,-1.59 1.3,-0.3 2.88,-0.45 4.74,-0.45 3.24,0 5.44,-0.21 6.61,-0.64 1.17,-0.43 1.76,-1.09 1.76,-1.98 0,-1.26 -1.22,-2.12 -3.66,-2.57 -2.44,-0.45 -5.02,-0.54 -7.76,-0.28 -2.73,0.28 -4.75,0.67 -6.05,1.19 z m 17.69,8.43 c -0.15,0.19 -0.36,0.41 -0.64,0.67 -0.28,0.26 -0.9,0.6 -1.87,1.03 -0.97,0.43 -1.97,0.64 -3.01,0.64 -1.82,0 -3.3,0.22 -4.44,0.67 -1.14,0.45 -1.7,1.08 -1.7,1.9 0,0.97 0.41,1.69 1.23,2.18 0.82,0.48 2.46,0.73 4.91,0.73 1,0 1.78,-0.01 2.32,-0.03 0.54,-0.02 1.04,-0.16 1.51,-0.42 0.46,-0.26 0.79,-0.5 0.98,-0.73 0.19,-0.22 0.34,-0.7 0.47,-1.42 0.13,-0.73 0.2,-1.42 0.22,-2.09 0.01,-0.68 0.02,-1.72 0.02,-3.13 z"
   id="path12"
   inkscape:connector-curvature="0"
   style="fill:#4e4f51" />
	<path
   class="st2"
   d="m 440.6,257.59 v -20.31 c 1.3,-0.07 2.42,-0.06 3.35,0.03 0.93,0.09 1.8,0.31 2.62,0.64 0.82,0.33 1.43,0.88 1.84,1.65 0.41,0.76 0.59,1.72 0.56,2.87 v 12.05 0.11 2.79 c 0.56,2.75 3.09,3.83 7.59,3.24 2.31,-0.3 3.67,-0.52 4.07,-0.67 -0.11,-0.63 -0.17,-1.38 -0.17,-2.23 v -15.29 c -0.04,-1.15 0.14,-2.11 0.53,-2.87 0.39,-0.76 1,-1.31 1.84,-1.65 0.84,-0.33 1.72,-0.55 2.65,-0.64 0.93,-0.09 2.05,-0.1 3.35,-0.03 v 27.18 c 0,2.42 -3.89,3.72 -11.66,3.91 -11.04,0.29 -16.57,-3.3 -16.57,-10.78 z"
   id="path14"
   inkscape:connector-curvature="0"
   style="fill:#4e4f51" />
	<path
   class="st2"
   d="m 505.56,225.05 c 0.56,0.41 1.26,0.67 2.09,0.78 0.84,0.11 1.6,0.17 2.29,0.17 0.69,0 1.35,0.1 1.98,0.31 0.63,0.21 1.13,0.7 1.48,1.48 0.35,0.78 0.53,1.92 0.53,3.4 v 32.93 c -0.04,0.04 -0.21,0.25 -0.53,0.64 -0.32,0.39 -0.6,0.71 -0.86,0.95 -0.26,0.24 -0.75,0.56 -1.45,0.95 -0.71,0.39 -1.49,0.7 -2.34,0.92 -0.86,0.22 -2.01,0.43 -3.46,0.61 -1.45,0.19 -3.09,0.28 -4.91,0.28 -5.73,0 -9.84,-1.24 -12.33,-3.71 -2.49,-2.47 -3.74,-6.59 -3.74,-12.36 0,-2.23 0.3,-4.23 0.89,-6 0.59,-1.77 1.39,-3.21 2.37,-4.33 0.99,-1.12 2.15,-2.05 3.49,-2.79 1.34,-0.74 2.7,-1.26 4.07,-1.56 1.38,-0.3 2.81,-0.45 4.3,-0.45 2.86,0 4.91,0.45 6.14,1.34 v -13.56 z m 0,27.91 v -7.92 c -0.48,-0.15 -1.01,-0.28 -1.59,-0.39 -0.58,-0.11 -1.29,-0.2 -2.15,-0.25 -0.86,-0.06 -1.67,-0.05 -2.43,0.03 -0.76,0.08 -1.55,0.3 -2.37,0.67 -0.82,0.37 -1.53,0.87 -2.12,1.48 -0.6,0.61 -1.08,1.47 -1.45,2.57 -0.37,1.1 -0.56,2.39 -0.56,3.88 0,1.41 0.22,2.64 0.67,3.68 0.45,1.04 1,1.84 1.65,2.4 0.65,0.56 1.45,0.98 2.4,1.26 0.95,0.28 1.8,0.45 2.57,0.5 0.77,0.05 1.59,0.04 2.48,-0.06 0.89,-0.09 1.52,-0.18 1.87,-0.25 0.35,-0.07 0.68,-0.15 0.98,-0.22 h 0.06 c 0.03,-0.02 0.03,-2.47 -0.01,-7.38 z"
   id="path16"
   inkscape:connector-curvature="0"
   style="fill:#4e4f51" />
	<path
   class="st2"
   d="m 526.83,257.36 c 0,1.15 0.58,2.02 1.73,2.6 1.15,0.58 2.61,0.88 4.38,0.89 1.77,0.02 3.5,-0.06 5.19,-0.22 1.69,-0.17 3.29,-0.36 4.8,-0.59 1.51,-0.22 2.37,-0.33 2.6,-0.33 0.15,3.24 -0.49,5.52 -1.93,6.86 -1.43,1.34 -4.31,2.01 -8.62,2.01 -5.95,0 -10.33,-1.21 -13.12,-3.63 -2.79,-2.42 -4.19,-6.6 -4.19,-12.56 0,-2.98 0.38,-5.5 1.14,-7.56 0.76,-2.07 1.88,-3.64 3.35,-4.72 1.47,-1.08 3.11,-1.84 4.91,-2.29 1.8,-0.45 3.92,-0.67 6.33,-0.67 4.61,0 8.01,0.98 10.19,2.93 2.18,1.95 3.26,5.07 3.26,9.35 0,1.64 -0.32,2.95 -0.95,3.93 -0.63,0.99 -1.46,1.65 -2.48,1.98 -1.02,0.33 -2.25,0.58 -3.68,0.73 -1.43,0.15 -2.85,0.2 -4.24,0.14 -1.39,-0.06 -2.9,0.01 -4.52,0.2 -1.61,0.19 -3,0.51 -4.15,0.95 z m -0.28,-5.86 c 0.63,-0.45 1.67,-0.74 3.1,-0.89 1.43,-0.15 2.77,-0.23 4.02,-0.25 1.25,-0.02 2.35,-0.28 3.32,-0.78 0.97,-0.5 1.43,-1.29 1.4,-2.37 0,-0.97 -0.76,-1.77 -2.29,-2.4 -2.12,-0.89 -4.19,-0.97 -6.2,-0.22 -2.79,1 -3.91,3.31 -3.35,6.91 z"
   id="path18"
   inkscape:connector-curvature="0"
   style="fill:#4e4f51" />
	<path
   class="st2"
   d="m 587.04,238.17 c 0,0.04 0,0.11 0,0.22 0.48,4.32 -0.99,6.47 -4.41,6.47 -0.41,0 -1.09,-0.01 -2.04,-0.03 -0.95,-0.02 -1.66,-0.03 -2.12,-0.03 -0.47,0 -1.11,0.05 -1.93,0.14 -0.82,0.09 -1.45,0.23 -1.9,0.42 -0.45,0.19 -0.95,0.47 -1.51,0.86 -0.56,0.39 -0.99,0.87 -1.28,1.42 -0.3,0.56 -0.55,1.28 -0.75,2.18 -0.21,0.89 -0.31,1.9 -0.31,3.01 0,1.08 0.09,2.03 0.28,2.85 0.19,0.82 0.42,1.51 0.7,2.07 0.28,0.56 0.7,1.03 1.26,1.42 0.56,0.39 1.12,0.7 1.67,0.92 0.56,0.22 1.31,0.39 2.26,0.5 0.95,0.11 1.82,0.18 2.62,0.2 0.8,0.02 1.85,0.03 3.15,0.03 0.52,0 0.98,0.07 1.37,0.2 0.39,0.13 0.73,0.3 1,0.5 0.28,0.21 0.52,0.47 0.73,0.78 0.2,0.32 0.36,0.63 0.47,0.95 0.11,0.32 0.2,0.66 0.25,1.03 0.06,0.37 0.08,0.72 0.08,1.03 0,0.32 -0.01,0.64 -0.03,0.98 -0.02,0.34 -0.04,0.61 -0.06,0.84 -0.02,0.22 -0.07,0.54 -0.14,0.95 -1.53,0.19 -2.89,0.33 -4.1,0.42 -1.21,0.09 -2.71,0.11 -4.49,0.06 -1.79,-0.06 -3.35,-0.24 -4.69,-0.56 -1.34,-0.32 -2.73,-0.84 -4.19,-1.56 -1.46,-0.72 -2.65,-1.66 -3.6,-2.79 -0.95,-1.13 -1.73,-2.62 -2.34,-4.46 -0.61,-1.84 -0.92,-3.95 -0.92,-6.33 0,-12.46 7.63,-17.47 22.88,-15.01 0.55,0.06 1.24,0.17 2.09,0.32 z"
   id="path20"
   inkscape:connector-curvature="0"
   style="fill:#4e4f51" />
	<path
   class="st2"
   d="m 599.15,238.17 c 1.82,-0.74 4.87,-1.12 9.15,-1.12 2.08,0 3.87,0.35 5.36,1.06 1.49,0.71 2.57,1.52 3.24,2.43 0.67,0.91 1.18,1.95 1.53,3.13 0.35,1.17 0.55,2.05 0.59,2.62 0.04,0.57 0.04,1.07 0,1.48 v 20.31 c -5.58,0.74 -8.37,-0.99 -8.37,-5.19 0,-1.56 0,-3.61 0,-6.14 0.04,-5.54 -0.22,-8.92 -0.78,-10.13 -0.56,-1.21 -2.31,-1.85 -5.25,-1.92 -1.82,0 -3.65,0.33 -5.47,1 v 17.19 c 0.07,2.23 -0.62,3.69 -2.09,4.38 -1.47,0.69 -3.56,0.96 -6.28,0.81 v -43.53 c 0.67,0.48 1.55,0.77 2.65,0.87 1.1,0.09 2.03,0.14 2.79,0.14 0.76,0 1.44,0.4 2.04,1.2 0.59,0.8 0.89,2.11 0.89,3.93 z"
   id="path22"
   inkscape:connector-curvature="0"
   style="fill:#4e4f51" />
	<path
   class="st2"
   d="m 624.94,244.92 c 0,-0.11 -0.02,-0.26 -0.06,-0.45 -0.04,-0.19 -0.05,-0.55 -0.03,-1.09 0.02,-0.54 0.07,-1.05 0.17,-1.54 0.09,-0.48 0.28,-1.03 0.56,-1.65 0.28,-0.61 0.65,-1.13 1.12,-1.56 0.46,-0.43 1.1,-0.79 1.9,-1.09 0.8,-0.3 1.74,-0.45 2.82,-0.45 0.33,0 0.86,0 1.56,0 0.97,-0.04 1.96,-0.04 2.99,0 1.03,0.04 2.05,0.08 3.07,0.14 1.02,0.06 2.02,0.21 2.99,0.47 0.97,0.26 1.89,0.58 2.76,0.95 0.87,0.37 1.67,0.9 2.4,1.59 0.73,0.69 1.36,1.48 1.9,2.37 0.54,0.89 0.96,1.99 1.26,3.29 0.3,1.3 0.45,2.77 0.45,4.41 v 0.39 0.39 0.45 0.39 0.45 0.45 0.5 0.56 0.56 0.67 0.89 0.45 c 0,1.53 -0.17,2.91 -0.5,4.16 -0.33,1.25 -0.75,2.26 -1.26,3.04 -0.5,0.78 -1.13,1.47 -1.87,2.07 -0.75,0.6 -1.44,1.03 -2.09,1.31 -0.65,0.28 -1.41,0.5 -2.26,0.67 -0.86,0.17 -1.52,0.27 -1.98,0.31 -0.46,0.04 -1.01,0.06 -1.65,0.06 h -7.7 c -0.11,0 -0.28,-0.01 -0.5,-0.03 -0.22,-0.02 -0.64,-0.07 -1.26,-0.17 -0.61,-0.09 -1.2,-0.23 -1.76,-0.42 -0.56,-0.19 -1.18,-0.49 -1.87,-0.92 -0.69,-0.43 -1.27,-0.93 -1.76,-1.51 -0.48,-0.58 -0.89,-1.33 -1.23,-2.26 -0.33,-0.93 -0.5,-1.97 -0.5,-3.13 0,-2.05 0.26,-3.77 0.78,-5.16 0.52,-1.39 1.31,-2.47 2.37,-3.24 1.06,-0.77 2.24,-1.29 3.54,-1.59 1.3,-0.3 2.88,-0.45 4.74,-0.45 3.24,0 5.44,-0.21 6.61,-0.64 1.17,-0.43 1.76,-1.09 1.76,-1.98 0,-1.26 -1.22,-2.12 -3.66,-2.57 -2.44,-0.45 -5.02,-0.54 -7.76,-0.28 -2.73,0.28 -4.75,0.67 -6.05,1.19 z m 17.69,8.43 c -0.15,0.19 -0.36,0.41 -0.64,0.67 -0.28,0.26 -0.9,0.6 -1.87,1.03 -0.97,0.43 -1.97,0.64 -3.01,0.64 -1.82,0 -3.3,0.22 -4.44,0.67 -1.14,0.45 -1.7,1.08 -1.7,1.9 0,0.97 0.41,1.69 1.23,2.18 0.82,0.48 2.46,0.73 4.91,0.73 1,0 1.78,-0.01 2.32,-0.03 0.54,-0.02 1.04,-0.16 1.51,-0.42 0.46,-0.26 0.79,-0.5 0.98,-0.73 0.19,-0.22 0.34,-0.7 0.47,-1.42 0.13,-0.73 0.2,-1.42 0.22,-2.09 0.01,-0.68 0.02,-1.72 0.02,-3.13 z"
   id="path24"
   inkscape:connector-curvature="0"
   style="fill:#4e4f51" />
	<path
   class="st2"
   d="m 682.92,247.76 v 20.31 c -1.3,0.07 -2.42,0.06 -3.35,-0.03 -0.93,-0.09 -1.81,-0.31 -2.65,-0.64 -0.84,-0.33 -1.45,-0.88 -1.84,-1.65 -0.39,-0.76 -0.57,-1.72 -0.53,-2.87 v -12.05 -0.11 -2.79 c -0.56,-2.71 -3.09,-3.79 -7.59,-3.24 -2.34,0.3 -3.7,0.52 -4.07,0.67 0.11,0.63 0.17,1.38 0.17,2.23 v 15.29 c 0.04,1.15 -0.15,2.11 -0.56,2.87 -0.41,0.76 -1.02,1.31 -1.84,1.65 -0.82,0.34 -1.69,0.55 -2.62,0.64 -0.93,0.09 -2.05,0.1 -3.35,0.03 V 240.9 c 0,-2.42 3.89,-3.72 11.66,-3.91 11.01,-0.29 16.53,3.3 16.57,10.77 z"
   id="path26"
   inkscape:connector-curvature="0"
   style="fill:#4e4f51" />
	<path
   class="st2"
   d="m 708.81,267.3 c -1.53,0.15 -2.89,0.26 -4.1,0.33 -1.21,0.08 -2.61,0.06 -4.21,-0.06 -1.6,-0.11 -3,-0.33 -4.21,-0.64 -1.21,-0.32 -2.45,-0.84 -3.71,-1.56 -1.26,-0.72 -2.31,-1.62 -3.13,-2.68 -0.82,-1.06 -1.49,-2.43 -2.01,-4.1 -0.52,-1.67 -0.78,-3.59 -0.78,-5.75 0,-8.33 3.38,-13.34 10.16,-15.01 3.5,-0.89 8.43,-0.78 14.79,0.33 1.53,0.41 2.6,0.83 3.24,1.26 0.63,0.43 0.95,1.14 0.95,2.15 v 22.99 0.06 c 0.04,0.04 0.06,0.08 0.06,0.11 0.78,2.12 1.03,3.99 0.75,5.61 -0.28,1.62 -0.88,3.01 -1.79,4.19 -0.91,1.17 -2.16,2.13 -3.74,2.87 -1.58,0.74 -3.27,1.29 -5.08,1.65 -1.8,0.35 -3.73,0.53 -5.78,0.53 -1.86,0 -3.49,-0.07 -4.88,-0.2 -1.4,-0.13 -2.44,-0.28 -3.13,-0.45 -0.69,-0.17 -1.25,-0.35 -1.67,-0.56 -0.43,-0.21 -0.67,-0.35 -0.73,-0.45 -0.06,-0.09 -0.1,-0.16 -0.14,-0.2 0,-3.16 0.47,-5.01 1.42,-5.55 0.95,-0.54 3.36,-0.62 7.23,-0.25 0.82,0.07 1.45,0.13 1.9,0.17 3.13,0 5.52,-0.44 7.2,-1.31 1.67,-0.87 2.14,-2.03 1.39,-3.48 z m -1.28,-22.44 c -0.11,0 -0.22,0 -0.33,0 -0.48,0 -1.17,-0.01 -2.06,-0.03 -0.89,-0.02 -1.59,-0.04 -2.09,-0.06 -0.5,-0.02 -1.14,0 -1.93,0.06 -0.79,0.06 -1.41,0.16 -1.87,0.31 -0.47,0.15 -0.98,0.37 -1.54,0.67 -0.56,0.3 -0.99,0.67 -1.28,1.12 -0.3,0.45 -0.55,1.02 -0.75,1.73 -0.21,0.71 -0.31,1.53 -0.31,2.46 0,1.6 0.02,2.73 0.06,3.4 0.04,0.67 0.17,1.48 0.39,2.43 0.22,0.95 0.58,1.58 1.06,1.9 0.48,0.32 1.18,0.63 2.09,0.95 0.91,0.32 2.05,0.44 3.43,0.36 1.38,-0.07 3.09,-0.24 5.13,-0.5 z"
   id="path28"
   inkscape:connector-curvature="0"
   style="fill:#4e4f51" />
	<path
   class="st2"
   d="m 728.46,257.36 c 0,1.15 0.58,2.02 1.73,2.6 1.15,0.58 2.61,0.88 4.38,0.89 1.77,0.02 3.5,-0.06 5.19,-0.22 1.69,-0.17 3.29,-0.36 4.8,-0.59 1.51,-0.22 2.37,-0.33 2.6,-0.33 0.15,3.24 -0.49,5.52 -1.93,6.86 -1.43,1.34 -4.31,2.01 -8.62,2.01 -5.95,0 -10.33,-1.21 -13.12,-3.63 -2.79,-2.42 -4.19,-6.6 -4.19,-12.56 0,-2.98 0.38,-5.5 1.14,-7.56 0.76,-2.07 1.88,-3.64 3.35,-4.72 1.47,-1.08 3.11,-1.84 4.91,-2.29 1.8,-0.45 3.92,-0.67 6.33,-0.67 4.61,0 8.01,0.98 10.19,2.93 2.18,1.95 3.26,5.07 3.26,9.35 0,1.64 -0.32,2.95 -0.95,3.93 -0.63,0.99 -1.46,1.65 -2.48,1.98 -1.02,0.33 -2.25,0.58 -3.68,0.73 -1.43,0.15 -2.85,0.2 -4.24,0.14 -1.39,-0.06 -2.9,0.01 -4.52,0.2 -1.61,0.19 -3,0.51 -4.15,0.95 z m -0.28,-5.86 c 0.63,-0.45 1.67,-0.74 3.1,-0.89 1.43,-0.15 2.77,-0.23 4.02,-0.25 1.25,-0.02 2.35,-0.28 3.32,-0.78 0.97,-0.5 1.43,-1.29 1.4,-2.37 0,-0.97 -0.76,-1.77 -2.29,-2.4 -2.12,-0.89 -4.19,-0.97 -6.2,-0.22 -2.79,1 -3.91,3.31 -3.35,6.91 z"
   id="path30"
   inkscape:connector-curvature="0"
   style="fill:#4e4f51" />
</g>
<g
   id="g40"
   transform="translate(-66.1375,-24.18)">
	<path
   class="st0"
   d="m 318.74,97.03 h 8.95 c 0,0 7.95,-0.61 7.95,6.12 0,7.16 0,14.16 0,14.16 h -16.9 l 0.26,94.9 h -17.5 c 0,0 -9.76,1.15 -9.76,-13.68 0,-17.24 0,-130.74 0,-130.74 0,0 -3.01,-28.75 27.15,-28.75 l 25.66,0.1 0.01,6.42 c 0.01,7.36 -5.92,13.36 -13.29,13.42 v 0 c 0,0 -12.38,-0.48 -12.38,9.28 -0.01,3.21 -0.15,28.77 -0.15,28.77 z"
   id="path34"
   inkscape:connector-curvature="0"
   style="fill:#161341" />
	<path
   class="st0"
   d="m 349.26,211.81 v -76.59 c 0,-2.59 0.86,-4.87 2.58,-6.84 1.72,-1.97 4.01,-2.96 6.88,-2.96 h 12.07 v 76.59 c 0,2.59 -0.94,4.87 -2.83,6.84 -1.89,1.97 -4.07,2.96 -6.54,2.96 z m 6.5,-115.68 h 15.54 c 0.06,0 0.08,0.03 0.08,0.08 V 112 c 0,2.25 -1.15,3.83 -3.46,4.73 -0.56,0.11 -1.1,0.17 -1.6,0.17 h -15.87 c -0.06,0 -0.08,-0.03 -0.08,-0.08 v -15.37 c 0,-2.59 1.18,-4.28 3.55,-5.07 0.49,-0.17 1.11,-0.25 1.84,-0.25 z"
   id="path36"
   inkscape:connector-curvature="0"
   style="fill:#161341" />
	<path
   class="st0"
   d="m 455.06,200.83 c 0,3.15 -0.91,5.63 -2.71,7.43 -2.37,2.42 -5.06,3.63 -8.05,3.63 h -11.53 v -66.88 c 0,-5.46 -3.84,-8.19 -11.53,-8.19 -7.69,0 -11.53,2.73 -11.53,8.19 v 55.81 c 0,3.15 -0.91,5.63 -2.71,7.43 -1.75,2.42 -4.12,3.63 -7.12,3.63 h -12.46 v -65.95 c 0,-14.02 11.27,-21.03 33.82,-21.03 22.55,0 33.82,7.01 33.82,21.03 z"
   id="path38"
   inkscape:connector-curvature="0"
   style="fill:#161341" />
</g>
<g
   id="g50"
   transform="translate(-66.1375,-24.18)">
	<path
   class="st3"
   d="m 698.41,200.83 c 0,3.15 -0.91,5.63 -2.71,7.43 -2.37,2.42 -5.06,3.63 -8.05,3.63 h -11.53 v -66.88 c 0,-5.46 -3.84,-8.19 -11.53,-8.19 -7.68,0 -11.53,2.73 -11.53,8.19 v 55.81 c 0,3.15 -0.91,5.63 -2.71,7.43 -1.75,2.42 -4.12,3.63 -7.12,3.63 h -12.46 v -65.95 c 0,-14.02 11.27,-21.03 33.82,-21.03 22.55,0 33.82,7.01 33.82,21.03 z"
   id="path42"
   inkscape:connector-curvature="0"
   style="fill:#f47522" />
	<path
   class="st3"
   d="m 504.8,125.09 c 12.95,0 21.9,2.51 26.85,7.52 4.67,4.5 7.01,11.74 7.01,21.7 v 0.34 h -13.68 c -2.2,0 -4.19,-0.99 -6,-2.96 -1.18,-1.63 -1.77,-3.35 -1.77,-5.15 v -0.76 c 0,-3.94 -1.75,-6.5 -5.24,-7.68 -1.86,-0.56 -4.02,-0.84 -6.5,-0.84 -7.82,0 -11.74,2.76 -11.74,8.26 v 45.79 c 0,3.71 1.75,6.13 5.24,7.25 1.75,0.56 3.69,0.84 5.83,0.84 h 1.18 c 5.29,0 8.75,-1.43 10.39,-4.29 0.56,-1.12 0.84,-2.44 0.84,-3.95 v -3.78 c 0,-2.92 1.29,-5.27 3.88,-7.06 1.29,-0.73 2.79,-1.09 4.48,-1.09 h 13.09 v 0.42 c 0,10.58 -1.8,18.1 -5.4,22.55 -0.17,0.34 -0.93,1.18 -2.28,2.53 -4.95,4.73 -13.68,7.09 -26.18,7.09 -14.19,0 -24.04,-3.12 -29.55,-9.37 -2.76,-3.26 -4.14,-7.32 -4.14,-12.16 v -43.66 c 0,-9.79 5.57,-16.3 16.72,-19.51 4.95,-1.36 10.6,-2.03 16.97,-2.03 z"
   id="path44"
   inkscape:connector-curvature="0"
   style="fill:#f47522" />
	<path
   class="st3"
   d="m 614.65,146.71 v 18.07 c 0,2.98 -0.94,5.38 -2.83,7.18 -1.89,1.8 -4.04,2.7 -6.46,2.7 h -36.14 v 17.56 c 0,5.52 3.72,8.28 11.15,8.28 7.82,0 11.74,-2.76 11.74,-8.28 v -1.19 c 0,-5.26 4.27,-9.53 9.53,-9.53 h 13.01 v 9.71 c 0,14.02 -11.43,21.03 -34.28,21.03 -10.25,0 -18.35,-1.79 -24.32,-5.36 -5.97,-3.57 -8.95,-8.8 -8.95,-15.66 v -44.5 c 0,-6.81 2.98,-12.09 8.95,-15.83 5.97,-3.74 14.07,-5.62 24.32,-5.62 22.85,-0.01 34.28,7.14 34.28,21.44 z m -45.34,-0.85 v 15.62 h 23.05 v -15.62 c 0,-5.85 -3.94,-8.78 -11.82,-8.78 -7.49,0 -11.23,2.93 -11.23,8.78 z"
   id="path46"
   inkscape:connector-curvature="0"
   style="fill:#f47522" />
	<path
   class="st3"
   d="m 709.14,137.19 c -2.59,0 -4.94,-2.21 -4.94,-4.94 v -6.68 l 11.17,0.01 v -18.5 c 0,-9.99 9.72,-10.2 9.72,-10.2 h 12.25 l -0.04,28.36 v 0.32 h 6.26 c 2.73,0 4.94,2.21 4.94,4.94 v 6.68 l -11.22,0.06 v 3.53 l 0.01,11.58 c 0,0 0.07,37.68 0,39.86 -0.26,8 11.11,8.65 11.11,8.65 l -0.13,11.02 C 740.06,211.4 728.9,209.2 728.9,209.2 714.89,206.39 715.24,193.03 715.24,193.03 V 151.7 l 0.13,-14.46"
   id="path48"
   inkscape:connector-curvature="0"
   style="fill:#f47522" />
</g>
<path
   class="st3"
   d="m 106.8725,197.15 36.28,-37.08 c 17.9,-18.3 17.9,-47.54 0,-65.84 l -36.28,-37.08 V 6.73 c -0.04,-1.74 0.6,-3.49 1.93,-4.81 2.57,-2.56 6.72,-2.55 9.27,0.02 l 57.9,57.64 c 37.43,37.27 37.43,97.87 0,135.14 l -57.79,57.54 c -1.19,1.26 -2.89,2.05 -4.76,2.05 -3.62,0 -6.56,-2.94 -6.56,-6.56 v -50.6 z"
   id="path52"
   inkscape:connector-curvature="0"
   style="fill:#f47522" />
<path
   class="st0"
   d="m 97.1725,57.16 -36.28,37.08 c -17.9,18.3 -17.9,47.54 0,65.84 l 36.28,37.08 v 50.42 c 0.04,1.74 -0.6,3.49 -1.93,4.81 -2.57,2.56 -6.72,2.55 -9.27,-0.02 l -57.9,-57.64 c -37.43,-37.27 -37.43,-97.87 0,-135.14 l 57.79,-57.54 c 1.19,-1.26 2.89,-2.05 4.76,-2.05 3.62,0 6.56,2.94 6.56,6.56 v 50.6 z m -25.32,71.86 c -7.82,7.82 -7.82,20.49 0,28.31 7.82,7.82 20.49,7.82 28.31,0 l 32.03,-32.03 c 7.82,-7.82 7.82,-20.49 0,-28.31 -7.82,-7.82 -20.49,-7.82 -28.31,0 z"
   id="path54"
   inkscape:connector-curvature="0"
   style="fill:#161341" />
</svg>