<?xml version="1.0" encoding="UTF-8" standalone="no"?>
<!-- Generator: Adobe Illustrator 23.0.1, SVG Export Plug-In . SVG Version: 6.00 Build 0)  -->

<svg
   xmlns:dc="http://purl.org/dc/elements/1.1/"
   xmlns:cc="http://creativecommons.org/ns#"
   xmlns:rdf="http://www.w3.org/1999/02/22-rdf-syntax-ns#"
   xmlns:svg="http://www.w3.org/2000/svg"
   xmlns="http://www.w3.org/2000/svg"
   xmlns:sodipodi="http://sodipodi.sourceforge.net/DTD/sodipodi-0.dtd"
   xmlns:inkscape="http://www.inkscape.org/namespaces/inkscape"
   version="1.1"
   id="Layer_1"
   x="0px"
   y="0px"
   viewBox="0 0 682.35247 254.31"
   xml:space="preserve"
   sodipodi:docname="micro-finance.svg"
   width="682.35248"
   height="254.31"
   inkscape:version="0.92.4 (unknown)"><metadata
   id="metadata57"><rdf:RDF><cc:Work
       rdf:about=""><dc:format>image/svg+xml</dc:format><dc:type
         rdf:resource="http://purl.org/dc/dcmitype/StillImage" /></cc:Work></rdf:RDF></metadata><defs
   id="defs55" /><sodipodi:namedview
   pagecolor="#ffffff"
   bordercolor="#666666"
   borderopacity="1"
   objecttolerance="10"
   gridtolerance="10"
   guidetolerance="10"
   inkscape:pageopacity="0"
   inkscape:pageshadow="2"
   inkscape:window-width="1910"
   inkscape:window-height="1002"
   id="namedview53"
   showgrid="false"
   inkscape:zoom="1.1435293"
   inkscape:cx="-85.464302"
   inkscape:cy="113.8015"
   inkscape:window-x="1920"
   inkscape:window-y="36"
   inkscape:window-maximized="0"
   inkscape:current-layer="Layer_1" />
<style
   type="text/css"
   id="style2">
	.st0{fill:#161341;}
	.st1{fill:#FFF200;}
	.st2{fill:#4E4F51;}
	.st3{fill:#F47522;}
	.st4{opacity:0.2;fill:#504D50;}
	.st5{opacity:0.4;fill:#504D50;}
	.st6{opacity:0.6;fill:#504D50;}
	.st7{opacity:0.8;fill:#504D50;}
	.st8{fill:#4A4F54;}
	.st9{opacity:0.2;fill:#F37021;}
	.st10{opacity:0.4;fill:#F37021;}
	.st11{opacity:0.6;fill:#F37021;}
	.st12{opacity:0.8;fill:#F37021;}
	.st13{fill:#F37021;}
	.st14{opacity:0.2;fill:#161341;}
	.st15{opacity:0.4;fill:#161341;}
	.st16{opacity:0.6;fill:#161341;}
	.st17{opacity:0.8;fill:#161341;}
	.st18{fill:#1F1646;}
	.st19{fill:#CCC9CA;}
	.st20{fill:#A7A2A3;}
	.st21{fill:#938D8F;}
	.st22{fill:#868183;}
	.st23{fill:#6F6A6C;}
	.st24{fill:#6A6567;}
	.st25{fill:#5A5658;}
	.st26{fill:#FEDEC7;}
	.st27{fill:#FCC198;}
	.st28{fill:#FAB07F;}
	.st29{fill:#F9A56F;}
	.st30{fill:#F78F4F;}
	.st31{fill:#F68A46;}
	.st32{fill:#F47A2E;}
	.st33{fill:#B8B3C2;}
	.st34{fill:#857E97;}
	.st35{fill:#6B6481;}
	.st36{fill:#5C5574;}
	.st37{fill:#3F3A5D;}
	.st38{fill:#383458;}
	.st39{fill:#24204A;}
</style>
<g
   id="g28"
   transform="translate(-84.0175,-24.18)">
	<path
   class="st2"
   d="m 377.4,241.79 c 0.12,0.68 0.18,1.48 0.18,2.4 v 16.44 c 0.04,1.24 -0.16,2.27 -0.6,3.09 -0.44,0.82 -1.1,1.41 -1.98,1.77 -0.88,0.36 -1.82,0.59 -2.82,0.69 -1,0.1 -2.2,0.11 -3.6,0.03 v -29.22 c 0,-2.6 4.18,-4 12.54,-4.2 1.28,-0.04 2.41,-0.03 3.39,0.03 0.98,0.06 1.74,0.12 2.28,0.18 0.54,0.06 1.07,0.22 1.59,0.48 0.52,0.26 0.84,0.42 0.96,0.48 0.12,0.06 0.37,0.28 0.75,0.66 0.38,0.38 0.59,0.59 0.63,0.63 0.36,-0.44 0.64,-0.75 0.84,-0.93 0.2,-0.18 0.62,-0.42 1.26,-0.72 0.64,-0.3 1.55,-0.5 2.73,-0.6 1.18,-0.1 2.69,-0.15 4.53,-0.15 2.16,0 4.07,0.32 5.73,0.96 1.66,0.64 2.92,1.4 3.78,2.28 0.86,0.88 1.56,1.88 2.1,3 0.54,1.12 0.89,2.03 1.05,2.73 0.16,0.7 0.24,1.33 0.24,1.89 l -0.06,22.5 c -1.4,0.08 -2.6,0.07 -3.6,-0.03 -1,-0.1 -1.94,-0.33 -2.82,-0.69 -0.88,-0.36 -1.54,-0.95 -1.98,-1.77 -0.44,-0.82 -0.64,-1.85 -0.6,-3.09 v -15.84 c 0,-0.28 -0.01,-0.49 -0.03,-0.63 -0.02,-0.14 -0.1,-0.44 -0.24,-0.9 -0.14,-0.46 -0.35,-0.82 -0.63,-1.08 -0.28,-0.26 -0.71,-0.51 -1.29,-0.75 -0.58,-0.24 -1.29,-0.36 -2.13,-0.36 -1.8,0 -3.16,0.12 -4.08,0.36 v 24.78 h -9.42 v -23.28 c -0.08,-1.24 -1.52,-1.86 -4.32,-1.86 -1.8,0 -3.26,0.23 -4.38,0.72 z"
   id="path4"
   inkscape:connector-curvature="0"
   style="fill:#4e4f51" />
	<path
   class="st2"
   d="m 422.94,229.49 c -0.92,-0.96 -1.38,-2.1 -1.38,-3.42 0,-1.32 0.47,-2.45 1.41,-3.39 0.94,-0.94 2.07,-1.41 3.39,-1.41 1.32,0 2.45,0.47 3.39,1.41 0.94,0.94 1.41,2.07 1.41,3.39 0,1.32 -0.47,2.45 -1.41,3.39 -0.94,0.94 -2.07,1.41 -3.39,1.41 -1.32,0 -2.46,-0.46 -3.42,-1.38 z m 7.86,9.42 c 0,-1.96 -0.32,-3.37 -0.96,-4.23 -0.64,-0.86 -1.37,-1.29 -2.19,-1.29 -0.82,0 -1.82,-0.05 -3,-0.15 -1.18,-0.1 -2.13,-0.41 -2.85,-0.93 v 33.9 c 2.92,0.16 5.17,-0.13 6.75,-0.87 1.58,-0.74 2.33,-2.31 2.25,-4.71 z"
   id="path6"
   inkscape:connector-curvature="0"
   style="fill:#4e4f51" />
	<path
   class="st2"
   d="m 466.02,234.05 c 0,0.04 0,0.12 0,0.24 0.52,4.64 -1.06,6.96 -4.74,6.96 -0.44,0 -1.17,-0.01 -2.19,-0.03 -1.02,-0.02 -1.78,-0.03 -2.28,-0.03 -0.5,0 -1.19,0.05 -2.07,0.15 -0.88,0.1 -1.56,0.25 -2.04,0.45 -0.48,0.2 -1.02,0.51 -1.62,0.93 -0.6,0.42 -1.06,0.93 -1.38,1.53 -0.32,0.6 -0.59,1.38 -0.81,2.34 -0.22,0.96 -0.33,2.04 -0.33,3.24 0,1.16 0.1,2.18 0.3,3.06 0.2,0.88 0.45,1.62 0.75,2.22 0.3,0.6 0.75,1.11 1.35,1.53 0.6,0.42 1.2,0.75 1.8,0.99 0.6,0.24 1.41,0.42 2.43,0.54 1.02,0.12 1.96,0.19 2.82,0.21 0.86,0.02 1.99,0.03 3.39,0.03 0.56,0 1.05,0.07 1.47,0.21 0.42,0.14 0.78,0.32 1.08,0.54 0.3,0.22 0.56,0.5 0.78,0.84 0.22,0.34 0.39,0.68 0.51,1.02 0.12,0.34 0.21,0.71 0.27,1.11 0.06,0.4 0.09,0.77 0.09,1.11 0,0.34 -0.01,0.69 -0.03,1.05 -0.02,0.36 -0.04,0.66 -0.06,0.9 -0.02,0.24 -0.07,0.58 -0.15,1.02 -1.64,0.2 -3.11,0.35 -4.41,0.45 -1.3,0.1 -2.91,0.12 -4.83,0.06 -1.92,-0.06 -3.6,-0.26 -5.04,-0.6 -1.44,-0.34 -2.94,-0.9 -4.5,-1.68 -1.56,-0.78 -2.85,-1.78 -3.87,-3 -1.02,-1.22 -1.86,-2.82 -2.52,-4.8 -0.66,-1.98 -0.99,-4.25 -0.99,-6.81 0,-13.4 8.2,-18.78 24.6,-16.14 0.56,0.08 1.3,0.2 2.22,0.36 z"
   id="path8"
   inkscape:connector-curvature="0"
   style="fill:#4e4f51" />
	<path
   class="st2"
   d="m 495.06,232.91 c -0.04,0.08 -0.03,0.5 0.03,1.26 0.06,0.76 0.05,1.49 -0.03,2.19 -0.08,0.7 -0.24,1.45 -0.48,2.25 -0.24,0.8 -0.73,1.44 -1.47,1.92 -0.74,0.48 -1.69,0.72 -2.85,0.72 -1.68,0 -2.98,0.06 -3.9,0.18 -0.92,0.12 -1.74,0.42 -2.46,0.9 -0.72,0.48 -1.2,1.16 -1.44,2.04 -0.24,0.88 -0.36,2.08 -0.36,3.6 v 19.2 c -0.72,-0.52 -1.67,-0.93 -2.85,-1.23 -1.18,-0.3 -2.18,-0.53 -3,-0.69 -0.82,-0.16 -1.55,-0.63 -2.19,-1.41 -0.64,-0.78 -0.96,-1.91 -0.96,-3.39 v -16.08 c 0,-0.24 0.01,-0.57 0.03,-0.99 0.02,-0.42 0.09,-1 0.21,-1.74 0.12,-0.74 0.32,-1.48 0.6,-2.22 0.28,-0.74 0.7,-1.51 1.26,-2.31 0.56,-0.8 1.24,-1.5 2.04,-2.1 0.8,-0.6 1.83,-1.1 3.09,-1.5 1.26,-0.4 2.67,-0.6 4.23,-0.6 2.68,0 4.66,0 5.94,0 1.28,0 1.98,0 2.1,0 0.12,0 0.35,0 0.69,0 0.34,0 0.93,0 1.77,0 z"
   id="path10"
   inkscape:connector-curvature="0"
   style="fill:#4e4f51" />
	<path
   class="st2"
   d="m 496.86,249.59 c -0.04,-0.24 -0.07,-0.56 -0.09,-0.96 -0.02,-0.4 0.04,-1.18 0.18,-2.34 0.14,-1.16 0.37,-2.27 0.69,-3.33 0.32,-1.06 0.88,-2.23 1.68,-3.51 0.8,-1.28 1.79,-2.38 2.97,-3.3 1.18,-0.92 2.77,-1.69 4.77,-2.31 2,-0.62 4.28,-0.93 6.84,-0.93 1.8,0 3.46,0.14 4.98,0.42 1.52,0.28 2.83,0.66 3.93,1.14 1.1,0.48 2.08,1.08 2.94,1.8 0.86,0.72 1.57,1.43 2.13,2.13 0.56,0.7 1.03,1.53 1.41,2.49 0.38,0.96 0.67,1.79 0.87,2.49 0.2,0.7 0.34,1.52 0.42,2.46 0.08,0.94 0.13,1.65 0.15,2.13 0.02,0.48 0.02,1.09 0,1.83 -0.02,0.74 -0.03,1.15 -0.03,1.23 0,0.64 -0.02,1.22 -0.06,1.74 -0.04,0.52 -0.16,1.34 -0.36,2.46 -0.2,1.12 -0.48,2.12 -0.84,3 -0.36,0.88 -0.93,1.84 -1.71,2.88 -0.78,1.04 -1.7,1.91 -2.76,2.61 -1.06,0.7 -2.44,1.29 -4.14,1.77 -1.7,0.48 -3.61,0.72 -5.73,0.72 -2.2,0 -4.16,-0.14 -5.88,-0.42 -1.72,-0.28 -3.18,-0.65 -4.38,-1.11 -1.2,-0.46 -2.25,-1.09 -3.15,-1.89 -0.9,-0.8 -1.63,-1.62 -2.19,-2.46 -0.56,-0.84 -1.02,-1.88 -1.38,-3.12 -0.36,-1.24 -0.63,-2.43 -0.81,-3.57 -0.18,-1.14 -0.33,-2.49 -0.45,-4.05 z m 8.94,0.54 c 0.12,1.4 0.29,2.51 0.51,3.33 0.22,0.82 0.62,1.63 1.2,2.43 0.58,0.8 1.45,1.38 2.61,1.74 1.16,0.36 2.64,0.54 4.44,0.54 1.4,0 2.6,-0.22 3.6,-0.66 1,-0.44 1.74,-0.94 2.22,-1.5 0.48,-0.56 0.86,-1.24 1.14,-2.04 0.28,-0.8 0.44,-1.4 0.48,-1.8 0.04,-0.4 0.06,-0.84 0.06,-1.32 0,-0.04 0,-0.25 0,-0.63 0,-0.38 0,-0.7 0,-0.96 0,-0.26 -0.02,-0.65 -0.06,-1.17 -0.04,-0.52 -0.11,-0.97 -0.21,-1.35 -0.1,-0.38 -0.24,-0.83 -0.42,-1.35 -0.18,-0.52 -0.4,-0.97 -0.66,-1.35 -0.26,-0.38 -0.6,-0.77 -1.02,-1.17 -0.42,-0.4 -0.89,-0.73 -1.41,-0.99 -0.52,-0.26 -1.15,-0.47 -1.89,-0.63 -0.74,-0.16 -1.55,-0.24 -2.43,-0.24 -1.6,0 -2.96,0.22 -4.08,0.66 -1.12,0.44 -1.94,0.95 -2.46,1.53 -0.52,0.58 -0.92,1.34 -1.2,2.28 -0.28,0.94 -0.43,1.67 -0.45,2.19 -0.02,0.52 -0.01,1.18 0.03,1.98 0,0.23 0,0.4 0,0.48 z"
   id="path12"
   inkscape:connector-curvature="0"
   style="fill:#4e4f51" />
	<path
   class="st2"
   d="m 559.08,220.3 c 0,0.08 0,0.24 0,0.48 0.08,0.64 0.13,1.15 0.15,1.53 0.02,0.38 0.04,0.91 0.06,1.59 0.02,0.68 -0.03,1.24 -0.15,1.68 -0.12,0.44 -0.28,0.89 -0.48,1.35 -0.2,0.46 -0.51,0.81 -0.93,1.05 -0.42,0.24 -0.93,0.36 -1.53,0.36 -0.8,0 -1.72,-0.01 -2.76,-0.03 -1.04,-0.02 -1.76,-0.04 -2.16,-0.06 -0.4,-0.02 -0.88,0.01 -1.44,0.09 -0.56,0.08 -0.91,0.21 -1.05,0.39 -0.14,0.18 -0.32,0.48 -0.54,0.9 -0.22,0.42 -0.34,0.91 -0.36,1.47 -0.02,0.56 -0.05,1.3 -0.09,2.22 l 9.84,0.18 c 0.04,0.2 0.07,0.47 0.09,0.81 0.02,0.34 -0.02,0.95 -0.12,1.83 -0.1,0.88 -0.29,1.65 -0.57,2.31 -0.28,0.66 -0.8,1.26 -1.56,1.8 -0.76,0.54 -1.72,0.81 -2.88,0.81 -3.2,0 -4.8,0.26 -4.8,0.78 v 26.64 c -0.56,-0.6 -1.27,-1.04 -2.13,-1.32 -0.86,-0.28 -1.63,-0.49 -2.31,-0.63 -0.68,-0.14 -1.35,-0.38 -2.01,-0.72 -0.66,-0.34 -1.17,-1 -1.53,-1.98 -0.36,-0.98 -0.54,-2.33 -0.54,-4.05 v -30.24 -0.06 c 0.04,-0.4 0.09,-0.83 0.15,-1.29 0.06,-0.46 0.28,-1.22 0.66,-2.28 0.38,-1.06 0.87,-1.97 1.47,-2.73 0.6,-0.76 1.52,-1.45 2.76,-2.07 1.24,-0.62 2.68,-0.93 4.32,-0.93 2.08,0 3.7,0 4.86,0 1.16,0 1.89,0.01 2.19,0.03 0.3,0.02 0.73,0.03 1.29,0.03 0.56,0.01 1.26,0.03 2.1,0.06 z"
   id="path14"
   inkscape:connector-curvature="0"
   style="fill:#4e4f51" />
	<path
   class="st2"
   d="m 568.14,229.49 c -0.92,-0.96 -1.38,-2.1 -1.38,-3.42 0,-1.32 0.47,-2.45 1.41,-3.39 0.94,-0.94 2.07,-1.41 3.39,-1.41 1.32,0 2.45,0.47 3.39,1.41 0.94,0.94 1.41,2.07 1.41,3.39 0,1.32 -0.47,2.45 -1.41,3.39 -0.94,0.94 -2.07,1.41 -3.39,1.41 -1.32,0 -2.46,-0.46 -3.42,-1.38 z m 7.86,9.42 c 0,-1.96 -0.32,-3.37 -0.96,-4.23 -0.64,-0.86 -1.37,-1.29 -2.19,-1.29 -0.82,0 -1.82,-0.05 -3,-0.15 -1.18,-0.1 -2.13,-0.41 -2.85,-0.93 v 33.9 c 2.92,0.16 5.17,-0.13 6.75,-0.87 1.58,-0.74 2.33,-2.31 2.25,-4.71 z"
   id="path16"
   inkscape:connector-curvature="0"
   style="fill:#4e4f51" />
	<path
   class="st2"
   d="m 615.24,244.37 v 21.84 c -1.4,0.08 -2.6,0.07 -3.6,-0.03 -1,-0.1 -1.95,-0.33 -2.85,-0.69 -0.9,-0.36 -1.56,-0.95 -1.98,-1.77 -0.42,-0.82 -0.61,-1.85 -0.57,-3.09 v -12.96 -0.12 -3 c -0.6,-2.92 -3.32,-4.08 -8.16,-3.48 -2.52,0.32 -3.98,0.56 -4.38,0.72 0.12,0.68 0.18,1.48 0.18,2.4 v 16.44 c 0.04,1.24 -0.16,2.27 -0.6,3.09 -0.44,0.82 -1.1,1.41 -1.98,1.77 -0.88,0.36 -1.82,0.59 -2.82,0.69 -1,0.1 -2.2,0.11 -3.6,0.03 v -29.22 c 0,-2.6 4.18,-4 12.54,-4.2 11.84,-0.32 17.78,3.54 17.82,11.58 z"
   id="path18"
   inkscape:connector-curvature="0"
   style="fill:#4e4f51" />
	<path
   class="st2"
   d="m 626.16,241.3 c 0,-0.12 -0.02,-0.28 -0.06,-0.48 -0.04,-0.2 -0.05,-0.59 -0.03,-1.17 0.02,-0.58 0.08,-1.13 0.18,-1.65 0.1,-0.52 0.3,-1.11 0.6,-1.77 0.3,-0.66 0.7,-1.22 1.2,-1.68 0.5,-0.46 1.18,-0.85 2.04,-1.17 0.86,-0.32 1.87,-0.48 3.03,-0.48 0.36,0 0.92,0 1.68,0 1.04,-0.04 2.11,-0.04 3.21,0 1.1,0.04 2.2,0.09 3.3,0.15 1.1,0.06 2.17,0.23 3.21,0.51 1.04,0.28 2.03,0.62 2.97,1.02 0.94,0.4 1.8,0.97 2.58,1.71 0.78,0.74 1.46,1.59 2.04,2.55 0.58,0.96 1.03,2.14 1.35,3.54 0.32,1.4 0.48,2.98 0.48,4.74 v 0.42 0.42 0.48 0.42 0.48 0.48 0.54 0.6 0.6 0.72 0.96 0.48 c 0,1.64 -0.18,3.13 -0.54,4.47 -0.36,1.34 -0.81,2.43 -1.35,3.27 -0.54,0.84 -1.21,1.58 -2.01,2.22 -0.8,0.64 -1.55,1.11 -2.25,1.41 -0.7,0.3 -1.51,0.54 -2.43,0.72 -0.92,0.18 -1.63,0.29 -2.13,0.33 -0.5,0.04 -1.09,0.06 -1.77,0.06 h -8.28 c -0.12,0 -0.3,-0.01 -0.54,-0.03 -0.24,-0.02 -0.69,-0.08 -1.35,-0.18 -0.66,-0.1 -1.29,-0.25 -1.89,-0.45 -0.6,-0.2 -1.27,-0.53 -2.01,-0.99 -0.74,-0.46 -1.37,-1 -1.89,-1.62 -0.52,-0.62 -0.96,-1.43 -1.32,-2.43 -0.36,-1 -0.54,-2.12 -0.54,-3.36 0,-2.2 0.28,-4.05 0.84,-5.55 0.56,-1.5 1.41,-2.66 2.55,-3.48 1.14,-0.82 2.41,-1.39 3.81,-1.71 1.4,-0.32 3.1,-0.48 5.1,-0.48 3.48,0 5.85,-0.23 7.11,-0.69 1.26,-0.46 1.89,-1.17 1.89,-2.13 0,-1.36 -1.31,-2.28 -3.93,-2.76 -2.62,-0.48 -5.4,-0.58 -8.34,-0.3 -2.94,0.29 -5.11,0.71 -6.51,1.26 z m 19.02,9.07 c -0.16,0.2 -0.39,0.44 -0.69,0.72 -0.3,0.28 -0.97,0.65 -2.01,1.11 -1.04,0.46 -2.12,0.69 -3.24,0.69 -1.96,0 -3.55,0.24 -4.77,0.72 -1.22,0.48 -1.83,1.16 -1.83,2.04 0,1.04 0.44,1.82 1.32,2.34 0.88,0.52 2.64,0.78 5.28,0.78 1.08,0 1.91,-0.01 2.49,-0.03 0.58,-0.02 1.12,-0.17 1.62,-0.45 0.5,-0.28 0.85,-0.54 1.05,-0.78 0.2,-0.24 0.37,-0.75 0.51,-1.53 0.14,-0.78 0.22,-1.53 0.24,-2.25 0.02,-0.73 0.03,-1.84 0.03,-3.36 z"
   id="path20"
   inkscape:connector-curvature="0"
   style="fill:#4e4f51" />
	<path
   class="st2"
   d="m 693,244.37 v 21.84 c -1.4,0.08 -2.6,0.07 -3.6,-0.03 -1,-0.1 -1.95,-0.33 -2.85,-0.69 -0.9,-0.36 -1.56,-0.95 -1.98,-1.77 -0.42,-0.82 -0.61,-1.85 -0.57,-3.09 v -12.96 -0.12 -3 c -0.6,-2.92 -3.32,-4.08 -8.16,-3.48 -2.52,0.32 -3.98,0.56 -4.38,0.72 0.12,0.68 0.18,1.48 0.18,2.4 v 16.44 c 0.04,1.24 -0.16,2.27 -0.6,3.09 -0.44,0.82 -1.1,1.41 -1.98,1.77 -0.88,0.36 -1.82,0.59 -2.82,0.69 -1,0.1 -2.2,0.11 -3.6,0.03 v -29.22 c 0,-2.6 4.18,-4 12.54,-4.2 11.84,-0.32 17.78,3.54 17.82,11.58 z"
   id="path22"
   inkscape:connector-curvature="0"
   style="fill:#4e4f51" />
	<path
   class="st2"
   d="m 728.34,234.05 c 0,0.04 0,0.12 0,0.24 0.52,4.64 -1.06,6.96 -4.74,6.96 -0.44,0 -1.17,-0.01 -2.19,-0.03 -1.02,-0.02 -1.78,-0.03 -2.28,-0.03 -0.5,0 -1.19,0.05 -2.07,0.15 -0.88,0.1 -1.56,0.25 -2.04,0.45 -0.48,0.2 -1.02,0.51 -1.62,0.93 -0.6,0.42 -1.06,0.93 -1.38,1.53 -0.32,0.6 -0.59,1.38 -0.81,2.34 -0.22,0.96 -0.33,2.04 -0.33,3.24 0,1.16 0.1,2.18 0.3,3.06 0.2,0.88 0.45,1.62 0.75,2.22 0.3,0.6 0.75,1.11 1.35,1.53 0.6,0.42 1.2,0.75 1.8,0.99 0.6,0.24 1.41,0.42 2.43,0.54 1.02,0.12 1.96,0.19 2.82,0.21 0.86,0.02 1.99,0.03 3.39,0.03 0.56,0 1.05,0.07 1.47,0.21 0.42,0.14 0.78,0.32 1.08,0.54 0.3,0.22 0.56,0.5 0.78,0.84 0.22,0.34 0.39,0.68 0.51,1.02 0.12,0.34 0.21,0.71 0.27,1.11 0.06,0.4 0.09,0.77 0.09,1.11 0,0.34 -0.01,0.69 -0.03,1.05 -0.02,0.36 -0.04,0.66 -0.06,0.9 -0.02,0.24 -0.07,0.58 -0.15,1.02 -1.64,0.2 -3.11,0.35 -4.41,0.45 -1.3,0.1 -2.91,0.12 -4.83,0.06 -1.92,-0.06 -3.6,-0.26 -5.04,-0.6 -1.44,-0.34 -2.94,-0.9 -4.5,-1.68 -1.56,-0.78 -2.85,-1.78 -3.87,-3 -1.02,-1.22 -1.86,-2.82 -2.52,-4.8 -0.66,-1.98 -0.99,-4.25 -0.99,-6.81 0,-13.4 8.2,-18.78 24.6,-16.14 0.55,0.08 1.29,0.2 2.22,0.36 z"
   id="path24"
   inkscape:connector-curvature="0"
   style="fill:#4e4f51" />
	<path
   class="st2"
   d="m 742.08,254.69 c 0,1.24 0.62,2.17 1.86,2.79 1.24,0.62 2.81,0.94 4.71,0.96 1.9,0.02 3.76,-0.06 5.58,-0.24 1.82,-0.18 3.54,-0.39 5.16,-0.63 1.62,-0.24 2.55,-0.36 2.79,-0.36 0.16,3.48 -0.53,5.94 -2.07,7.38 -1.54,1.44 -4.63,2.16 -9.27,2.16 -6.4,0 -11.1,-1.3 -14.1,-3.9 -3,-2.6 -4.5,-7.1 -4.5,-13.5 0,-3.2 0.41,-5.91 1.23,-8.13 0.82,-2.22 2.02,-3.91 3.6,-5.07 1.58,-1.16 3.34,-1.98 5.28,-2.46 1.94,-0.48 4.21,-0.72 6.81,-0.72 4.96,0 8.61,1.05 10.95,3.15 2.34,2.1 3.51,5.45 3.51,10.05 0,1.76 -0.34,3.17 -1.02,4.23 -0.68,1.06 -1.57,1.77 -2.67,2.13 -1.1,0.36 -2.42,0.62 -3.96,0.78 -1.54,0.16 -3.06,0.21 -4.56,0.15 -1.5,-0.06 -3.12,0.01 -4.86,0.21 -1.75,0.2 -3.24,0.54 -4.47,1.02 z m -0.31,-6.31 c 0.68,-0.48 1.79,-0.8 3.33,-0.96 1.54,-0.16 2.98,-0.25 4.32,-0.27 1.34,-0.02 2.53,-0.3 3.57,-0.84 1.04,-0.54 1.54,-1.39 1.5,-2.55 0,-1.04 -0.82,-1.9 -2.46,-2.58 -2.28,-0.96 -4.5,-1.04 -6.66,-0.24 -2.99,1.09 -4.2,3.57 -3.6,7.44 z"
   id="path26"
   inkscape:connector-curvature="0"
   style="fill:#4e4f51" />
</g>
<g
   id="g36"
   transform="translate(-84.0175,-24.18)">
	<path
   class="st0"
   d="m 336.62,97.03 h 8.95 c 0,0 7.95,-0.61 7.95,6.12 0,7.16 0,14.16 0,14.16 h -16.9 l 0.26,94.9 h -17.5 c 0,0 -9.76,1.15 -9.76,-13.68 0,-17.24 0,-130.74 0,-130.74 0,0 -3.01,-28.75 27.15,-28.75 l 25.66,0.1 0.01,6.42 c 0.01,7.36 -5.92,13.36 -13.29,13.42 v 0 c 0,0 -12.38,-0.48 -12.38,9.28 -0.01,3.21 -0.15,28.77 -0.15,28.77 z"
   id="path30"
   inkscape:connector-curvature="0"
   style="fill:#161341" />
	<path
   class="st0"
   d="m 367.14,211.81 v -76.59 c 0,-2.59 0.86,-4.87 2.58,-6.84 1.72,-1.97 4.01,-2.96 6.88,-2.96 h 12.07 v 76.59 c 0,2.59 -0.94,4.87 -2.83,6.84 -1.89,1.97 -4.07,2.96 -6.54,2.96 z m 6.5,-115.68 h 15.54 c 0.06,0 0.08,0.03 0.08,0.08 V 112 c 0,2.25 -1.15,3.83 -3.46,4.73 -0.56,0.11 -1.1,0.17 -1.6,0.17 h -15.87 c -0.06,0 -0.08,-0.03 -0.08,-0.08 v -15.37 c 0,-2.59 1.18,-4.28 3.55,-5.07 0.49,-0.17 1.11,-0.25 1.84,-0.25 z"
   id="path32"
   inkscape:connector-curvature="0"
   style="fill:#161341" />
	<path
   class="st0"
   d="m 472.94,200.83 c 0,3.15 -0.91,5.63 -2.71,7.43 -2.37,2.42 -5.06,3.63 -8.05,3.63 h -11.53 v -66.88 c 0,-5.46 -3.84,-8.19 -11.53,-8.19 -7.68,0 -11.53,2.73 -11.53,8.19 v 55.81 c 0,3.15 -0.91,5.63 -2.71,7.43 -1.75,2.42 -4.12,3.63 -7.12,3.63 H 405.3 v -65.95 c 0,-14.02 11.27,-21.03 33.82,-21.03 22.55,0 33.82,7.01 33.82,21.03 z"
   id="path34"
   inkscape:connector-curvature="0"
   style="fill:#161341" />
</g>
<g
   id="g46"
   transform="translate(-84.0175,-24.18)">
	<path
   class="st3"
   d="m 716.29,200.83 c 0,3.15 -0.91,5.63 -2.71,7.43 -2.37,2.42 -5.06,3.63 -8.05,3.63 H 694 v -66.88 c 0,-5.46 -3.84,-8.19 -11.53,-8.19 -7.68,0 -11.53,2.73 -11.53,8.19 v 55.81 c 0,3.15 -0.91,5.63 -2.71,7.43 -1.75,2.42 -4.12,3.63 -7.12,3.63 h -12.46 v -65.95 c 0,-14.02 11.27,-21.03 33.82,-21.03 22.55,0 33.82,7.01 33.82,21.03 z"
   id="path38"
   inkscape:connector-curvature="0"
   style="fill:#f47522" />
	<path
   class="st3"
   d="m 522.67,125.09 c 12.95,0 21.9,2.51 26.85,7.52 4.67,4.5 7.01,11.74 7.01,21.7 v 0.34 h -13.68 c -2.2,0 -4.19,-0.99 -6,-2.96 -1.18,-1.63 -1.77,-3.35 -1.77,-5.15 v -0.76 c 0,-3.94 -1.75,-6.5 -5.24,-7.68 -1.86,-0.56 -4.02,-0.84 -6.5,-0.84 -7.82,0 -11.74,2.76 -11.74,8.26 v 45.79 c 0,3.71 1.75,6.13 5.24,7.25 1.75,0.56 3.69,0.84 5.83,0.84 h 1.18 c 5.29,0 8.75,-1.43 10.39,-4.29 0.56,-1.12 0.84,-2.44 0.84,-3.95 v -3.78 c 0,-2.92 1.29,-5.27 3.88,-7.06 1.29,-0.73 2.79,-1.09 4.48,-1.09 h 13.09 v 0.42 c 0,10.58 -1.8,18.1 -5.4,22.55 -0.17,0.34 -0.93,1.18 -2.28,2.53 -4.95,4.73 -13.68,7.09 -26.18,7.09 -14.19,0 -24.04,-3.12 -29.55,-9.37 -2.76,-3.26 -4.14,-7.32 -4.14,-12.16 v -43.66 c 0,-9.79 5.57,-16.3 16.72,-19.51 4.96,-1.36 10.61,-2.03 16.97,-2.03 z"
   id="path40"
   inkscape:connector-curvature="0"
   style="fill:#f47522" />
	<path
   class="st3"
   d="m 632.53,146.71 v 18.07 c 0,2.98 -0.94,5.38 -2.83,7.18 -1.89,1.8 -4.04,2.7 -6.46,2.7 H 587.1 v 17.56 c 0,5.52 3.72,8.28 11.15,8.28 7.82,0 11.74,-2.76 11.74,-8.28 v -1.19 c 0,-5.26 4.27,-9.53 9.53,-9.53 h 13.01 v 9.71 c 0,14.02 -11.43,21.03 -34.28,21.03 -10.25,0 -18.35,-1.79 -24.32,-5.36 -5.97,-3.57 -8.95,-8.8 -8.95,-15.66 v -44.5 c 0,-6.81 2.98,-12.09 8.95,-15.83 5.97,-3.74 14.07,-5.62 24.32,-5.62 22.85,-0.01 34.28,7.14 34.28,21.44 z m -45.34,-0.85 v 15.62 h 23.05 v -15.62 c 0,-5.85 -3.94,-8.78 -11.82,-8.78 -7.49,0 -11.23,2.93 -11.23,8.78 z"
   id="path42"
   inkscape:connector-curvature="0"
   style="fill:#f47522" />
	<path
   class="st3"
   d="m 727.01,137.19 c -2.59,0 -4.94,-2.21 -4.94,-4.94 v -6.68 l 11.17,0.01 v -18.5 c 0,-9.99 9.72,-10.2 9.72,-10.2 h 12.25 l -0.04,28.36 v 0.32 h 6.26 c 2.73,0 4.94,2.21 4.94,4.94 v 6.68 l -11.22,0.06 v 3.53 l 0.01,11.58 c 0,0 0.07,37.68 0,39.86 -0.26,8 11.11,8.65 11.11,8.65 l -0.13,11.02 c -8.21,-0.48 -19.37,-2.68 -19.37,-2.68 -14.01,-2.81 -13.66,-16.17 -13.66,-16.17 V 151.7 l 0.13,-14.46"
   id="path44"
   inkscape:connector-curvature="0"
   style="fill:#f47522" />
</g>
<path
   class="st3"
   d="m 106.8725,197.15 36.28,-37.08 c 17.9,-18.3 17.9,-47.54 0,-65.84 l -36.28,-37.08 V 6.73 c -0.04,-1.74 0.6,-3.49 1.93,-4.81 2.57,-2.56 6.72,-2.55 9.27,0.02 l 57.9,57.64 c 37.43,37.27 37.43,97.87 0,135.14 l -57.79,57.54 c -1.19,1.26 -2.89,2.05 -4.76,2.05 -3.62,0 -6.56,-2.94 -6.56,-6.56 v -50.6 z"
   id="path48"
   inkscape:connector-curvature="0"
   style="fill:#f47522" />
<path
   class="st0"
   d="m 97.1725,57.16 -36.28,37.08 c -17.9,18.3 -17.9,47.54 0,65.84 l 36.28,37.08 v 50.42 c 0.04,1.74 -0.6,3.49 -1.93,4.81 -2.57,2.56 -6.72,2.55 -9.27,-0.02 l -57.9,-57.64 c -37.43,-37.27 -37.43,-97.87 0,-135.14 l 57.79,-57.54 c 1.19,-1.26 2.89,-2.05 4.76,-2.05 3.62,0 6.56,2.94 6.56,6.56 v 50.6 z m -25.32,71.86 c -7.82,7.82 -7.82,20.49 0,28.31 7.82,7.82 20.49,7.82 28.31,0 l 32.03,-32.03 c 7.82,-7.82 7.82,-20.49 0,-28.31 -7.82,-7.82 -20.49,-7.82 -28.31,0 z"
   id="path50"
   inkscape:connector-curvature="0"
   style="fill:#161341" />
</svg>