<?xml version="1.0" standalone="no"?>
<!DOCTYPE svg PUBLIC "-//W3C//DTD SVG 20010904//EN"
 "http://www.w3.org/TR/2001/REC-SVG-20010904/DTD/svg10.dtd">
<svg version="1.0" xmlns="http://www.w3.org/2000/svg"
 width="1016.000000pt" height="1016.000000pt" viewBox="0 0 1016.000000 1016.000000"
 preserveAspectRatio="xMidYMid meet">
<metadata>
Created by potrace 1.11, written by Peter Selinger 2001-2013
</metadata>
<g transform="translate(0.000000,1016.000000) scale(0.100000,-0.100000)"
fill="#000000" stroke="none">
<path d="M4560 10151 c-75 -24 -62 -11 -1342 -1289 -197 -196 -358 -360 -358
-364 0 -4 -4 -8 -8 -8 -11 0 -757 -744 -857 -855 -44 -49 -87 -96 -96 -106 -9
-9 -21 -23 -25 -32 -8 -13 -35 -47 -92 -115 -12 -15 -43 -58 -69 -97 -26 -38
-49 -72 -53 -75 -10 -9 -88 -135 -101 -162 -7 -16 -16 -28 -21 -28 -4 0 -8 -5
-8 -10 0 -6 -11 -28 -24 -49 -67 -105 -259 -524 -270 -586 -1 -5 -5 -16 -9
-22 -5 -7 -5 -13 -1 -13 3 0 2 -6 -3 -12 -6 -7 -20 -47 -32 -88 -12 -41 -25
-82 -28 -90 -7 -18 -10 -28 -17 -55 -21 -90 -39 -162 -43 -175 -3 -8 -7 -28
-9 -44 -3 -17 -8 -46 -13 -65 -12 -46 -36 -203 -46 -301 -2 -19 -4 -35 -5 -35
-7 0 -14 -203 -14 -405 0 -215 5 -324 20 -434 2 -17 6 -52 9 -77 3 -25 8 -56
10 -69 3 -13 7 -40 10 -60 3 -20 8 -47 11 -60 2 -14 9 -50 15 -80 6 -30 14
-59 17 -64 3 -6 7 -19 8 -30 3 -29 36 -154 69 -256 14 -47 28 -89 29 -95 3
-12 15 -42 26 -70 4 -11 23 -58 40 -105 58 -152 215 -462 302 -598 10 -15 25
-40 34 -57 9 -16 20 -32 23 -35 13 -11 51 -70 51 -80 0 -5 3 -10 8 -10 4 0 18
-17 32 -38 46 -69 190 -245 279 -341 49 -53 281 -287 515 -521 1912 -1905
1967 -1959 1999 -1966 4 -1 8 -2 10 -4 4 -3 42 -11 83 -17 114 -15 248 88 269
208 5 26 9 1571 5 2014 l0 60 -192 197 c-106 108 -318 324 -470 480 -152 155
-348 356 -435 444 -327 334 -419 430 -453 474 -43 55 -62 79 -75 94 -14 15
-115 174 -115 180 0 3 -13 27 -28 53 -16 26 -29 51 -30 55 -1 5 -15 36 -31 70
-24 55 -54 133 -56 148 0 3 -4 11 -8 18 -5 6 -6 12 -2 12 3 0 1 8 -4 18 -6 11
-12 30 -15 43 -3 13 -10 44 -17 69 -19 78 -20 84 -24 119 -2 19 -7 50 -11 70
-3 20 -8 50 -10 66 -6 45 -6 346 1 375 3 14 8 48 11 75 7 58 12 90 14 90 1 0
3 9 5 20 10 73 70 271 89 294 6 8 9 16 7 18 -14 16 187 393 211 393 4 0 8 5 8
12 0 28 123 163 485 533 77 78 271 277 432 441 161 165 387 396 503 514 l210
215 0 100 c2 439 -1 1963 -3 1975 -5 23 -44 103 -59 120 -18 20 -88 72 -88 65
0 -3 -12 1 -27 8 -32 16 -115 20 -153 8z"/>
<path d="M5459 10147 c-45 -15 -117 -67 -125 -89 -3 -10 -10 -18 -15 -18 -6 0
-7 -4 -4 -10 3 -5 2 -10 -3 -10 -19 0 -47 -156 -30 -166 5 -3 5 -10 2 -16 -10
-16 -11 -88 -1 -88 4 0 5 -5 1 -12 -11 -18 -11 -111 -1 -125 5 -7 6 -13 1 -13
-5 0 -9 -38 -9 -85 0 -47 4 -85 8 -85 5 0 5 -5 1 -12 -11 -18 -11 -111 -1
-125 5 -7 6 -13 1 -13 -5 0 -9 -38 -9 -85 0 -47 4 -85 8 -85 5 0 5 -5 1 -12
-11 -18 -11 -111 -1 -125 5 -7 6 -13 1 -13 -5 0 -9 -38 -9 -85 0 -47 4 -85 8
-85 5 0 5 -5 1 -12 -11 -18 -11 -111 -1 -125 5 -7 6 -13 1 -13 -5 0 -9 -38 -9
-85 0 -47 4 -85 8 -85 5 0 5 -5 1 -12 -11 -18 -11 -111 -1 -125 5 -7 6 -13 1
-13 -5 0 -9 -38 -9 -85 0 -47 4 -85 8 -85 5 0 5 -5 1 -12 -11 -18 -11 -111 -1
-125 6 -8 6 -13 1 -13 -15 0 -7 -109 9 -133 9 -12 107 -115 219 -229 353 -359
964 -985 1171 -1198 150 -156 203 -220 290 -355 55 -85 155 -283 161 -317 1
-7 8 -23 14 -35 7 -13 10 -23 6 -23 -3 0 -2 -6 3 -12 9 -12 22 -50 30 -88 1
-8 12 -48 22 -88 22 -78 29 -125 46 -272 12 -108 7 -342 -10 -428 -2 -10 -6
-37 -10 -58 -13 -83 -16 -100 -25 -129 -5 -16 -11 -41 -14 -55 -10 -58 -106
-304 -136 -350 -5 -8 -16 -29 -24 -47 -8 -17 -33 -59 -55 -93 -23 -34 -41 -66
-41 -71 0 -5 -4 -9 -8 -9 -4 0 -16 -13 -25 -30 -10 -16 -23 -35 -30 -42 -7 -7
-30 -36 -52 -63 -40 -50 -123 -137 -490 -511 -110 -112 -317 -324 -460 -470
-143 -147 -335 -343 -427 -436 -91 -93 -168 -178 -171 -189 -3 -11 -1 -16 5
-13 6 4 7 0 1 -12 -10 -24 -10 -55 2 -73 5 -9 5 -16 -1 -18 -6 -2 -9 -20 -6
-41 2 -20 3 -41 3 -47 -6 -100 -5 -142 2 -152 6 -8 6 -13 0 -13 -9 0 -9 -111
0 -127 2 -4 1 -17 -3 -28 -4 -11 -4 -32 1 -47 4 -15 4 -30 0 -32 -8 -6 -7 -48
2 -63 4 -7 4 -14 0 -16 -5 -3 -7 -47 -6 -99 2 -51 3 -97 3 -103 0 -5 -1 -21
-3 -35 -2 -14 1 -31 6 -37 5 -7 6 -13 1 -13 -11 0 -11 -71 0 -88 4 -7 4 -18
-1 -24 -10 -17 -10 -49 0 -70 4 -10 4 -18 0 -18 -10 0 -10 -131 1 -148 4 -6 3
-12 -1 -12 -9 0 -9 -112 0 -127 2 -4 1 -17 -3 -28 -4 -11 -4 -32 1 -47 4 -15
4 -30 0 -32 -8 -6 -7 -48 2 -63 4 -7 4 -14 0 -16 -5 -3 -7 -47 -6 -99 2 -51 3
-97 3 -103 0 -5 -1 -21 -3 -35 -2 -14 1 -31 6 -37 5 -7 6 -13 1 -13 -5 0 -9
-19 -7 -42 1 -24 2 -43 3 -43 1 0 3 -14 4 -31 6 -73 66 -158 141 -197 58 -30
174 -30 232 0 25 14 296 276 695 673 1751 1744 1858 1852 1858 1871 0 5 6 9
13 9 7 0 20 12 29 28 10 15 27 39 40 54 58 67 158 196 158 204 0 3 11 20 25
38 38 47 37 45 96 141 63 100 114 190 144 250 11 22 26 46 33 53 6 7 12 17 12
22 0 8 57 137 81 182 38 74 144 372 179 503 11 44 23 87 25 95 7 24 35 153 42
185 8 46 11 60 13 60 1 0 3 14 5 30 2 17 6 47 9 68 14 86 17 114 21 152 2 22
7 72 11 110 9 88 10 548 1 635 -3 36 -8 90 -11 120 -3 30 -8 71 -11 90 -4 19
-8 50 -11 69 -4 34 -9 61 -19 111 -2 14 -7 39 -10 55 -4 17 -13 59 -22 94 -8
36 -17 73 -19 84 -2 10 -6 27 -9 37 -3 10 -8 29 -11 42 -6 28 -9 39 -17 58 -3
8 -19 58 -35 110 -36 113 -68 204 -86 245 -8 17 -28 64 -46 105 -71 164 -190
387 -273 512 -20 30 -37 60 -37 66 0 6 -3 12 -8 14 -4 2 -32 37 -61 78 -30 41
-58 77 -63 78 -4 2 -8 8 -8 14 0 14 -146 192 -227 275 -17 18 -30 33 -28 33 2
0 -299 301 -668 670 -1775 1769 -1792 1785 -1847 1797 -48 10 -130 10 -161 0z"/>
<path d="M5585 6508 c-131 -29 -260 -84 -319 -136 -15 -12 -26 -19 -26 -15 0
3 -14 -8 -30 -26 -17 -17 -32 -31 -33 -31 -7 0 -462 -459 -465 -469 -2 -6 -7
-11 -11 -11 -6 0 -828 -819 -866 -863 -159 -182 -231 -492 -165 -707 6 -19 13
-46 16 -60 6 -30 59 -137 99 -200 50 -79 227 -240 264 -240 6 0 11 -4 11 -8 0
-12 158 -70 232 -86 67 -13 242 -14 303 -1 167 35 289 101 418 225 233 225
1321 1322 1349 1360 93 128 135 234 156 395 24 176 -30 388 -136 539 -43 62
-197 216 -216 216 -2 0 -32 16 -65 35 -34 19 -78 39 -99 45 -63 19 -106 31
-132 36 -46 10 -245 11 -285 2z"/>
</g>
</svg>
